{"glyphs":{"0":{"ha":725,"x_min":92,"x_max":633,"o":"m 633 264 q 556 67 633 143 q 363 -8 479 -8 q 169 67 246 -8 q 92 264 92 143 l 92 725 q 169 922 92 846 q 363 997 246 997 q 556 922 479 997 q 633 725 633 846 l 633 264 m 533 269 l 533 719 q 488 856 533 803 q 363 908 443 908 q 237 856 282 908 q 192 719 192 803 l 192 269 q 237 133 192 186 q 363 81 282 81 q 488 133 443 81 q 533 269 533 186 z "},"1":{"ha":725,"x_min":174,"x_max":458,"o":"m 458 0 l 358 0 l 358 878 l 174 715 l 174 829 l 358 989 l 458 989 l 458 0 z "},"2":{"ha":725,"x_min":94,"x_max":640,"o":"m 640 0 l 94 0 l 94 89 l 485 585 q 540 731 540 657 q 494 860 540 811 q 368 908 449 908 q 244 864 293 908 q 196 729 196 819 l 96 729 q 171 922 96 847 q 368 997 246 997 q 565 924 490 997 q 640 731 640 851 q 622 629 640 674 q 561 531 604 585 l 215 89 l 640 89 l 640 0 z "},"3":{"ha":725,"x_min":58,"x_max":639,"o":"m 639 269 q 557 64 639 138 q 349 -10 475 -10 q 144 56 225 -10 q 58 251 64 122 l 158 251 q 217 122 164 164 q 349 79 271 79 q 485 131 431 79 q 539 271 539 182 q 344 463 539 463 l 324 463 l 324 550 l 344 550 q 477 597 433 550 q 521 729 521 643 q 472 863 521 815 q 349 910 424 910 q 224 865 271 910 q 171 744 178 821 l 71 744 q 156 931 79 863 q 349 999 233 999 q 545 925 469 999 q 621 731 621 851 q 488 511 621 572 q 639 269 639 454 z "},"4":{"ha":725,"x_min":56,"x_max":669,"o":"m 669 157 l 549 157 l 549 0 l 450 0 l 450 157 l 56 157 l 56 247 l 413 989 l 519 989 l 163 247 l 450 247 l 450 528 l 549 528 l 549 247 l 669 247 l 669 157 z "},"5":{"ha":725,"x_min":97,"x_max":642,"o":"m 642 326 q 626 175 642 238 q 563 64 611 113 q 365 -10 489 -10 q 167 61 238 -10 q 97 233 106 124 l 197 233 q 365 79 217 79 q 488 125 442 79 q 542 326 542 179 q 535 416 542 378 q 513 491 529 454 q 461 547 496 528 q 375 567 426 567 q 269 540 311 567 q 211 469 226 514 l 121 469 l 121 989 l 621 989 l 621 900 l 211 900 l 211 586 q 389 654 272 654 q 560 592 497 654 q 642 326 642 510 z "},"6":{"ha":725,"x_min":90,"x_max":639,"o":"m 639 285 q 564 74 639 157 q 365 -8 489 -8 q 165 69 240 -8 q 90 276 90 147 q 153 499 90 374 l 396 989 l 499 989 l 278 544 q 382 565 324 565 q 568 487 497 565 q 639 285 639 408 m 539 281 q 492 424 539 367 q 364 481 446 481 q 238 426 285 481 q 190 281 190 372 q 238 135 190 190 q 364 81 285 81 q 491 135 443 81 q 539 281 539 190 z "},"7":{"ha":725,"x_min":106,"x_max":654,"o":"m 654 900 l 311 0 l 206 0 l 549 900 l 204 900 l 204 744 l 106 744 l 106 989 l 654 989 l 654 900 z "},"8":{"ha":725,"x_min":71,"x_max":654,"o":"m 654 272 q 571 70 654 149 q 363 -8 488 -8 q 154 70 238 -8 q 71 272 71 149 q 219 513 71 428 q 90 732 90 586 q 167 922 90 847 q 363 997 244 997 q 558 922 481 997 q 635 732 635 847 q 507 513 635 586 q 654 272 654 429 m 499 136 q 527 164 499 136 q 554 274 554 192 q 499 411 554 356 q 363 467 444 467 q 226 411 281 467 q 171 274 171 356 q 226 136 171 192 q 363 81 281 81 q 499 136 444 81 m 487 603 q 511 628 487 603 q 535 731 535 653 q 487 858 535 808 q 363 908 439 908 q 238 858 286 908 q 190 731 190 808 q 238 603 190 653 q 363 554 286 554 q 487 603 439 554 z "},"9":{"ha":725,"x_min":86,"x_max":635,"o":"m 635 713 q 572 490 635 615 l 329 0 l 225 0 l 447 444 q 342 424 401 424 q 157 502 228 424 q 86 704 86 581 q 161 915 86 832 q 360 997 236 997 q 560 919 485 997 q 635 713 635 842 m 535 708 q 487 853 535 799 q 360 908 439 908 q 233 853 281 908 q 186 708 186 799 q 232 565 186 622 q 360 508 278 508 q 487 563 439 508 q 535 708 535 617 z "},"\u0000":{"ha":0,"x_min":0,"x_max":0,"o":""},"\r":{"ha":346,"x_min":0,"x_max":0,"o":""}," ":{"ha":346,"x_min":0,"x_max":0,"o":""},"!":{"ha":439,"x_min":181,"x_max":300,"o":"m 299 989 l 283 278 l 197 278 l 183 989 l 299 989 m 300 0 l 181 0 l 181 117 l 300 117 l 300 0 z "},"\"":{"ha":588,"x_min":122,"x_max":465,"o":"m 465 753 l 356 753 l 356 989 l 465 989 l 465 753 m 232 753 l 122 753 l 122 989 l 232 989 l 232 753 z "},"#":{"ha":907,"x_min":107,"x_max":836,"o":"m 836 600 l 703 600 l 671 404 l 794 404 l 794 315 l 657 315 l 607 0 l 504 0 l 554 315 l 332 315 l 283 0 l 181 0 l 231 315 l 107 315 l 107 404 l 246 404 l 278 600 l 150 600 l 150 692 l 290 692 l 338 990 l 442 990 l 393 692 l 614 692 l 661 990 l 763 990 l 715 692 l 836 692 l 836 600 m 600 600 l 379 600 l 347 404 l 568 404 l 600 600 z "},"$":{"ha":828,"x_min":58,"x_max":750,"o":"m 750 272 q 668 78 750 153 q 447 -6 586 4 l 447 -158 l 364 -158 l 364 -8 q 195 26 267 -4 q 58 122 124 57 l 131 194 q 369 88 232 93 l 369 456 l 342 458 q 161 533 238 468 q 85 718 85 601 q 160 911 85 836 q 364 996 235 986 l 364 1119 l 447 1119 l 447 996 q 706 889 594 989 l 638 821 q 443 904 553 897 l 443 544 l 486 538 q 665 468 608 517 q 750 272 750 396 m 644 269 q 596 393 644 351 q 577 408 586 401 q 555 419 568 414 q 535 428 542 425 q 513 433 529 431 q 492 438 496 436 q 467 442 488 439 q 443 444 446 444 l 443 88 q 591 142 538 94 q 644 269 644 190 m 369 554 l 369 904 q 236 849 283 897 q 189 722 189 800 q 233 608 189 647 q 369 554 283 567 z "},"%":{"ha":1157,"x_min":90,"x_max":1068,"o":"m 1068 178 q 1015 42 1068 93 q 881 -10 963 -10 q 746 42 799 -10 q 693 178 693 93 l 693 324 q 746 460 693 408 q 881 511 799 511 q 1015 460 963 511 q 1068 324 1068 408 l 1068 178 m 465 665 q 413 531 465 582 q 278 479 360 479 q 143 531 196 479 q 90 665 90 582 l 90 811 q 143 947 90 896 q 278 999 196 999 q 413 947 360 999 q 465 811 465 896 l 465 665 m 853 989 l 389 0 l 306 0 l 769 989 l 853 989 m 989 181 l 989 321 q 881 442 989 442 q 772 321 772 442 l 772 181 q 881 60 772 60 q 989 181 989 60 m 386 668 l 386 808 q 278 929 386 929 q 169 808 169 929 l 169 668 q 278 549 169 549 q 386 668 386 549 z "},"&":{"ha":1026,"x_min":107,"x_max":932,"o":"m 932 0 l 800 0 l 711 108 q 419 -8 586 -8 q 192 70 276 -8 q 107 279 107 149 q 124 376 107 332 q 175 458 140 421 q 240 517 210 494 q 321 575 269 540 q 269 640 286 617 q 233 706 253 663 q 214 790 214 749 q 276 938 214 879 q 432 997 338 997 q 586 938 525 997 q 647 789 647 878 q 538 613 647 688 q 464 563 488 579 l 717 258 q 759 353 747 304 q 772 485 771 401 l 872 485 q 781 182 869 289 l 932 0 m 651 181 l 379 508 q 315 463 335 478 q 265 417 294 447 q 222 355 235 388 q 210 282 210 322 q 268 140 210 194 q 418 85 326 85 q 651 181 544 85 m 549 789 q 515 873 549 839 q 432 907 482 907 q 350 874 382 907 q 318 792 318 842 q 337 724 318 758 q 407 629 356 690 l 460 665 q 526 722 503 694 q 549 789 549 750 z "},"'":{"ha":354,"x_min":122,"x_max":232,"o":"m 232 753 l 122 753 l 122 989 l 232 989 l 232 753 z "},"(":{"ha":414,"x_min":128,"x_max":325,"o":"m 325 -62 l 257 -131 q 157 -11 181 -54 q 128 132 128 43 l 128 857 q 157 1000 128 947 q 257 1119 181 1043 l 325 1051 q 250 961 265 992 q 228 849 228 917 l 228 140 q 250 28 228 72 q 325 -62 265 -3 z "},")":{"ha":414,"x_min":86,"x_max":285,"o":"m 285 132 q 257 -11 285 40 q 157 -131 233 -54 l 86 -60 q 163 31 149 3 q 182 140 182 69 l 182 849 q 163 958 182 919 q 86 1049 149 986 l 157 1119 q 257 1000 233 1043 q 285 857 285 949 l 285 132 z "},"*":{"ha":658,"x_min":93,"x_max":565,"o":"m 565 656 l 526 588 l 364 686 l 369 496 l 289 496 l 294 686 l 133 588 l 93 656 l 260 746 l 93 838 l 133 904 l 294 806 l 289 996 l 369 996 l 364 806 l 526 904 l 565 838 l 399 746 l 565 656 z "},"+":{"ha":725,"x_min":72,"x_max":653,"o":"m 653 325 l 410 325 l 410 81 l 317 81 l 317 325 l 72 325 l 72 418 l 317 418 l 317 660 l 410 660 l 410 418 l 653 418 l 653 325 z "},",":{"ha":367,"x_min":122,"x_max":244,"o":"m 244 -90 l 122 -200 l 122 122 l 244 122 l 244 -90 z "},"-":{"ha":592,"x_min":106,"x_max":486,"o":"m 486 328 l 106 328 l 106 421 l 486 421 l 486 328 z "},".":{"ha":375,"x_min":122,"x_max":253,"o":"m 253 0 l 122 0 l 122 131 l 253 131 l 253 0 z "},"/":{"ha":493,"x_min":0,"x_max":494,"o":"m 494 1092 l 99 -103 l 0 -103 l 396 1092 l 494 1092 z "},":":{"ha":413,"x_min":160,"x_max":290,"o":"m 290 418 l 160 418 l 160 549 l 290 549 l 290 418 m 290 0 l 160 0 l 160 131 l 290 131 l 290 0 z "},";":{"ha":413,"x_min":160,"x_max":290,"o":"m 285 -90 l 163 -200 l 163 122 l 285 122 l 285 -90 m 290 418 l 160 418 l 160 549 l 290 549 l 290 418 z "},"<":{"ha":725,"x_min":132,"x_max":592,"o":"m 592 94 l 132 328 l 132 419 l 592 653 l 592 546 l 244 374 l 592 201 l 592 94 z "},"=":{"ha":725,"x_min":72,"x_max":653,"o":"m 653 444 l 72 444 l 72 538 l 653 538 l 653 444 m 653 210 l 72 210 l 72 301 l 653 301 l 653 210 z "},">":{"ha":725,"x_min":132,"x_max":592,"o":"m 592 328 l 132 94 l 132 201 l 479 374 l 132 546 l 132 653 l 592 419 l 592 328 z "},"?":{"ha":690,"x_min":106,"x_max":626,"o":"m 626 744 q 564 576 626 668 l 450 413 q 425 332 425 375 l 425 278 l 325 278 l 325 333 q 368 464 325 403 l 481 626 q 526 744 526 694 q 481 862 526 815 q 367 908 436 908 q 250 860 294 908 q 206 743 206 811 l 106 743 q 181 924 106 850 q 367 997 256 997 q 552 926 478 997 q 626 744 626 854 m 435 0 l 315 0 l 315 117 l 435 117 l 435 0 z "},"@":{"ha":990,"x_min":100,"x_max":890,"o":"m 890 -1 l 794 0 l 794 76 q 608 -10 726 -10 q 419 75 486 -10 q 372 176 385 118 q 358 331 358 233 q 415 585 358 510 q 607 671 479 671 q 793 583 722 671 l 793 692 q 739 850 793 794 q 585 906 683 906 l 404 906 q 253 850 308 906 q 210 784 222 819 q 197 692 197 749 l 197 224 q 213 124 197 158 q 276 56 229 90 l 208 -12 q 122 83 144 35 q 100 222 100 131 l 100 689 q 178 913 100 833 q 392 990 254 990 l 597 990 q 811 913 733 990 q 890 689 890 833 l 890 -1 m 793 331 q 787 426 793 385 q 764 505 781 467 q 713 564 747 543 q 625 585 678 585 q 492 516 526 585 q 457 331 457 447 q 463 235 457 276 q 486 156 469 194 q 538 97 503 118 q 625 76 572 76 q 758 145 724 76 q 793 331 793 214 z "},"A":{"ha":849,"x_min":17,"x_max":832,"o":"m 832 0 l 719 0 l 640 224 l 208 224 l 129 0 l 17 0 l 381 989 l 469 989 l 832 0 m 610 315 l 426 838 l 240 315 l 610 315 z "},"B":{"ha":928,"x_min":143,"x_max":822,"o":"m 822 274 q 742 71 822 142 q 528 0 663 0 l 143 0 l 143 989 l 515 989 q 726 918 646 989 q 807 725 807 847 q 766 590 807 649 q 661 508 725 532 q 778 421 735 482 q 822 274 822 360 m 663 144 q 690 168 663 144 q 717 276 717 193 q 663 408 717 360 q 518 457 610 457 l 249 457 l 249 94 l 518 94 q 663 144 610 94 m 647 595 q 674 617 647 595 q 701 724 701 639 q 648 851 701 808 q 507 894 594 894 l 249 894 l 249 551 l 507 551 q 647 595 593 551 z "},"C":{"ha":885,"x_min":106,"x_max":794,"o":"m 794 286 q 678 70 771 149 q 451 -8 585 -8 q 199 94 301 -8 q 120 235 135 158 q 106 494 106 313 q 120 753 106 676 q 199 894 135 831 q 451 997 301 997 q 678 919 586 997 q 794 703 769 842 l 686 703 q 605 849 667 794 q 451 903 543 903 q 281 833 347 903 q 224 722 236 788 q 211 494 211 657 q 224 267 211 332 q 281 156 236 201 q 451 86 347 86 q 606 140 543 86 q 689 286 669 194 l 794 286 z "},"D":{"ha":935,"x_min":143,"x_max":829,"o":"m 829 506 q 811 243 829 319 q 732 92 788 147 q 482 0 640 0 l 143 0 l 143 989 l 482 989 q 732 897 640 989 q 781 827 761 868 q 810 758 801 786 q 824 670 819 729 q 829 593 829 611 q 829 506 829 575 m 724 506 q 722 631 724 592 q 706 730 721 671 q 658 822 690 789 q 464 894 588 894 l 249 894 l 249 94 l 464 94 q 658 167 588 94 q 706 265 690 200 q 722 373 721 331 q 724 506 724 415 z "},"E":{"ha":833,"x_min":143,"x_max":757,"o":"m 757 0 l 143 0 l 143 989 l 757 989 l 757 894 l 249 894 l 249 546 l 682 546 l 682 451 l 249 451 l 249 94 l 757 94 l 757 0 z "},"F":{"ha":806,"x_min":143,"x_max":757,"o":"m 757 894 l 249 894 l 249 531 l 682 531 l 682 436 l 249 436 l 249 0 l 143 0 l 143 989 l 757 989 l 757 894 z "},"G":{"ha":903,"x_min":106,"x_max":800,"o":"m 800 361 q 715 106 800 196 q 451 -8 610 -8 q 199 94 301 -8 q 120 235 135 158 q 106 494 106 313 q 120 753 106 676 q 199 894 135 831 q 451 997 301 997 q 683 916 590 997 q 797 701 775 835 l 692 701 q 607 849 671 796 q 451 903 543 903 q 281 832 349 903 q 224 722 236 786 q 211 494 211 657 q 224 267 211 332 q 281 156 236 201 q 451 86 347 86 q 639 171 569 86 q 694 350 694 238 l 694 425 l 451 425 l 451 518 l 800 518 l 800 361 z "},"H":{"ha":967,"x_min":143,"x_max":824,"o":"m 824 0 l 718 0 l 718 451 l 249 451 l 249 0 l 143 0 l 143 989 l 249 989 l 249 546 l 718 546 l 718 989 l 824 989 l 824 0 z "},"I":{"ha":392,"x_min":143,"x_max":249,"o":"m 249 0 l 143 0 l 143 989 l 249 989 l 249 0 z "},"J":{"ha":696,"x_min":32,"x_max":567,"o":"m 567 300 q 481 75 567 158 q 258 -8 396 -8 q 32 81 121 -8 l 103 151 q 169 103 135 119 q 258 86 203 86 q 408 145 356 86 q 461 314 461 204 l 461 989 l 567 989 l 567 300 z "},"K":{"ha":903,"x_min":143,"x_max":883,"o":"m 883 0 l 758 0 l 457 526 l 249 276 l 249 0 l 143 0 l 143 989 l 249 989 l 249 421 l 710 989 l 839 989 l 528 607 l 883 0 z "},"L":{"ha":796,"x_min":143,"x_max":754,"o":"m 754 0 l 143 0 l 143 989 l 249 989 l 249 94 l 754 94 l 754 0 z "},"M":{"ha":1133,"x_min":143,"x_max":990,"o":"m 990 0 l 885 0 l 885 751 l 614 156 l 524 156 l 249 751 l 249 0 l 143 0 l 143 989 l 249 989 l 571 288 l 885 989 l 990 989 l 990 0 z "},"N":{"ha":1017,"x_min":143,"x_max":874,"o":"m 874 0 l 774 0 l 249 793 l 249 0 l 143 0 l 143 989 l 243 989 l 768 199 l 768 989 l 874 989 l 874 0 z "},"O":{"ha":903,"x_min":106,"x_max":797,"o":"m 783 753 q 790 715 783 753 q 797 494 797 676 q 783 235 797 313 q 704 94 768 158 q 451 -8 601 -8 q 199 94 301 -8 q 120 235 135 158 q 106 494 106 313 q 120 753 106 676 q 199 894 135 831 q 451 997 301 997 q 704 894 601 997 q 783 753 768 831 m 679 267 q 685 300 679 267 q 692 494 692 332 q 679 722 692 657 q 622 832 667 786 q 451 903 554 903 q 281 832 349 903 q 224 722 236 786 q 211 494 211 657 q 224 267 211 332 q 281 157 236 203 q 451 86 349 86 q 622 157 554 86 q 679 267 667 203 z "},"P":{"ha":875,"x_min":143,"x_max":817,"o":"m 732 910 q 774 870 732 910 q 817 699 817 831 q 732 487 817 567 q 511 407 647 407 l 249 407 l 249 0 l 143 0 l 143 989 l 511 989 q 732 910 647 989 m 654 552 q 683 577 654 552 q 711 699 711 603 q 654 844 711 794 q 501 894 597 894 l 249 894 l 249 501 l 501 501 q 654 552 597 501 z "},"Q":{"ha":901,"x_min":106,"x_max":838,"o":"m 838 15 l 774 -49 l 664 61 q 451 -8 574 -8 q 199 94 301 -8 q 120 235 135 158 q 106 494 106 313 q 120 753 106 676 q 199 894 135 831 q 451 997 301 997 q 704 894 601 997 q 783 753 768 831 q 797 494 797 676 q 794 328 797 379 q 777 221 792 278 q 729 124 763 164 l 838 15 m 692 494 q 679 722 692 657 q 622 832 667 786 q 451 903 554 903 q 281 832 349 903 q 224 722 236 786 q 211 494 211 657 q 224 267 211 332 q 281 157 236 203 q 451 86 349 86 q 592 133 529 86 l 467 258 l 531 322 l 651 201 q 684 304 676 243 q 692 494 692 365 z "},"R":{"ha":911,"x_min":143,"x_max":835,"o":"m 835 0 l 711 0 l 486 439 l 249 439 l 249 0 l 143 0 l 143 989 l 522 989 q 734 915 653 989 q 815 714 815 840 q 757 539 815 608 q 600 449 699 469 l 835 0 m 656 578 q 683 602 656 578 q 710 713 710 625 q 656 847 710 800 q 513 894 601 894 l 249 894 l 249 532 l 513 532 q 656 578 603 532 z "},"S":{"ha":817,"x_min":58,"x_max":739,"o":"m 739 272 q 646 67 739 143 q 397 -8 553 -8 q 207 22 286 -8 q 58 122 128 53 l 131 194 q 252 110 190 135 q 400 86 314 86 q 571 135 508 86 q 633 269 633 183 q 586 393 633 351 q 538 423 563 414 q 457 440 513 432 l 342 458 q 160 533 224 478 q 85 718 85 600 q 170 921 85 844 q 401 997 256 997 q 564 972 496 997 q 696 889 632 947 l 628 821 q 397 906 535 906 q 244 856 300 906 q 189 722 189 806 q 233 608 189 647 q 367 554 279 568 l 475 538 q 656 468 596 519 q 739 272 739 397 z "},"T":{"ha":761,"x_min":42,"x_max":719,"o":"m 719 894 l 433 894 l 433 0 l 328 0 l 328 894 l 42 894 l 42 989 l 719 989 l 719 894 z "},"U":{"ha":949,"x_min":129,"x_max":819,"o":"m 819 326 q 722 85 819 179 q 474 -8 624 -8 q 226 85 324 -8 q 129 326 129 179 l 129 989 l 235 989 l 235 335 q 300 154 235 222 q 474 86 365 86 q 648 154 582 86 q 714 335 714 222 l 714 989 l 819 989 l 819 326 z "},"V":{"ha":758,"x_min":11,"x_max":747,"o":"m 747 989 l 422 0 l 336 0 l 11 989 l 122 989 l 379 189 l 636 989 l 747 989 z "},"W":{"ha":1186,"x_min":22,"x_max":1164,"o":"m 1164 989 l 911 0 l 813 0 l 593 792 l 374 0 l 275 0 l 22 989 l 135 989 l 328 192 l 546 989 l 640 989 l 858 192 l 1051 989 l 1164 989 z "},"X":{"ha":765,"x_min":21,"x_max":744,"o":"m 744 0 l 622 0 l 382 415 l 140 0 l 21 0 l 324 507 l 40 989 l 163 989 l 382 599 l 601 989 l 724 989 l 439 507 l 744 0 z "},"Y":{"ha":714,"x_min":11,"x_max":703,"o":"m 703 989 l 411 408 l 411 0 l 306 0 l 306 408 l 11 989 l 125 989 l 358 515 l 589 989 l 703 989 z "},"Z":{"ha":772,"x_min":79,"x_max":693,"o":"m 693 0 l 79 0 l 79 100 l 574 894 l 99 894 l 99 989 l 693 989 l 693 900 l 194 94 l 693 94 l 693 0 z "},"[":{"ha":435,"x_min":128,"x_max":374,"o":"m 374 -103 l 128 -103 l 128 1092 l 374 1092 l 374 1003 l 228 1003 l 228 -14 l 374 -14 l 374 -103 z "},"\\":{"ha":493,"x_min":0,"x_max":493,"o":"m 493 -103 l 394 -103 l 0 1088 l 99 1088 l 493 -103 z "},"]":{"ha":435,"x_min":61,"x_max":307,"o":"m 307 -103 l 61 -103 l 61 -17 l 211 -17 l 211 1006 l 61 1006 l 61 1092 l 307 1092 l 307 -103 z "},"^":{"ha":746,"x_min":100,"x_max":646,"o":"m 646 574 l 543 574 l 374 890 l 203 574 l 100 574 l 328 997 l 419 997 l 646 574 z "},"_":{"ha":746,"x_min":0,"x_max":746,"o":"m 746 -229 l 0 -229 l 0 -158 l 746 -158 l 746 -229 z "},"`":{"ha":694,"x_min":174,"x_max":415,"o":"m 415 825 l 324 825 l 174 1038 l 293 1038 l 415 825 z "},"a":{"ha":731,"x_min":71,"x_max":613,"o":"m 613 0 l 513 0 l 513 65 q 428 8 471 24 q 315 -8 385 -8 q 122 54 183 -8 q 71 193 71 106 q 133 338 71 285 q 307 390 194 390 l 513 390 l 513 456 q 471 569 513 532 q 338 606 429 606 q 234 588 272 606 q 165 528 196 571 l 97 590 q 197 669 142 647 q 339 692 253 692 q 613 464 613 692 l 613 0 m 513 242 l 513 315 l 321 315 q 168 194 168 315 q 325 78 168 78 q 478 124 431 78 q 513 242 513 157 z "},"b":{"ha":757,"x_min":125,"x_max":668,"o":"m 585 632 q 668 342 668 549 q 585 51 668 135 q 418 -8 525 -8 q 225 82 294 -8 l 225 0 l 125 0 l 125 989 l 225 989 l 225 604 q 418 692 293 692 q 585 632 525 692 m 562 243 q 565 264 562 243 q 568 342 568 285 q 562 440 568 399 q 539 522 556 482 q 486 582 522 561 q 397 603 450 603 q 308 582 344 603 q 255 522 272 561 q 231 440 238 482 q 225 342 225 399 q 231 243 225 285 q 255 162 238 201 q 308 101 272 122 q 397 81 344 81 q 486 101 450 81 q 539 162 522 122 q 562 243 556 201 z "},"c":{"ha":681,"x_min":88,"x_max":615,"o":"m 615 93 q 513 14 563 36 q 390 -8 463 -8 q 172 82 256 -8 q 88 342 88 172 q 172 601 88 511 q 390 692 256 692 q 513 669 463 692 q 615 590 563 647 l 547 526 q 474 586 508 569 q 390 603 439 603 q 232 525 286 603 q 188 342 188 463 q 232 158 188 221 q 390 81 286 81 q 474 98 439 81 q 547 158 508 115 l 615 93 z "},"d":{"ha":757,"x_min":89,"x_max":632,"o":"m 632 0 l 533 0 l 533 82 q 339 -8 464 -8 q 172 51 232 -8 q 89 342 89 135 q 172 632 89 549 q 339 692 232 692 q 532 604 464 692 l 532 989 l 632 989 l 632 0 m 526 243 q 529 264 526 243 q 532 342 532 285 q 526 440 532 399 q 503 522 519 482 q 450 582 486 561 q 361 603 414 603 q 272 582 308 603 q 219 522 236 561 q 195 440 201 482 q 189 342 189 399 q 195 243 189 285 q 219 162 201 201 q 272 101 236 122 q 361 81 308 81 q 450 101 414 81 q 503 162 486 122 q 526 243 519 201 z "},"e":{"ha":736,"x_min":88,"x_max":649,"o":"m 649 315 l 188 315 q 240 141 188 203 q 389 79 292 79 q 487 97 447 79 q 568 157 526 115 l 636 97 q 525 17 581 42 q 386 -8 469 -8 q 167 78 246 -8 q 88 342 88 165 q 163 599 88 507 q 368 692 238 692 q 574 603 500 692 q 649 361 649 514 l 649 315 m 549 390 q 528 504 544 463 q 465 579 508 551 q 368 607 422 607 q 271 579 314 607 q 208 504 228 551 q 188 390 192 463 l 549 390 z "},"f":{"ha":436,"x_min":60,"x_max":393,"o":"m 393 603 l 247 603 l 247 0 l 147 0 l 147 603 l 60 603 l 60 679 l 147 679 l 147 808 q 192 940 147 889 q 321 992 238 992 l 393 992 l 393 906 l 339 906 q 247 806 247 906 l 247 679 l 393 679 l 393 603 z "},"g":{"ha":754,"x_min":89,"x_max":629,"o":"m 629 -21 q 553 -232 629 -150 q 344 -314 476 -314 q 219 -293 269 -314 q 113 -222 168 -272 l 178 -158 q 253 -211 219 -196 q 342 -226 286 -226 q 483 -168 436 -226 q 529 -17 529 -110 l 529 90 q 338 1 460 1 q 172 63 233 1 q 89 347 89 146 q 172 632 89 549 q 339 692 232 692 q 531 603 463 692 l 531 683 l 629 683 l 629 -21 m 523 253 q 526 273 523 253 q 529 347 529 293 q 523 442 529 401 q 500 522 517 482 q 448 582 483 561 q 360 603 413 603 q 271 582 307 603 q 218 522 235 561 q 195 442 201 482 q 189 347 189 401 q 195 253 189 293 q 218 173 201 213 q 271 113 235 133 q 360 92 307 92 q 448 113 413 92 q 500 173 483 133 q 523 253 517 213 z "},"h":{"ha":781,"x_min":125,"x_max":663,"o":"m 663 0 l 563 0 l 563 422 q 519 556 563 510 q 396 603 475 603 q 271 556 317 603 q 225 422 225 510 l 225 0 l 125 0 l 125 989 l 225 989 l 225 608 q 417 692 299 692 q 597 624 532 692 q 663 439 663 556 l 663 0 z "},"i":{"ha":351,"x_min":119,"x_max":232,"o":"m 225 0 l 125 0 l 125 683 l 225 683 l 225 0 m 232 878 l 119 878 l 119 990 l 232 990 l 232 878 z "},"j":{"ha":351,"x_min":-21,"x_max":232,"o":"m 225 -124 q 181 -256 225 -206 q 51 -307 138 -307 l -21 -307 l -21 -219 l 33 -219 q 104 -195 83 -219 q 125 -119 125 -171 l 125 679 l 225 679 l 225 -124 m 232 878 l 119 878 l 119 990 l 232 990 l 232 878 z "},"k":{"ha":744,"x_min":125,"x_max":699,"o":"m 699 0 l 575 0 l 358 350 l 225 197 l 225 0 l 125 0 l 125 989 l 225 989 l 225 328 l 533 683 l 658 683 l 426 422 l 699 0 z "},"l":{"ha":413,"x_min":122,"x_max":368,"o":"m 368 0 l 296 0 q 166 50 210 0 q 122 182 122 100 l 122 989 l 222 989 l 222 186 q 243 110 222 135 q 314 86 264 86 l 368 86 l 368 0 z "},"m":{"ha":1221,"x_min":125,"x_max":1103,"o":"m 1103 0 l 1003 0 l 1003 421 q 958 556 1003 510 q 835 603 914 603 q 711 557 758 603 q 664 432 664 511 l 664 0 l 564 0 l 564 421 q 519 556 564 510 q 396 603 475 603 q 271 556 317 603 q 225 421 225 508 l 225 0 l 125 0 l 125 683 l 225 683 l 225 608 q 418 692 297 692 q 628 578 564 692 q 853 692 708 692 q 1029 628 963 692 q 1103 438 1103 557 l 1103 0 z "},"n":{"ha":781,"x_min":125,"x_max":663,"o":"m 663 0 l 563 0 l 563 421 q 518 556 563 510 q 394 603 474 603 q 270 556 315 603 q 225 421 225 508 l 225 0 l 125 0 l 125 683 l 225 683 l 225 608 q 417 692 297 692 q 592 628 528 692 q 663 438 663 558 l 663 0 z "},"o":{"ha":736,"x_min":89,"x_max":647,"o":"m 564 614 q 647 342 647 529 q 564 69 647 154 q 368 -8 486 -8 q 172 69 250 -8 q 89 342 89 154 q 172 614 89 529 q 368 692 250 692 q 564 614 486 692 m 493 131 q 547 342 547 185 q 493 553 547 499 q 368 603 443 603 q 244 553 294 603 q 189 342 189 497 q 244 131 189 186 q 368 81 294 81 q 493 131 443 81 z "},"p":{"ha":757,"x_min":125,"x_max":668,"o":"m 585 632 q 668 342 668 549 q 585 51 668 135 q 418 -8 525 -8 q 225 81 294 -8 l 225 -306 l 125 -306 l 125 683 l 225 683 l 225 603 q 418 692 293 692 q 585 632 525 692 m 562 243 q 565 264 562 243 q 568 342 568 285 q 562 440 568 399 q 539 522 556 482 q 486 582 522 561 q 397 603 450 603 q 308 582 344 603 q 255 522 272 561 q 231 440 238 482 q 225 342 225 399 q 231 243 225 285 q 255 162 238 201 q 308 101 272 122 q 397 81 344 81 q 486 101 450 81 q 539 162 522 122 q 562 243 556 201 z "},"q":{"ha":757,"x_min":89,"x_max":632,"o":"m 632 -306 l 532 -306 l 532 81 q 339 -8 463 -8 q 172 51 232 -8 q 89 342 89 135 q 172 632 89 549 q 339 692 232 692 q 533 603 465 692 l 533 683 l 632 683 l 632 -306 m 526 243 q 529 264 526 243 q 532 342 532 285 q 526 440 532 399 q 503 522 519 482 q 450 582 486 561 q 361 603 414 603 q 272 582 308 603 q 219 522 236 561 q 195 440 201 482 q 189 342 189 399 q 195 243 189 285 q 219 162 201 201 q 272 101 236 122 q 361 81 308 81 q 450 101 414 81 q 503 162 486 122 q 526 243 519 201 z "},"r":{"ha":585,"x_min":125,"x_max":581,"o":"m 581 628 l 507 553 q 453 592 479 581 q 389 603 428 603 q 270 551 315 603 q 225 419 225 499 l 225 0 l 125 0 l 125 683 l 225 683 l 225 600 q 305 667 253 643 q 417 692 357 692 q 581 628 517 692 z "},"s":{"ha":689,"x_min":60,"x_max":618,"o":"m 618 200 q 542 47 618 103 q 340 -8 467 -8 q 60 90 163 -8 l 126 157 q 339 78 201 78 q 473 108 425 78 q 521 199 521 139 q 407 299 521 289 l 294 308 q 90 492 90 325 q 160 638 90 583 q 342 692 231 692 q 588 618 497 692 l 522 553 q 340 607 451 607 q 227 577 267 607 q 188 494 188 547 q 307 394 188 404 l 417 385 q 566 333 514 376 q 618 200 618 290 z "},"t":{"ha":461,"x_min":56,"x_max":388,"o":"m 388 0 l 317 0 q 187 51 232 0 q 142 183 142 103 l 142 603 l 56 603 l 56 679 l 142 679 l 142 893 l 242 893 l 242 679 l 388 679 l 388 603 l 242 603 l 242 186 q 335 86 242 86 l 388 86 l 388 0 z "},"u":{"ha":781,"x_min":118,"x_max":656,"o":"m 656 0 l 557 0 l 557 76 q 364 -8 483 -8 q 188 56 251 -8 q 118 247 118 124 l 118 683 l 218 683 l 218 263 q 262 127 218 174 q 385 81 306 81 q 510 128 464 81 q 556 263 556 175 l 556 683 l 656 683 l 656 0 z "},"v":{"ha":621,"x_min":15,"x_max":606,"o":"m 606 683 l 354 0 l 265 0 l 15 683 l 124 683 l 310 135 l 497 683 l 606 683 z "},"w":{"ha":1006,"x_min":15,"x_max":990,"o":"m 990 683 l 775 0 l 682 0 l 503 531 l 325 0 l 232 0 l 15 683 l 124 683 l 281 135 l 460 683 l 546 683 l 726 135 l 882 683 l 990 683 z "},"x":{"ha":664,"x_min":46,"x_max":618,"o":"m 618 0 l 497 0 l 333 265 l 167 0 l 46 0 l 278 349 l 56 683 l 176 683 l 333 431 l 488 683 l 608 683 l 386 349 l 618 0 z "},"y":{"ha":621,"x_min":15,"x_max":606,"o":"m 606 683 l 294 -165 q 246 -246 275 -219 q 113 -293 197 -293 l 69 -293 l 69 -204 l 100 -204 q 173 -186 150 -204 q 213 -119 196 -168 l 261 14 l 15 683 l 124 683 l 311 135 l 497 683 l 606 683 z "},"z":{"ha":638,"x_min":69,"x_max":565,"o":"m 565 0 l 69 0 l 69 86 l 450 594 l 90 594 l 90 683 l 565 683 l 565 599 l 183 89 l 565 89 l 565 0 z "},"{":{"ha":492,"x_min":67,"x_max":424,"o":"m 424 -103 l 372 -103 q 232 -61 274 -103 q 190 76 190 -19 l 190 342 q 165 425 190 400 q 103 450 140 450 l 67 450 l 67 539 l 103 539 q 165 564 140 539 q 190 647 190 589 l 190 913 q 232 1050 190 1008 q 372 1092 274 1092 l 424 1092 l 424 1003 l 392 1003 q 310 985 328 1003 q 290 894 290 965 l 290 633 q 268 547 290 578 q 203 494 246 515 q 268 442 246 474 q 290 356 290 411 l 290 94 q 310 4 290 24 q 392 -14 328 -14 l 424 -14 l 424 -103 z "},"|":{"ha":453,"x_min":176,"x_max":276,"o":"m 276 -103 l 176 -103 l 176 1092 l 276 1092 l 276 -103 z "},"}":{"ha":492,"x_min":67,"x_max":424,"o":"m 424 450 l 389 450 q 326 425 351 450 q 301 342 301 400 l 301 76 q 260 -61 301 -19 q 119 -103 218 -103 l 67 -103 l 67 -14 l 100 -14 q 181 4 163 -14 q 201 94 201 25 l 201 356 q 224 442 201 411 q 289 494 246 474 q 224 547 246 515 q 201 633 201 578 l 201 894 q 181 985 201 964 q 100 1003 163 1003 l 67 1003 l 67 1092 l 119 1092 q 260 1050 218 1092 q 301 913 301 1008 l 301 647 q 326 564 301 589 q 389 539 351 539 l 424 539 l 424 450 z "},"~":{"ha":749,"x_min":68,"x_max":681,"o":"m 681 386 q 587 310 624 329 q 501 292 550 292 q 354 335 450 292 q 246 368 282 368 q 192 356 215 368 q 129 306 168 344 l 68 368 q 162 444 125 425 q 247 463 199 463 q 393 419 297 463 q 501 386 465 386 q 556 398 532 386 q 618 449 579 410 l 681 386 z "}," ":{"ha":346,"x_min":0,"x_max":0,"o":""},"¡":{"ha":439,"x_min":138,"x_max":257,"o":"m 256 -306 l 140 -306 l 154 406 l 240 406 l 256 -306 m 257 567 l 138 567 l 138 683 l 257 683 l 257 567 z "},"¢":{"ha":692,"x_min":88,"x_max":622,"o":"m 622 263 q 528 188 575 211 q 421 160 482 164 l 421 0 l 339 0 l 339 163 q 155 270 222 179 q 88 508 88 361 q 155 747 88 656 q 339 854 222 838 l 339 989 l 421 989 l 421 857 q 528 829 482 853 q 622 754 575 806 l 554 690 q 415 767 492 761 l 415 250 q 554 326 492 256 l 622 263 m 344 253 l 344 764 q 233 692 276 751 q 188 508 188 628 q 233 325 188 389 q 344 253 276 265 z "},"£":{"ha":761,"x_min":65,"x_max":689,"o":"m 689 0 l 153 0 l 153 458 l 65 458 l 65 533 l 153 533 l 153 689 q 239 913 153 829 q 463 997 325 997 q 689 908 600 997 l 617 838 q 551 887 583 871 q 463 903 518 903 q 313 844 365 903 q 260 675 260 785 l 260 533 l 463 533 l 463 458 l 260 458 l 260 94 l 689 94 l 689 0 z "},"¤":{"ha":917,"x_min":108,"x_max":808,"o":"m 808 90 l 744 26 l 640 129 q 458 68 558 68 q 275 129 357 68 l 172 26 l 108 90 l 211 193 q 150 376 150 275 q 211 560 150 478 l 108 661 l 172 725 l 275 624 q 458 683 354 683 q 640 624 561 683 l 744 725 l 808 661 l 706 560 q 767 376 767 478 q 706 193 767 275 l 808 90 m 610 223 q 642 255 610 223 q 674 376 674 286 q 610 529 674 467 q 458 592 547 592 q 305 528 368 592 q 242 376 242 465 q 306 223 242 286 q 458 160 369 160 q 610 223 547 160 z "},"¥":{"ha":714,"x_min":11,"x_max":703,"o":"m 703 989 l 485 557 l 624 557 l 624 482 l 447 482 l 411 408 l 411 336 l 624 336 l 624 260 l 411 260 l 411 0 l 304 0 l 304 260 l 90 260 l 90 336 l 304 336 l 304 408 l 268 482 l 90 482 l 90 557 l 229 557 l 11 989 l 125 989 l 358 515 l 590 989 l 703 989 z "},"¦":{"ha":465,"x_min":176,"x_max":276,"o":"m 276 606 l 176 606 l 176 1092 l 276 1092 l 276 606 m 276 -103 l 176 -103 l 176 383 l 276 383 l 276 -103 z "},"§":{"ha":774,"x_min":121,"x_max":653,"o":"m 653 353 q 611 215 653 274 q 508 125 569 156 q 606 51 569 103 q 643 -75 643 -1 q 570 -248 643 -182 q 388 -314 497 -314 q 205 -256 279 -314 q 125 -90 131 -197 l 226 -90 q 274 -188 232 -154 q 388 -222 317 -222 q 501 -184 460 -222 q 542 -76 542 -146 q 509 10 542 -28 q 419 65 476 49 l 311 96 q 170 188 219 122 q 121 350 121 254 q 163 489 121 431 q 267 578 204 547 q 138 769 138 636 q 208 934 138 871 q 388 997 278 997 q 567 938 497 997 q 640 779 636 879 l 540 779 q 388 908 531 908 q 277 873 317 908 q 238 771 238 838 q 354 638 238 671 l 463 607 q 603 514 553 581 q 653 353 653 447 m 551 351 q 507 479 551 435 q 388 529 457 529 q 268 479 314 529 q 222 351 222 429 q 268 224 222 274 q 388 174 314 174 q 507 224 461 174 q 551 351 551 272 z "},"¨":{"ha":694,"x_min":150,"x_max":544,"o":"m 544 836 l 444 836 l 444 960 l 544 960 l 544 836 m 250 836 l 150 836 l 150 960 l 250 960 l 250 836 z "},"©":{"ha":1224,"x_min":108,"x_max":1114,"o":"m 967 850 q 1040 776 967 850 q 1114 494 1114 703 q 967 139 1114 286 q 611 -8 819 -8 q 256 139 403 -8 q 108 494 108 286 q 256 850 108 703 q 611 997 403 997 q 967 850 819 997 m 910 192 q 972 255 910 192 q 1033 494 1033 318 q 910 797 1033 671 q 611 922 786 922 q 313 797 436 922 q 190 494 190 671 q 313 192 190 318 q 611 67 436 67 q 910 192 786 67 m 800 285 q 618 213 719 213 q 435 290 500 213 q 371 494 371 368 q 435 699 371 621 q 618 778 500 778 q 800 704 717 778 l 750 654 q 618 708 689 708 q 489 649 529 708 q 449 494 449 590 q 489 340 449 399 q 618 282 529 282 q 750 335 690 282 l 800 285 z "},"ª":{"ha":624,"x_min":78,"x_max":507,"o":"m 507 443 l 426 443 l 426 493 q 272 436 368 436 q 119 486 169 436 q 78 596 78 531 q 127 712 78 669 q 265 754 176 754 l 425 754 l 425 804 q 394 892 425 864 q 290 921 363 921 q 209 908 239 921 q 154 860 179 894 l 97 911 q 178 976 133 957 q 292 994 224 994 q 507 811 507 994 l 507 443 m 425 636 l 425 692 l 276 692 q 160 599 160 692 q 279 508 160 508 q 399 543 363 508 q 425 636 425 568 z "},"«":{"ha":769,"x_min":56,"x_max":661,"o":"m 347 81 l 56 372 l 347 664 l 347 539 l 181 372 l 347 204 l 347 81 m 661 81 l 369 372 l 661 664 l 661 539 l 493 372 l 661 204 l 661 81 z "},"¬":{"ha":725,"x_min":71,"x_max":654,"o":"m 654 143 l 561 143 l 561 333 l 71 333 l 71 426 l 654 426 l 654 143 z "},"­":{"ha":592,"x_min":106,"x_max":486,"o":"m 486 328 l 106 328 l 106 421 l 486 421 l 486 328 z "},"®":{"ha":1224,"x_min":108,"x_max":1114,"o":"m 967 850 q 1040 776 967 850 q 1114 494 1114 703 q 967 139 1114 286 q 611 -8 819 -8 q 256 139 403 -8 q 108 494 108 286 q 256 850 108 703 q 611 997 403 997 q 967 850 819 997 m 910 191 q 973 254 910 191 q 1035 494 1035 317 q 910 798 1035 672 q 611 924 786 924 q 313 798 436 924 q 189 494 189 672 q 313 191 189 317 q 611 65 436 65 q 910 191 786 65 m 822 219 l 733 219 l 607 444 l 524 444 l 524 219 l 447 219 l 447 771 l 635 771 q 758 723 707 771 q 808 606 808 675 q 690 454 808 490 l 822 219 m 701 537 q 716 550 701 537 q 731 606 731 564 q 701 675 731 647 q 626 703 672 703 l 524 703 l 524 510 l 626 510 q 701 537 672 510 z "},"¯":{"ha":694,"x_min":138,"x_max":557,"o":"m 557 853 l 138 853 l 138 932 l 557 932 l 557 853 z "},"°":{"ha":643,"x_min":93,"x_max":550,"o":"m 483 935 q 517 901 483 935 q 550 774 550 868 q 483 613 550 679 q 322 546 417 546 q 160 613 228 546 q 93 774 93 679 q 160 935 93 868 q 322 1001 228 1001 q 483 935 417 1001 m 424 669 q 445 690 424 669 q 465 774 465 711 q 424 878 465 836 q 321 921 382 921 q 219 878 260 921 q 178 774 178 836 q 219 669 178 711 q 322 626 261 626 q 424 669 383 626 z "},"±":{"ha":725,"x_min":72,"x_max":653,"o":"m 653 401 l 410 401 l 410 156 l 317 156 l 317 401 l 72 401 l 72 494 l 317 494 l 317 738 l 410 738 l 410 494 l 653 494 l 653 401 m 653 0 l 72 0 l 72 93 l 653 93 l 653 0 z "},"²":{"ha":475,"x_min":67,"x_max":408,"o":"m 408 396 l 67 396 l 67 468 l 296 749 q 328 829 328 789 q 303 897 328 871 q 238 922 279 922 q 173 899 199 922 q 147 829 147 876 l 67 829 q 115 949 67 904 q 238 994 163 994 q 361 949 314 994 q 408 829 408 904 q 354 701 408 768 l 163 468 l 408 468 l 408 396 z "},"³":{"ha":494,"x_min":67,"x_max":428,"o":"m 428 563 q 377 435 428 481 q 249 389 326 389 q 121 431 172 389 q 67 554 69 474 l 147 554 q 178 485 149 508 q 249 461 207 461 q 321 488 293 461 q 349 563 349 515 q 322 637 349 610 q 244 664 296 664 l 232 664 l 232 733 l 244 733 q 315 758 292 733 q 339 828 339 783 q 313 897 339 872 q 247 922 286 922 q 182 899 207 922 q 154 835 157 875 l 75 835 q 128 951 79 908 q 247 994 176 994 q 370 949 322 994 q 418 829 418 903 q 343 701 418 736 q 428 563 428 665 z "},"´":{"ha":694,"x_min":279,"x_max":521,"o":"m 521 1038 l 371 825 l 279 825 l 401 1038 l 521 1038 z "},"µ":{"ha":779,"x_min":115,"x_max":654,"o":"m 654 0 l 554 0 l 554 76 q 363 -8 481 -8 q 215 43 271 -8 l 215 -306 l 115 -306 l 115 683 l 215 683 l 215 263 q 260 127 215 174 q 383 81 304 81 q 508 128 463 81 q 554 263 554 175 l 554 683 l 654 683 l 654 0 z "},"¶":{"ha":838,"x_min":58,"x_max":694,"o":"m 694 -306 l 594 -306 l 594 894 l 432 894 l 432 -306 l 332 -306 l 332 453 q 135 533 211 453 q 58 719 58 613 q 140 912 58 835 q 360 989 221 989 l 694 989 l 694 -306 z "},"·":{"ha":375,"x_min":122,"x_max":253,"o":"m 253 310 l 122 310 l 122 440 l 253 440 l 253 310 z "},"¸":{"ha":694,"x_min":243,"x_max":435,"o":"m 435 -93 l 353 -300 l 243 -300 l 342 -93 l 435 -93 z "},"¹":{"ha":363,"x_min":60,"x_max":254,"o":"m 254 396 l 175 396 l 175 900 l 60 799 l 60 890 l 175 989 l 254 989 l 254 396 z "},"º":{"ha":632,"x_min":93,"x_max":538,"o":"m 471 932 q 538 715 538 864 q 471 499 538 567 q 315 438 410 438 q 160 499 221 438 q 93 715 93 567 q 160 932 93 864 q 315 994 222 994 q 471 932 408 994 m 456 715 q 413 881 456 838 q 315 919 374 919 q 218 881 257 919 q 176 715 176 839 q 218 551 176 593 q 315 511 258 511 q 413 551 372 511 q 456 715 456 594 z "},"»":{"ha":769,"x_min":108,"x_max":714,"o":"m 714 372 l 422 81 l 422 204 l 589 372 l 422 539 l 422 664 l 714 372 m 400 372 l 108 81 l 108 204 l 276 372 l 108 539 l 108 664 l 400 372 z "},"¼":{"ha":1079,"x_min":60,"x_max":1024,"o":"m 1024 89 l 958 89 l 958 0 l 881 0 l 881 89 l 642 89 l 642 163 l 851 593 l 938 593 l 729 163 l 881 163 l 881 308 l 958 308 l 958 163 l 1024 163 l 1024 89 m 786 989 l 324 0 l 240 0 l 703 989 l 786 989 m 254 396 l 175 396 l 175 900 l 60 799 l 60 890 l 175 989 l 254 989 l 254 396 z "},"½":{"ha":1097,"x_min":60,"x_max":1031,"o":"m 1031 0 l 689 0 l 689 72 l 918 353 q 950 433 950 393 q 926 501 950 475 q 860 526 901 526 q 795 503 821 526 q 769 433 769 481 l 689 433 q 737 553 689 508 q 860 599 785 599 q 983 553 936 599 q 1031 433 1031 508 q 976 306 1031 372 l 786 72 l 1031 72 l 1031 0 m 769 989 l 307 0 l 224 0 l 686 989 l 769 989 m 254 396 l 175 396 l 175 900 l 60 799 l 60 890 l 175 989 l 254 989 l 254 396 z "},"¾":{"ha":1142,"x_min":67,"x_max":1086,"o":"m 428 563 q 377 435 428 481 q 249 389 326 389 q 121 431 172 389 q 67 554 69 474 l 147 554 q 178 485 149 508 q 249 461 207 461 q 321 488 293 461 q 349 563 349 515 q 322 637 349 610 q 244 664 296 664 l 232 664 l 232 733 l 244 733 q 315 758 292 733 q 339 828 339 783 q 313 897 339 872 q 247 922 286 922 q 182 899 207 922 q 154 835 157 875 l 75 835 q 128 951 79 908 q 247 994 176 994 q 370 949 322 994 q 418 829 418 903 q 343 701 418 736 q 428 563 428 665 m 1086 89 l 1021 89 l 1021 0 l 943 0 l 943 89 l 704 89 l 704 163 l 914 593 l 1000 593 l 790 163 l 943 163 l 943 308 l 1021 308 l 1021 163 l 1086 163 l 1086 89 m 860 989 l 396 0 l 313 0 l 776 989 l 860 989 z "},"¿":{"ha":690,"x_min":64,"x_max":585,"o":"m 585 -60 q 510 -240 585 -167 q 325 -314 436 -314 q 139 -242 214 -314 q 64 -60 64 -169 q 128 107 64 14 l 242 271 q 267 351 267 308 l 267 407 l 367 407 l 367 350 q 322 219 367 283 l 210 58 q 164 -60 164 -10 q 210 -176 164 -129 q 325 -224 256 -224 q 441 -176 397 -224 q 485 -60 485 -128 l 585 -60 m 375 567 l 257 567 l 257 683 l 375 683 l 375 567 z "},"À":{"ha":849,"x_min":17,"x_max":832,"o":"m 832 0 l 719 0 l 640 224 l 208 224 l 129 0 l 17 0 l 381 989 l 469 989 l 832 0 m 610 315 l 426 838 l 240 315 l 610 315 m 488 1085 l 396 1085 l 246 1297 l 365 1297 l 488 1085 z "},"Á":{"ha":849,"x_min":17,"x_max":832,"o":"m 832 0 l 719 0 l 640 224 l 208 224 l 129 0 l 17 0 l 381 989 l 469 989 l 832 0 m 610 315 l 426 838 l 240 315 l 610 315 m 593 1297 l 443 1085 l 351 1085 l 474 1297 l 593 1297 z "},"Â":{"ha":849,"x_min":17,"x_max":832,"o":"m 832 0 l 719 0 l 640 224 l 208 224 l 129 0 l 17 0 l 381 989 l 469 989 l 832 0 m 610 315 l 426 838 l 240 315 l 610 315 m 640 1085 l 544 1085 l 419 1229 l 294 1085 l 199 1085 l 372 1297 l 467 1297 l 640 1085 z "},"Ã":{"ha":849,"x_min":17,"x_max":832,"o":"m 832 0 l 719 0 l 640 224 l 208 224 l 129 0 l 17 0 l 381 989 l 469 989 l 832 0 m 610 315 l 426 838 l 240 315 l 610 315 m 638 1175 q 506 1104 567 1104 q 407 1136 461 1104 q 329 1165 357 1165 q 247 1121 292 1165 l 196 1171 q 328 1242 267 1242 q 426 1208 371 1242 q 504 1181 471 1181 q 586 1225 542 1181 l 638 1175 z "},"Ä":{"ha":849,"x_min":17,"x_max":832,"o":"m 832 0 l 719 0 l 640 224 l 208 224 l 129 0 l 17 0 l 381 989 l 469 989 l 832 0 m 610 315 l 426 838 l 240 315 l 610 315 m 322 1096 l 222 1096 l 222 1219 l 322 1219 l 322 1096 m 617 1096 l 517 1096 l 517 1219 l 617 1219 l 617 1096 z "},"Å":{"ha":849,"x_min":17,"x_max":832,"o":"m 832 0 l 719 0 l 640 224 l 208 224 l 129 0 l 17 0 l 381 989 l 469 989 l 832 0 m 610 315 l 426 838 l 240 315 l 610 315 m 535 1320 q 559 1296 535 1320 q 583 1204 583 1272 q 535 1088 583 1136 q 419 1039 488 1039 q 303 1088 351 1039 q 256 1204 256 1136 q 303 1320 256 1272 q 419 1368 351 1368 q 535 1320 488 1368 m 515 1204 q 488 1271 515 1243 q 419 1299 460 1299 q 351 1271 379 1299 q 324 1204 324 1243 q 352 1136 324 1164 q 419 1108 381 1108 q 487 1136 458 1108 q 515 1204 515 1164 z "},"Æ":{"ha":1281,"x_min":11,"x_max":1204,"o":"m 1204 0 l 592 0 l 592 235 l 249 235 l 126 0 l 11 0 l 533 989 l 1204 989 l 1204 894 l 696 894 l 696 543 l 1129 543 l 1129 449 l 696 449 l 696 94 l 1204 94 l 1204 0 m 592 326 l 592 894 l 294 326 l 592 326 z "},"Ç":{"ha":885,"x_min":106,"x_max":794,"o":"m 794 286 q 678 70 771 149 q 451 -8 585 -8 q 199 94 301 -8 q 120 235 135 158 q 106 494 106 313 q 120 753 106 676 q 199 894 135 831 q 451 997 301 997 q 678 919 586 997 q 794 703 769 842 l 686 703 q 605 849 667 794 q 451 903 543 903 q 281 833 347 903 q 224 722 236 788 q 211 494 211 657 q 224 267 211 332 q 281 156 236 201 q 451 86 347 86 q 606 140 543 86 q 689 286 669 194 l 794 286 m 514 -93 l 432 -300 l 322 -300 l 421 -93 l 514 -93 z "},"È":{"ha":833,"x_min":143,"x_max":757,"o":"m 757 0 l 143 0 l 143 989 l 757 989 l 757 894 l 249 894 l 249 546 l 682 546 l 682 451 l 249 451 l 249 94 l 757 94 l 757 0 m 503 1085 l 411 1085 l 261 1297 l 381 1297 l 503 1085 z "},"É":{"ha":833,"x_min":143,"x_max":757,"o":"m 757 0 l 143 0 l 143 989 l 757 989 l 757 894 l 249 894 l 249 546 l 682 546 l 682 451 l 249 451 l 249 94 l 757 94 l 757 0 m 608 1297 l 458 1085 l 367 1085 l 489 1297 l 608 1297 z "},"Ê":{"ha":833,"x_min":143,"x_max":757,"o":"m 757 0 l 143 0 l 143 989 l 757 989 l 757 894 l 249 894 l 249 546 l 682 546 l 682 451 l 249 451 l 249 94 l 757 94 l 757 0 m 656 1085 l 560 1085 l 435 1229 l 310 1085 l 214 1085 l 388 1297 l 482 1297 l 656 1085 z "},"Ë":{"ha":833,"x_min":143,"x_max":757,"o":"m 757 0 l 143 0 l 143 989 l 757 989 l 757 894 l 249 894 l 249 546 l 682 546 l 682 451 l 249 451 l 249 94 l 757 94 l 757 0 m 338 1096 l 238 1096 l 238 1219 l 338 1219 l 338 1096 m 632 1096 l 532 1096 l 532 1219 l 632 1219 l 632 1096 z "},"Ì":{"ha":392,"x_min":7,"x_max":249,"o":"m 249 0 l 143 0 l 143 989 l 249 989 l 249 0 m 249 1085 l 157 1085 l 7 1297 l 126 1297 l 249 1085 z "},"Í":{"ha":392,"x_min":143,"x_max":385,"o":"m 249 0 l 143 0 l 143 989 l 249 989 l 249 0 m 385 1297 l 235 1085 l 143 1085 l 265 1297 l 385 1297 z "},"Î":{"ha":392,"x_min":-26,"x_max":415,"o":"m 249 0 l 143 0 l 143 989 l 249 989 l 249 0 m 415 1085 l 319 1085 l 194 1229 l 69 1085 l -26 1085 l 147 1297 l 242 1297 l 415 1085 z "},"Ï":{"ha":392,"x_min":1,"x_max":396,"o":"m 249 0 l 143 0 l 143 989 l 249 989 l 249 0 m 101 1096 l 1 1096 l 1 1219 l 101 1219 l 101 1096 m 396 1096 l 296 1096 l 296 1219 l 396 1219 l 396 1096 z "},"Ð":{"ha":954,"x_min":54,"x_max":849,"o":"m 849 494 q 838 263 849 325 q 788 146 826 201 q 494 0 683 0 l 163 0 l 163 458 l 54 458 l 54 540 l 163 540 l 163 989 l 503 989 q 788 840 690 989 q 839 718 829 776 q 849 494 849 660 m 736 290 q 740 315 736 290 q 743 489 743 340 q 735 693 743 638 q 693 796 726 749 q 483 896 619 896 l 269 896 l 269 540 l 493 540 l 493 458 l 269 458 l 269 93 l 483 93 q 700 196 631 93 q 736 290 729 240 z "},"Ñ":{"ha":1017,"x_min":143,"x_max":874,"o":"m 874 0 l 774 0 l 249 793 l 249 0 l 143 0 l 143 989 l 243 989 l 768 199 l 768 989 l 874 989 l 874 0 m 726 1175 q 594 1104 656 1104 q 496 1136 550 1104 q 418 1165 446 1165 q 336 1121 381 1165 l 285 1171 q 417 1242 356 1242 q 515 1208 460 1242 q 593 1181 560 1181 q 675 1225 631 1181 l 726 1175 z "},"Ò":{"ha":903,"x_min":106,"x_max":797,"o":"m 783 753 q 790 715 783 753 q 797 494 797 676 q 783 235 797 313 q 704 94 768 158 q 451 -8 601 -8 q 199 94 301 -8 q 120 235 135 158 q 106 494 106 313 q 120 753 106 676 q 199 894 135 831 q 451 997 301 997 q 704 894 601 997 q 783 753 768 831 m 679 267 q 685 300 679 267 q 692 494 692 332 q 679 722 692 657 q 622 832 667 786 q 451 903 554 903 q 281 832 349 903 q 224 722 236 786 q 211 494 211 657 q 224 267 211 332 q 281 157 236 203 q 451 86 349 86 q 622 157 554 86 q 679 267 667 203 m 519 1085 l 428 1085 l 278 1297 l 397 1297 l 519 1085 z "},"Ó":{"ha":903,"x_min":106,"x_max":797,"o":"m 783 753 q 790 715 783 753 q 797 494 797 676 q 783 235 797 313 q 704 94 768 158 q 451 -8 601 -8 q 199 94 301 -8 q 120 235 135 158 q 106 494 106 313 q 120 753 106 676 q 199 894 135 831 q 451 997 301 997 q 704 894 601 997 q 783 753 768 831 m 679 267 q 685 300 679 267 q 692 494 692 332 q 679 722 692 657 q 622 832 667 786 q 451 903 554 903 q 281 832 349 903 q 224 722 236 786 q 211 494 211 657 q 224 267 211 332 q 281 157 236 203 q 451 86 349 86 q 622 157 554 86 q 679 267 667 203 m 625 1297 l 475 1085 l 383 1085 l 506 1297 l 625 1297 z "},"Ô":{"ha":903,"x_min":106,"x_max":797,"o":"m 783 753 q 790 715 783 753 q 797 494 797 676 q 783 235 797 313 q 704 94 768 158 q 451 -8 601 -8 q 199 94 301 -8 q 120 235 135 158 q 106 494 106 313 q 120 753 106 676 q 199 894 135 831 q 451 997 301 997 q 704 894 601 997 q 783 753 768 831 m 679 267 q 685 300 679 267 q 692 494 692 332 q 679 722 692 657 q 622 832 667 786 q 451 903 554 903 q 281 832 349 903 q 224 722 236 786 q 211 494 211 657 q 224 267 211 332 q 281 157 236 203 q 451 86 349 86 q 622 157 554 86 q 679 267 667 203 m 672 1085 l 576 1085 l 451 1229 l 326 1085 l 231 1085 l 404 1297 l 499 1297 l 672 1085 z "},"Õ":{"ha":903,"x_min":106,"x_max":797,"o":"m 783 753 q 790 715 783 753 q 797 494 797 676 q 783 235 797 313 q 704 94 768 158 q 451 -8 601 -8 q 199 94 301 -8 q 120 235 135 158 q 106 494 106 313 q 120 753 106 676 q 199 894 135 831 q 451 997 301 997 q 704 894 601 997 q 783 753 768 831 m 679 267 q 685 300 679 267 q 692 494 692 332 q 679 722 692 657 q 622 832 667 786 q 451 903 554 903 q 281 832 349 903 q 224 722 236 786 q 211 494 211 657 q 224 267 211 332 q 281 157 236 203 q 451 86 349 86 q 622 157 554 86 q 679 267 667 203 m 669 1175 q 538 1104 599 1104 q 439 1136 493 1104 q 361 1165 389 1165 q 279 1121 324 1165 l 228 1171 q 360 1242 299 1242 q 458 1208 403 1242 q 536 1181 503 1181 q 618 1225 574 1181 l 669 1175 z "},"Ö":{"ha":903,"x_min":106,"x_max":797,"o":"m 783 753 q 790 715 783 753 q 797 494 797 676 q 783 235 797 313 q 704 94 768 158 q 451 -8 601 -8 q 199 94 301 -8 q 120 235 135 158 q 106 494 106 313 q 120 753 106 676 q 199 894 135 831 q 451 997 301 997 q 704 894 601 997 q 783 753 768 831 m 679 267 q 685 300 679 267 q 692 494 692 332 q 679 722 692 657 q 622 832 667 786 q 451 903 554 903 q 281 832 349 903 q 224 722 236 786 q 211 494 211 657 q 224 267 211 332 q 281 157 236 203 q 451 86 349 86 q 622 157 554 86 q 679 267 667 203 m 354 1096 l 254 1096 l 254 1219 l 354 1219 l 354 1096 m 649 1096 l 549 1096 l 549 1219 l 649 1219 l 649 1096 z "},"×":{"ha":725,"x_min":90,"x_max":635,"o":"m 635 165 l 572 103 l 363 313 l 153 103 l 90 165 l 300 375 l 90 585 l 153 647 l 363 436 l 572 647 l 635 585 l 424 375 l 635 165 z "},"Ø":{"ha":906,"x_min":106,"x_max":797,"o":"m 783 753 q 790 715 783 753 q 797 494 797 676 q 783 235 797 313 q 704 94 768 158 q 451 -8 601 -8 q 276 36 354 -8 l 231 -61 l 140 -61 l 210 83 l 199 94 q 120 235 135 158 q 106 494 106 313 q 120 753 106 676 q 199 894 135 831 q 451 997 301 997 q 625 954 549 997 l 672 1050 l 763 1050 l 693 906 l 704 894 q 783 753 768 831 m 585 863 q 451 903 522 903 q 281 832 349 903 q 224 722 236 786 q 211 494 211 657 q 220 287 211 350 q 260 182 229 224 l 585 863 m 690 494 q 682 703 690 640 q 643 807 674 765 l 318 126 q 451 86 381 86 q 622 157 554 86 q 678 267 667 203 q 690 494 690 331 z "},"Ù":{"ha":949,"x_min":129,"x_max":819,"o":"m 819 326 q 722 85 819 179 q 474 -8 624 -8 q 226 85 324 -8 q 129 326 129 179 l 129 989 l 235 989 l 235 335 q 300 154 235 222 q 474 86 365 86 q 648 154 582 86 q 714 335 714 222 l 714 989 l 819 989 l 819 326 m 542 1085 l 450 1085 l 300 1297 l 419 1297 l 542 1085 z "},"Ú":{"ha":949,"x_min":129,"x_max":819,"o":"m 819 326 q 722 85 819 179 q 474 -8 624 -8 q 226 85 324 -8 q 129 326 129 179 l 129 989 l 235 989 l 235 335 q 300 154 235 222 q 474 86 365 86 q 648 154 582 86 q 714 335 714 222 l 714 989 l 819 989 l 819 326 m 647 1297 l 497 1085 l 406 1085 l 528 1297 l 647 1297 z "},"Û":{"ha":949,"x_min":129,"x_max":819,"o":"m 819 326 q 722 85 819 179 q 474 -8 624 -8 q 226 85 324 -8 q 129 326 129 179 l 129 989 l 235 989 l 235 335 q 300 154 235 222 q 474 86 365 86 q 648 154 582 86 q 714 335 714 222 l 714 989 l 819 989 l 819 326 m 694 1085 l 599 1085 l 474 1229 l 349 1085 l 253 1085 l 426 1297 l 521 1297 l 694 1085 z "},"Ü":{"ha":949,"x_min":129,"x_max":819,"o":"m 819 326 q 722 85 819 179 q 474 -8 624 -8 q 226 85 324 -8 q 129 326 129 179 l 129 989 l 235 989 l 235 335 q 300 154 235 222 q 474 86 365 86 q 648 154 582 86 q 714 335 714 222 l 714 989 l 819 989 l 819 326 m 376 1096 l 276 1096 l 276 1219 l 376 1219 l 376 1096 m 671 1096 l 571 1096 l 571 1219 l 671 1219 l 671 1096 z "},"Ý":{"ha":714,"x_min":11,"x_max":703,"o":"m 703 989 l 411 408 l 411 0 l 306 0 l 306 408 l 11 989 l 125 989 l 358 515 l 589 989 l 703 989 m 531 1297 l 381 1085 l 289 1085 l 411 1297 l 531 1297 z "},"Þ":{"ha":892,"x_min":143,"x_max":817,"o":"m 732 710 q 774 670 732 710 q 817 499 817 631 q 732 288 817 367 q 511 208 647 208 l 249 208 l 249 0 l 143 0 l 143 989 l 249 989 l 249 790 l 511 790 q 732 710 647 790 m 654 353 q 683 378 654 353 q 711 499 711 403 q 654 644 711 594 q 501 694 597 694 l 249 694 l 249 303 l 501 303 q 654 353 597 303 z "},"ß":{"ha":772,"x_min":125,"x_max":672,"o":"m 672 196 q 618 50 672 100 q 475 0 564 0 l 400 0 l 400 86 l 456 86 q 538 114 504 86 q 572 207 572 142 l 572 442 q 543 528 572 499 q 461 557 514 557 l 400 557 l 400 640 l 450 640 q 538 674 504 640 q 572 767 572 708 q 529 871 572 831 q 399 911 488 911 q 226 724 226 911 l 226 0 l 125 0 l 125 728 q 200 928 125 857 q 404 999 275 999 q 597 940 522 999 q 672 768 672 882 q 585 603 672 660 q 653 540 635 576 q 672 436 672 503 l 672 196 z "},"à":{"ha":731,"x_min":71,"x_max":613,"o":"m 613 0 l 513 0 l 513 65 q 428 8 471 24 q 315 -8 385 -8 q 122 54 183 -8 q 71 193 71 106 q 133 338 71 285 q 307 390 194 390 l 513 390 l 513 456 q 471 569 513 532 q 338 606 429 606 q 234 588 272 606 q 165 528 196 571 l 97 590 q 197 669 142 647 q 339 692 253 692 q 613 464 613 692 l 613 0 m 513 242 l 513 315 l 321 315 q 168 194 168 315 q 325 78 168 78 q 478 124 431 78 q 513 242 513 157 m 418 825 l 326 825 l 176 1038 l 296 1038 l 418 825 z "},"á":{"ha":731,"x_min":71,"x_max":613,"o":"m 613 0 l 513 0 l 513 65 q 428 8 471 24 q 315 -8 385 -8 q 122 54 183 -8 q 71 193 71 106 q 133 338 71 285 q 307 390 194 390 l 513 390 l 513 456 q 471 569 513 532 q 338 606 429 606 q 234 588 272 606 q 165 528 196 571 l 97 590 q 197 669 142 647 q 339 692 253 692 q 613 464 613 692 l 613 0 m 513 242 l 513 315 l 321 315 q 168 194 168 315 q 325 78 168 78 q 478 124 431 78 q 513 242 513 157 m 524 1038 l 374 825 l 282 825 l 404 1038 l 524 1038 z "},"â":{"ha":731,"x_min":71,"x_max":613,"o":"m 613 0 l 513 0 l 513 65 q 428 8 471 24 q 315 -8 385 -8 q 122 54 183 -8 q 71 193 71 106 q 133 338 71 285 q 307 390 194 390 l 513 390 l 513 456 q 471 569 513 532 q 338 606 429 606 q 234 588 272 606 q 165 528 196 571 l 97 590 q 197 669 142 647 q 339 692 253 692 q 613 464 613 692 l 613 0 m 513 242 l 513 315 l 321 315 q 168 194 168 315 q 325 78 168 78 q 478 124 431 78 q 513 242 513 157 m 571 825 l 475 825 l 350 969 l 225 825 l 129 825 l 303 1038 l 397 1038 l 571 825 z "},"ã":{"ha":731,"x_min":71,"x_max":613,"o":"m 613 0 l 513 0 l 513 65 q 428 8 471 24 q 315 -8 385 -8 q 122 54 183 -8 q 71 193 71 106 q 133 338 71 285 q 307 390 194 390 l 513 390 l 513 456 q 471 569 513 532 q 338 606 429 606 q 234 588 272 606 q 165 528 196 571 l 97 590 q 197 669 142 647 q 339 692 253 692 q 613 464 613 692 l 613 0 m 513 242 l 513 315 l 321 315 q 168 194 168 315 q 325 78 168 78 q 478 124 431 78 q 513 242 513 157 m 568 915 q 436 844 497 844 q 338 876 392 844 q 260 906 288 906 q 178 861 222 906 l 126 911 q 258 982 197 982 q 357 949 301 982 q 435 921 401 921 q 517 965 472 921 l 568 915 z "},"ä":{"ha":731,"x_min":71,"x_max":613,"o":"m 613 0 l 513 0 l 513 65 q 428 8 471 24 q 315 -8 385 -8 q 122 54 183 -8 q 71 193 71 106 q 133 338 71 285 q 307 390 194 390 l 513 390 l 513 456 q 471 569 513 532 q 338 606 429 606 q 234 588 272 606 q 165 528 196 571 l 97 590 q 197 669 142 647 q 339 692 253 692 q 613 464 613 692 l 613 0 m 513 242 l 513 315 l 321 315 q 168 194 168 315 q 325 78 168 78 q 478 124 431 78 q 513 242 513 157 m 253 836 l 153 836 l 153 960 l 253 960 l 253 836 m 547 836 l 447 836 l 447 960 l 547 960 l 547 836 z "},"å":{"ha":731,"x_min":71,"x_max":613,"o":"m 613 0 l 513 0 l 513 65 q 428 8 471 24 q 315 -8 385 -8 q 122 54 183 -8 q 71 193 71 106 q 133 338 71 285 q 307 390 194 390 l 513 390 l 513 456 q 471 569 513 532 q 338 606 429 606 q 234 588 272 606 q 165 528 196 571 l 97 590 q 197 669 142 647 q 339 692 253 692 q 613 464 613 692 l 613 0 m 513 242 l 513 315 l 321 315 q 168 194 168 315 q 325 78 168 78 q 478 124 431 78 q 513 242 513 157 m 466 1070 q 490 1046 466 1070 q 514 954 514 1022 q 466 838 514 886 q 350 789 418 789 q 234 838 282 789 q 186 954 186 886 q 234 1070 186 1022 q 350 1118 282 1118 q 466 1070 418 1118 m 446 954 q 418 1021 446 993 q 350 1049 390 1049 q 282 1021 310 1049 q 254 954 254 993 q 283 886 254 914 q 350 858 311 858 q 417 886 389 858 q 446 954 446 914 z "},"æ":{"ha":1160,"x_min":71,"x_max":1074,"o":"m 1074 315 l 611 315 q 664 141 611 203 q 814 79 717 79 q 910 97 871 79 q 992 157 950 115 l 1061 97 q 949 17 1006 42 q 808 -8 892 -8 q 565 110 639 -8 q 463 18 519 44 q 315 -8 406 -8 q 122 54 183 -8 q 71 193 71 106 q 133 338 71 285 q 307 390 194 390 l 513 390 l 513 456 q 471 569 513 532 q 338 606 429 606 q 234 588 272 606 q 165 528 196 571 l 97 590 q 197 669 142 647 q 339 692 253 692 q 579 585 522 692 q 793 692 651 692 q 999 603 925 692 q 1074 361 1074 514 l 1074 315 m 513 242 l 513 315 l 321 315 q 168 194 168 315 q 325 78 168 78 q 478 124 431 78 q 513 242 513 157 m 974 390 q 953 504 969 463 q 890 579 933 551 q 793 607 847 607 q 696 579 739 607 q 633 504 653 551 q 611 390 614 458 l 974 390 z "},"ç":{"ha":681,"x_min":88,"x_max":615,"o":"m 615 93 q 513 14 563 36 q 390 -8 463 -8 q 172 82 256 -8 q 88 342 88 172 q 172 601 88 511 q 390 692 256 692 q 513 669 463 692 q 615 590 563 647 l 547 526 q 474 586 508 569 q 390 603 439 603 q 232 525 286 603 q 188 342 188 463 q 232 158 188 221 q 390 81 286 81 q 474 98 439 81 q 547 158 508 115 l 615 93 m 435 -93 l 353 -300 l 243 -300 l 342 -93 l 435 -93 z "},"è":{"ha":736,"x_min":88,"x_max":649,"o":"m 649 315 l 188 315 q 240 141 188 203 q 389 79 292 79 q 487 97 447 79 q 568 157 526 115 l 636 97 q 525 17 581 42 q 386 -8 469 -8 q 167 78 246 -8 q 88 342 88 165 q 163 599 88 507 q 368 692 238 692 q 574 603 500 692 q 649 361 649 514 l 649 315 m 549 390 q 528 504 544 463 q 465 579 508 551 q 368 607 422 607 q 271 579 314 607 q 208 504 228 551 q 188 390 192 463 l 549 390 m 440 825 l 349 825 l 199 1038 l 318 1038 l 440 825 z "},"é":{"ha":736,"x_min":88,"x_max":649,"o":"m 649 315 l 188 315 q 240 141 188 203 q 389 79 292 79 q 487 97 447 79 q 568 157 526 115 l 636 97 q 525 17 581 42 q 386 -8 469 -8 q 167 78 246 -8 q 88 342 88 165 q 163 599 88 507 q 368 692 238 692 q 574 603 500 692 q 649 361 649 514 l 649 315 m 549 390 q 528 504 544 463 q 465 579 508 551 q 368 607 422 607 q 271 579 314 607 q 208 504 228 551 q 188 390 192 463 l 549 390 m 546 1038 l 396 825 l 304 825 l 426 1038 l 546 1038 z "},"ê":{"ha":736,"x_min":88,"x_max":649,"o":"m 649 315 l 188 315 q 240 141 188 203 q 389 79 292 79 q 487 97 447 79 q 568 157 526 115 l 636 97 q 525 17 581 42 q 386 -8 469 -8 q 167 78 246 -8 q 88 342 88 165 q 163 599 88 507 q 368 692 238 692 q 574 603 500 692 q 649 361 649 514 l 649 315 m 549 390 q 528 504 544 463 q 465 579 508 551 q 368 607 422 607 q 271 579 314 607 q 208 504 228 551 q 188 390 192 463 l 549 390 m 593 825 l 497 825 l 372 969 l 247 825 l 151 825 l 325 1038 l 419 1038 l 593 825 z "},"ë":{"ha":736,"x_min":88,"x_max":649,"o":"m 649 315 l 188 315 q 240 141 188 203 q 389 79 292 79 q 487 97 447 79 q 568 157 526 115 l 636 97 q 525 17 581 42 q 386 -8 469 -8 q 167 78 246 -8 q 88 342 88 165 q 163 599 88 507 q 368 692 238 692 q 574 603 500 692 q 649 361 649 514 l 649 315 m 549 390 q 528 504 544 463 q 465 579 508 551 q 368 607 422 607 q 271 579 314 607 q 208 504 228 551 q 188 390 192 463 l 549 390 m 275 836 l 175 836 l 175 960 l 275 960 l 275 836 m 569 836 l 469 836 l 469 960 l 569 960 l 569 836 z "},"ì":{"ha":351,"x_min":-15,"x_max":226,"o":"m 225 0 l 125 0 l 125 683 l 225 683 l 225 0 m 226 825 l 135 825 l -15 1038 l 104 1038 l 226 825 z "},"í":{"ha":351,"x_min":125,"x_max":367,"o":"m 225 0 l 125 0 l 125 683 l 225 683 l 225 0 m 367 1038 l 217 825 l 125 825 l 247 1038 l 367 1038 z "},"î":{"ha":351,"x_min":-42,"x_max":400,"o":"m 225 0 l 125 0 l 125 683 l 225 683 l 225 0 m 400 825 l 304 825 l 179 969 l 54 825 l -42 825 l 132 1038 l 226 1038 l 400 825 z "},"ï":{"ha":351,"x_min":-22,"x_max":372,"o":"m 225 0 l 125 0 l 125 683 l 225 683 l 225 0 m 78 836 l -22 836 l -22 960 l 78 960 l 78 836 m 372 836 l 272 836 l 272 960 l 372 960 l 372 836 z "},"ð":{"ha":736,"x_min":92,"x_max":646,"o":"m 646 339 q 563 68 646 151 q 368 -8 489 -8 q 174 68 247 -8 q 92 339 92 150 q 174 610 92 528 q 343 682 238 675 q 447 668 411 685 l 367 806 l 206 806 l 206 878 l 328 878 l 263 992 l 367 992 l 432 878 l 546 878 l 546 806 l 471 806 l 558 651 q 629 494 613 557 q 646 339 646 432 m 546 339 q 492 549 546 494 q 368 599 442 599 q 246 549 296 599 q 192 339 192 494 q 246 131 192 185 q 368 81 296 81 q 492 131 442 81 q 546 339 546 185 z "},"ñ":{"ha":781,"x_min":125,"x_max":663,"o":"m 663 0 l 563 0 l 563 421 q 518 556 563 510 q 394 603 474 603 q 270 556 315 603 q 225 421 225 508 l 225 0 l 125 0 l 125 683 l 225 683 l 225 608 q 417 692 297 692 q 592 628 528 692 q 663 438 663 558 l 663 0 m 614 915 q 482 844 543 844 q 383 876 438 844 q 306 906 333 906 q 224 861 268 906 l 172 911 q 304 982 243 982 q 403 949 347 982 q 481 921 447 921 q 563 965 518 921 l 614 915 z "},"ò":{"ha":736,"x_min":89,"x_max":647,"o":"m 564 614 q 647 342 647 529 q 564 69 647 154 q 368 -8 486 -8 q 172 69 250 -8 q 89 342 89 154 q 172 614 89 529 q 368 692 250 692 q 564 614 486 692 m 493 131 q 547 342 547 185 q 493 553 547 499 q 368 603 443 603 q 244 553 294 603 q 189 342 189 497 q 244 131 189 186 q 368 81 294 81 q 493 131 443 81 m 422 825 l 331 825 l 181 1038 l 300 1038 l 422 825 z "},"ó":{"ha":736,"x_min":89,"x_max":647,"o":"m 564 614 q 647 342 647 529 q 564 69 647 154 q 368 -8 486 -8 q 172 69 250 -8 q 89 342 89 154 q 172 614 89 529 q 368 692 250 692 q 564 614 486 692 m 493 131 q 547 342 547 185 q 493 553 547 499 q 368 603 443 603 q 244 553 294 603 q 189 342 189 497 q 244 131 189 186 q 368 81 294 81 q 493 131 443 81 m 542 1038 l 392 825 l 300 825 l 422 1038 l 542 1038 z "},"ô":{"ha":736,"x_min":89,"x_max":647,"o":"m 564 614 q 647 342 647 529 q 564 69 647 154 q 368 -8 486 -8 q 172 69 250 -8 q 89 342 89 154 q 172 614 89 529 q 368 692 250 692 q 564 614 486 692 m 493 131 q 547 342 547 185 q 493 553 547 499 q 368 603 443 603 q 244 553 294 603 q 189 342 189 497 q 244 131 189 186 q 368 81 294 81 q 493 131 443 81 m 589 825 l 493 825 l 368 969 l 243 825 l 147 825 l 321 1038 l 415 1038 l 589 825 z "},"õ":{"ha":736,"x_min":89,"x_max":647,"o":"m 564 614 q 647 342 647 529 q 564 69 647 154 q 368 -8 486 -8 q 172 69 250 -8 q 89 342 89 154 q 172 614 89 529 q 368 692 250 692 q 564 614 486 692 m 493 131 q 547 342 547 185 q 493 553 547 499 q 368 603 443 603 q 244 553 294 603 q 189 342 189 497 q 244 131 189 186 q 368 81 294 81 q 493 131 443 81 m 586 915 q 454 844 515 844 q 356 876 410 844 q 278 906 306 906 q 196 861 240 906 l 144 911 q 276 982 215 982 q 375 949 319 982 q 453 921 419 921 q 535 965 490 921 l 586 915 z "},"ö":{"ha":736,"x_min":89,"x_max":647,"o":"m 564 614 q 647 342 647 529 q 564 69 647 154 q 368 -8 486 -8 q 172 69 250 -8 q 89 342 89 154 q 172 614 89 529 q 368 692 250 692 q 564 614 486 692 m 493 131 q 547 342 547 185 q 493 553 547 499 q 368 603 443 603 q 244 553 294 603 q 189 342 189 497 q 244 131 189 186 q 368 81 294 81 q 493 131 443 81 m 271 836 l 171 836 l 171 960 l 271 960 l 271 836 m 565 836 l 465 836 l 465 960 l 565 960 l 565 836 z "},"÷":{"ha":725,"x_min":71,"x_max":654,"o":"m 654 328 l 71 328 l 71 421 l 654 421 l 654 328 m 422 68 l 303 68 l 303 188 l 422 188 l 422 68 m 422 561 l 303 561 l 303 681 l 422 681 l 422 561 z "},"ø":{"ha":736,"x_min":89,"x_max":647,"o":"m 647 342 q 564 69 647 154 q 368 -8 486 -8 q 222 29 286 -8 l 169 -61 l 90 -61 l 169 72 q 89 342 89 156 q 172 614 89 529 q 368 692 250 692 q 514 654 450 692 l 568 744 l 646 744 l 567 611 q 647 342 647 528 m 547 342 q 514 526 547 472 l 268 111 q 368 81 311 81 q 493 131 443 81 q 547 342 547 185 m 468 574 q 368 603 426 603 q 244 553 294 603 q 189 342 189 497 q 224 157 189 214 l 468 574 z "},"ù":{"ha":781,"x_min":118,"x_max":656,"o":"m 656 0 l 557 0 l 557 76 q 364 -8 483 -8 q 188 56 251 -8 q 118 247 118 124 l 118 683 l 218 683 l 218 263 q 262 127 218 174 q 385 81 306 81 q 510 128 464 81 q 556 263 556 175 l 556 683 l 656 683 l 656 0 m 454 825 l 363 825 l 213 1038 l 332 1038 l 454 825 z "},"ú":{"ha":781,"x_min":118,"x_max":656,"o":"m 656 0 l 557 0 l 557 76 q 364 -8 483 -8 q 188 56 251 -8 q 118 247 118 124 l 118 683 l 218 683 l 218 263 q 262 127 218 174 q 385 81 306 81 q 510 128 464 81 q 556 263 556 175 l 556 683 l 656 683 l 656 0 m 560 1038 l 410 825 l 318 825 l 440 1038 l 560 1038 z "},"û":{"ha":781,"x_min":118,"x_max":656,"o":"m 656 0 l 557 0 l 557 76 q 364 -8 483 -8 q 188 56 251 -8 q 118 247 118 124 l 118 683 l 218 683 l 218 263 q 262 127 218 174 q 385 81 306 81 q 510 128 464 81 q 556 263 556 175 l 556 683 l 656 683 l 656 0 m 607 825 l 511 825 l 386 969 l 261 825 l 165 825 l 339 1038 l 433 1038 l 607 825 z "},"ü":{"ha":781,"x_min":118,"x_max":656,"o":"m 656 0 l 557 0 l 557 76 q 364 -8 483 -8 q 188 56 251 -8 q 118 247 118 124 l 118 683 l 218 683 l 218 263 q 262 127 218 174 q 385 81 306 81 q 510 128 464 81 q 556 263 556 175 l 556 683 l 656 683 l 656 0 m 289 836 l 189 836 l 189 960 l 289 960 l 289 836 m 583 836 l 483 836 l 483 960 l 583 960 l 583 836 z "},"ý":{"ha":621,"x_min":15,"x_max":606,"o":"m 606 683 l 294 -165 q 246 -246 275 -219 q 113 -293 197 -293 l 69 -293 l 69 -204 l 100 -204 q 173 -186 150 -204 q 213 -119 196 -168 l 261 14 l 15 683 l 124 683 l 311 135 l 497 683 l 606 683 m 483 1038 l 333 825 l 242 825 l 364 1038 l 483 1038 z "},"þ":{"ha":758,"x_min":125,"x_max":668,"o":"m 585 632 q 668 342 668 549 q 585 51 668 135 q 418 -8 525 -8 q 225 81 294 -8 l 225 -306 l 125 -306 l 125 989 l 225 989 l 225 604 q 418 692 293 692 q 585 632 525 692 m 562 243 q 565 264 562 243 q 568 342 568 285 q 562 440 568 399 q 539 522 556 482 q 486 582 522 561 q 397 603 450 603 q 308 582 344 603 q 255 522 272 561 q 231 440 238 482 q 225 342 225 399 q 231 243 225 285 q 255 162 238 201 q 308 101 272 122 q 397 81 344 81 q 486 101 450 81 q 539 162 522 122 q 562 243 556 201 z "},"ÿ":{"ha":621,"x_min":15,"x_max":606,"o":"m 606 683 l 294 -165 q 246 -246 275 -219 q 113 -293 197 -293 l 69 -293 l 69 -204 l 100 -204 q 173 -186 150 -204 q 213 -119 196 -168 l 261 14 l 15 683 l 124 683 l 311 135 l 497 683 l 606 683 m 213 836 l 113 836 l 113 960 l 213 960 l 213 836 m 507 836 l 407 836 l 407 960 l 507 960 l 507 836 z "},"Ā":{"ha":849,"x_min":17,"x_max":832,"o":"m 832 0 l 719 0 l 640 224 l 208 224 l 129 0 l 17 0 l 381 989 l 469 989 l 832 0 m 610 315 l 426 838 l 240 315 l 610 315 m 633 1113 l 214 1113 l 214 1192 l 633 1192 l 633 1113 z "},"ā":{"ha":731,"x_min":71,"x_max":613,"o":"m 613 0 l 513 0 l 513 65 q 428 8 471 24 q 315 -8 385 -8 q 122 54 183 -8 q 71 193 71 106 q 133 338 71 285 q 307 390 194 390 l 513 390 l 513 456 q 471 569 513 532 q 338 606 429 606 q 234 588 272 606 q 165 528 196 571 l 97 590 q 197 669 142 647 q 339 692 253 692 q 613 464 613 692 l 613 0 m 513 242 l 513 315 l 321 315 q 168 194 168 315 q 325 78 168 78 q 478 124 431 78 q 513 242 513 157 m 575 853 l 156 853 l 156 932 l 575 932 l 575 853 z "},"Ă":{"ha":849,"x_min":17,"x_max":832,"o":"m 832 0 l 719 0 l 640 224 l 208 224 l 129 0 l 17 0 l 381 989 l 469 989 l 832 0 m 610 315 l 426 838 l 240 315 l 610 315 m 656 1293 q 426 1100 639 1100 q 197 1293 214 1100 l 276 1293 q 323 1209 283 1239 q 426 1179 363 1179 q 530 1209 490 1179 q 576 1293 569 1239 l 656 1293 z "},"ă":{"ha":731,"x_min":71,"x_max":613,"o":"m 613 0 l 513 0 l 513 65 q 428 8 471 24 q 315 -8 385 -8 q 122 54 183 -8 q 71 193 71 106 q 133 338 71 285 q 307 390 194 390 l 513 390 l 513 456 q 471 569 513 532 q 338 606 429 606 q 234 588 272 606 q 165 528 196 571 l 97 590 q 197 669 142 647 q 339 692 253 692 q 613 464 613 692 l 613 0 m 513 242 l 513 315 l 321 315 q 168 194 168 315 q 325 78 168 78 q 478 124 431 78 q 513 242 513 157 m 568 989 q 339 796 551 796 q 110 989 126 796 l 189 989 q 235 906 196 935 q 339 876 275 876 q 442 906 403 876 q 489 989 482 935 l 568 989 z "},"Ą":{"ha":849,"x_min":17,"x_max":832,"o":"m 832 0 l 719 0 l 640 224 l 208 224 l 129 0 l 17 0 l 381 989 l 469 989 l 832 0 m 610 315 l 426 838 l 240 315 l 610 315 m 813 -93 l 731 -300 l 621 -300 l 719 -93 l 813 -93 z "},"ą":{"ha":731,"x_min":71,"x_max":613,"o":"m 613 0 l 513 0 l 513 65 q 428 8 471 24 q 315 -8 385 -8 q 122 54 183 -8 q 71 193 71 106 q 133 338 71 285 q 307 390 194 390 l 513 390 l 513 456 q 471 569 513 532 q 338 606 429 606 q 234 588 272 606 q 165 528 196 571 l 97 590 q 197 669 142 647 q 339 692 253 692 q 613 464 613 692 l 613 0 m 513 242 l 513 315 l 321 315 q 168 194 168 315 q 325 78 168 78 q 478 124 431 78 q 513 242 513 157 m 606 -93 l 524 -300 l 414 -300 l 513 -93 l 606 -93 z "},"Ć":{"ha":885,"x_min":106,"x_max":794,"o":"m 794 286 q 678 70 771 149 q 451 -8 585 -8 q 199 94 301 -8 q 120 235 135 158 q 106 494 106 313 q 120 753 106 676 q 199 894 135 831 q 451 997 301 997 q 678 919 586 997 q 794 703 769 842 l 686 703 q 605 849 667 794 q 451 903 543 903 q 281 833 347 903 q 224 722 236 788 q 211 494 211 657 q 224 267 211 332 q 281 156 236 201 q 451 86 347 86 q 606 140 543 86 q 689 286 669 194 l 794 286 m 615 1297 l 465 1085 l 374 1085 l 496 1297 l 615 1297 z "},"ć":{"ha":681,"x_min":88,"x_max":615,"o":"m 615 93 q 513 14 563 36 q 390 -8 463 -8 q 172 82 256 -8 q 88 342 88 172 q 172 601 88 511 q 390 692 256 692 q 513 669 463 692 q 615 590 563 647 l 547 526 q 474 586 508 569 q 390 603 439 603 q 232 525 286 603 q 188 342 188 463 q 232 158 188 221 q 390 81 286 81 q 474 98 439 81 q 547 158 508 115 l 615 93 m 543 1038 l 393 825 l 301 825 l 424 1038 l 543 1038 z "},"Ĉ":{"ha":885,"x_min":106,"x_max":794,"o":"m 794 286 q 678 70 771 149 q 451 -8 585 -8 q 199 94 301 -8 q 120 235 135 158 q 106 494 106 313 q 120 753 106 676 q 199 894 135 831 q 451 997 301 997 q 678 919 586 997 q 794 703 769 842 l 686 703 q 605 849 667 794 q 451 903 543 903 q 281 833 347 903 q 224 722 236 788 q 211 494 211 657 q 224 267 211 332 q 281 156 236 201 q 451 86 347 86 q 606 140 543 86 q 689 286 669 194 l 794 286 m 672 1085 l 576 1085 l 451 1229 l 326 1085 l 231 1085 l 404 1297 l 499 1297 l 672 1085 z "},"ĉ":{"ha":681,"x_min":88,"x_max":615,"o":"m 615 93 q 513 14 563 36 q 390 -8 463 -8 q 172 82 256 -8 q 88 342 88 172 q 172 601 88 511 q 390 692 256 692 q 513 669 463 692 q 615 590 563 647 l 547 526 q 474 586 508 569 q 390 603 439 603 q 232 525 286 603 q 188 342 188 463 q 232 158 188 221 q 390 81 286 81 q 474 98 439 81 q 547 158 508 115 l 615 93 m 610 825 l 514 825 l 389 969 l 264 825 l 168 825 l 342 1038 l 436 1038 l 610 825 z "},"Ċ":{"ha":885,"x_min":106,"x_max":794,"o":"m 794 286 q 678 70 771 149 q 451 -8 585 -8 q 199 94 301 -8 q 120 235 135 158 q 106 494 106 313 q 120 753 106 676 q 199 894 135 831 q 451 997 301 997 q 678 919 586 997 q 794 703 769 842 l 686 703 q 605 849 667 794 q 451 903 543 903 q 281 833 347 903 q 224 722 236 788 q 211 494 211 657 q 224 267 211 332 q 281 156 236 201 q 451 86 347 86 q 606 140 543 86 q 689 286 669 194 l 794 286 m 506 1096 l 394 1096 l 394 1199 l 506 1199 l 506 1096 z "},"ċ":{"ha":681,"x_min":88,"x_max":615,"o":"m 615 93 q 513 14 563 36 q 390 -8 463 -8 q 172 82 256 -8 q 88 342 88 172 q 172 601 88 511 q 390 692 256 692 q 513 669 463 692 q 615 590 563 647 l 547 526 q 474 586 508 569 q 390 603 439 603 q 232 525 286 603 q 188 342 188 463 q 232 158 188 221 q 390 81 286 81 q 474 98 439 81 q 547 158 508 115 l 615 93 m 444 888 l 333 888 l 333 990 l 444 990 l 444 888 z "},"Č":{"ha":885,"x_min":106,"x_max":794,"o":"m 794 286 q 678 70 771 149 q 451 -8 585 -8 q 199 94 301 -8 q 120 235 135 158 q 106 494 106 313 q 120 753 106 676 q 199 894 135 831 q 451 997 301 997 q 678 919 586 997 q 794 703 769 842 l 686 703 q 605 849 667 794 q 451 903 543 903 q 281 833 347 903 q 224 722 236 788 q 211 494 211 657 q 224 267 211 332 q 281 156 236 201 q 451 86 347 86 q 606 140 543 86 q 689 286 669 194 l 794 286 m 663 1297 l 489 1085 l 394 1085 l 221 1297 l 317 1297 l 442 1151 l 567 1297 l 663 1297 z "},"č":{"ha":681,"x_min":88,"x_max":615,"o":"m 615 93 q 513 14 563 36 q 390 -8 463 -8 q 172 82 256 -8 q 88 342 88 172 q 172 601 88 511 q 390 692 256 692 q 513 669 463 692 q 615 590 563 647 l 547 526 q 474 586 508 569 q 390 603 439 603 q 232 525 286 603 q 188 342 188 463 q 232 158 188 221 q 390 81 286 81 q 474 98 439 81 q 547 158 508 115 l 615 93 m 611 1038 l 438 825 l 343 825 l 169 1038 l 265 1038 l 390 892 l 515 1038 l 611 1038 z "},"Ď":{"ha":935,"x_min":143,"x_max":829,"o":"m 829 506 q 811 243 829 319 q 732 92 788 147 q 482 0 640 0 l 143 0 l 143 989 l 482 989 q 732 897 640 989 q 781 827 761 868 q 810 758 801 786 q 824 670 819 729 q 829 593 829 611 q 829 506 829 575 m 724 506 q 722 631 724 592 q 706 730 721 671 q 658 822 690 789 q 464 894 588 894 l 249 894 l 249 94 l 464 94 q 658 167 588 94 q 706 265 690 200 q 722 373 721 331 q 724 506 724 415 m 688 1297 l 514 1085 l 419 1085 l 246 1297 l 342 1297 l 467 1151 l 592 1297 l 688 1297 z "},"ď":{"ha":757,"x_min":89,"x_max":878,"o":"m 878 872 l 757 763 l 757 989 l 878 989 l 878 872 m 632 0 l 533 0 l 533 82 q 339 -8 464 -8 q 172 51 232 -8 q 89 342 89 135 q 172 632 89 549 q 339 692 232 692 q 532 604 464 692 l 532 989 l 632 989 l 632 0 m 526 243 q 529 264 526 243 q 532 342 532 285 q 526 440 532 399 q 503 522 519 482 q 450 582 486 561 q 361 603 414 603 q 272 582 308 603 q 219 522 236 561 q 195 440 201 482 q 189 342 189 399 q 195 243 189 285 q 219 162 201 201 q 272 101 236 122 q 361 81 308 81 q 450 101 414 81 q 503 162 486 122 q 526 243 519 201 z "},"Đ":{"ha":954,"x_min":54,"x_max":849,"o":"m 849 494 q 838 263 849 325 q 788 146 826 201 q 494 0 683 0 l 163 0 l 163 458 l 54 458 l 54 540 l 163 540 l 163 989 l 503 989 q 788 840 690 989 q 839 718 829 776 q 849 494 849 660 m 736 290 q 740 315 736 290 q 743 489 743 340 q 735 693 743 638 q 693 796 726 749 q 483 896 619 896 l 269 896 l 269 540 l 493 540 l 493 458 l 269 458 l 269 93 l 483 93 q 700 196 631 93 q 736 290 729 240 z "},"đ":{"ha":757,"x_min":89,"x_max":726,"o":"m 726 794 l 632 794 l 632 0 l 533 0 l 533 82 q 339 -8 464 -8 q 172 51 232 -8 q 89 342 89 135 q 172 632 89 549 q 339 692 232 692 q 532 604 464 692 l 532 794 l 418 794 l 418 861 l 532 861 l 532 989 l 632 989 l 632 861 l 726 861 l 726 794 m 526 243 q 529 264 526 243 q 532 342 532 285 q 526 440 532 399 q 503 522 519 482 q 450 582 486 561 q 361 603 414 603 q 272 582 308 603 q 219 522 236 561 q 195 440 201 482 q 189 342 189 399 q 195 243 189 285 q 219 162 201 201 q 272 101 236 122 q 361 81 308 81 q 450 101 414 81 q 503 162 486 122 q 526 243 519 201 z "},"Ē":{"ha":833,"x_min":143,"x_max":757,"o":"m 757 0 l 143 0 l 143 989 l 757 989 l 757 894 l 249 894 l 249 546 l 682 546 l 682 451 l 249 451 l 249 94 l 757 94 l 757 0 m 626 1113 l 207 1113 l 207 1192 l 626 1192 l 626 1113 z "},"ē":{"ha":736,"x_min":88,"x_max":649,"o":"m 649 315 l 188 315 q 240 141 188 203 q 389 79 292 79 q 487 97 447 79 q 568 157 526 115 l 636 97 q 525 17 581 42 q 386 -8 469 -8 q 167 78 246 -8 q 88 342 88 165 q 163 599 88 507 q 368 692 238 692 q 574 603 500 692 q 649 361 649 514 l 649 315 m 549 390 q 528 504 544 463 q 465 579 508 551 q 368 607 422 607 q 271 579 314 607 q 208 504 228 551 q 188 390 192 463 l 549 390 m 578 853 l 158 853 l 158 932 l 578 932 l 578 853 z "},"Ė":{"ha":833,"x_min":143,"x_max":757,"o":"m 757 0 l 143 0 l 143 989 l 757 989 l 757 894 l 249 894 l 249 546 l 682 546 l 682 451 l 249 451 l 249 94 l 757 94 l 757 0 m 472 1103 l 361 1103 l 361 1206 l 472 1206 l 472 1103 z "},"ė":{"ha":736,"x_min":88,"x_max":649,"o":"m 649 315 l 188 315 q 240 141 188 203 q 389 79 292 79 q 487 97 447 79 q 568 157 526 115 l 636 97 q 525 17 581 42 q 386 -8 469 -8 q 167 78 246 -8 q 88 342 88 165 q 163 599 88 507 q 368 692 238 692 q 574 603 500 692 q 649 361 649 514 l 649 315 m 549 390 q 528 504 544 463 q 465 579 508 551 q 368 607 422 607 q 271 579 314 607 q 208 504 228 551 q 188 390 192 463 l 549 390 m 424 881 l 313 881 l 313 983 l 424 983 l 424 881 z "},"Ę":{"ha":833,"x_min":143,"x_max":757,"o":"m 757 0 l 143 0 l 143 989 l 757 989 l 757 894 l 249 894 l 249 546 l 682 546 l 682 451 l 249 451 l 249 94 l 757 94 l 757 0 m 757 -93 l 675 -300 l 565 -300 l 664 -93 l 757 -93 z "},"ę":{"ha":736,"x_min":88,"x_max":649,"o":"m 649 315 l 188 315 q 240 141 188 203 q 389 79 292 79 q 487 97 447 79 q 568 157 526 115 l 636 97 q 525 17 581 42 q 386 -8 469 -8 q 167 78 246 -8 q 88 342 88 165 q 163 599 88 507 q 368 692 238 692 q 574 603 500 692 q 649 361 649 514 l 649 315 m 549 390 q 528 504 544 463 q 465 579 508 551 q 368 607 422 607 q 271 579 314 607 q 208 504 228 551 q 188 390 192 463 l 549 390 m 513 -93 l 431 -300 l 321 -300 l 419 -93 l 513 -93 z "},"Ě":{"ha":833,"x_min":143,"x_max":757,"o":"m 757 0 l 143 0 l 143 989 l 757 989 l 757 894 l 249 894 l 249 546 l 682 546 l 682 451 l 249 451 l 249 94 l 757 94 l 757 0 m 638 1297 l 464 1085 l 369 1085 l 196 1297 l 292 1297 l 417 1151 l 542 1297 l 638 1297 z "},"ě":{"ha":736,"x_min":88,"x_max":649,"o":"m 649 315 l 188 315 q 240 141 188 203 q 389 79 292 79 q 487 97 447 79 q 568 157 526 115 l 636 97 q 525 17 581 42 q 386 -8 469 -8 q 167 78 246 -8 q 88 342 88 165 q 163 599 88 507 q 368 692 238 692 q 574 603 500 692 q 649 361 649 514 l 649 315 m 549 390 q 528 504 544 463 q 465 579 508 551 q 368 607 422 607 q 271 579 314 607 q 208 504 228 551 q 188 390 192 463 l 549 390 m 589 1038 l 415 825 l 321 825 l 147 1038 l 243 1038 l 368 892 l 493 1038 l 589 1038 z "},"Ĝ":{"ha":903,"x_min":106,"x_max":800,"o":"m 800 361 q 715 106 800 196 q 451 -8 610 -8 q 199 94 301 -8 q 120 235 135 158 q 106 494 106 313 q 120 753 106 676 q 199 894 135 831 q 451 997 301 997 q 683 916 590 997 q 797 701 775 835 l 692 701 q 607 849 671 796 q 451 903 543 903 q 281 832 349 903 q 224 722 236 786 q 211 494 211 657 q 224 267 211 332 q 281 156 236 201 q 451 86 347 86 q 639 171 569 86 q 694 350 694 238 l 694 425 l 451 425 l 451 518 l 800 518 l 800 361 m 672 1085 l 576 1085 l 451 1229 l 326 1085 l 231 1085 l 404 1297 l 499 1297 l 672 1085 z "},"ĝ":{"ha":754,"x_min":89,"x_max":629,"o":"m 629 -21 q 553 -232 629 -150 q 344 -314 476 -314 q 219 -293 269 -314 q 113 -222 168 -272 l 178 -158 q 253 -211 219 -196 q 342 -226 286 -226 q 483 -168 436 -226 q 529 -17 529 -110 l 529 90 q 338 1 460 1 q 172 63 233 1 q 89 347 89 146 q 172 632 89 549 q 339 692 232 692 q 531 603 463 692 l 531 683 l 629 683 l 629 -21 m 523 253 q 526 273 523 253 q 529 347 529 293 q 523 442 529 401 q 500 522 517 482 q 448 582 483 561 q 360 603 413 603 q 271 582 307 603 q 218 522 235 561 q 195 442 201 482 q 189 347 189 401 q 195 253 189 293 q 218 173 201 213 q 271 113 235 133 q 360 92 307 92 q 448 113 413 92 q 500 173 483 133 q 523 253 517 213 m 581 825 l 485 825 l 360 969 l 235 825 l 139 825 l 313 1038 l 407 1038 l 581 825 z "},"Ğ":{"ha":903,"x_min":106,"x_max":800,"o":"m 800 361 q 715 106 800 196 q 451 -8 610 -8 q 199 94 301 -8 q 120 235 135 158 q 106 494 106 313 q 120 753 106 676 q 199 894 135 831 q 451 997 301 997 q 683 916 590 997 q 797 701 775 835 l 692 701 q 607 849 671 796 q 451 903 543 903 q 281 832 349 903 q 224 722 236 786 q 211 494 211 657 q 224 267 211 332 q 281 156 236 201 q 451 86 347 86 q 639 171 569 86 q 694 350 694 238 l 694 425 l 451 425 l 451 518 l 800 518 l 800 361 m 681 1293 q 451 1100 664 1100 q 222 1293 239 1100 l 301 1293 q 348 1209 308 1239 q 451 1179 388 1179 q 555 1209 515 1179 q 601 1293 594 1239 l 681 1293 z "},"ğ":{"ha":754,"x_min":89,"x_max":629,"o":"m 629 -21 q 553 -232 629 -150 q 344 -314 476 -314 q 219 -293 269 -314 q 113 -222 168 -272 l 178 -158 q 253 -211 219 -196 q 342 -226 286 -226 q 483 -168 436 -226 q 529 -17 529 -110 l 529 90 q 338 1 460 1 q 172 63 233 1 q 89 347 89 146 q 172 632 89 549 q 339 692 232 692 q 531 603 463 692 l 531 683 l 629 683 l 629 -21 m 523 253 q 526 273 523 253 q 529 347 529 293 q 523 442 529 401 q 500 522 517 482 q 448 582 483 561 q 360 603 413 603 q 271 582 307 603 q 218 522 235 561 q 195 442 201 482 q 189 347 189 401 q 195 253 189 293 q 218 173 201 213 q 271 113 235 133 q 360 92 307 92 q 448 113 413 92 q 500 173 483 133 q 523 253 517 213 m 589 989 q 360 796 572 796 q 131 989 147 796 l 210 989 q 256 906 217 935 q 360 876 296 876 q 463 906 424 876 q 510 989 503 935 l 589 989 z "},"Ġ":{"ha":903,"x_min":106,"x_max":800,"o":"m 800 361 q 715 106 800 196 q 451 -8 610 -8 q 199 94 301 -8 q 120 235 135 158 q 106 494 106 313 q 120 753 106 676 q 199 894 135 831 q 451 997 301 997 q 683 916 590 997 q 797 701 775 835 l 692 701 q 607 849 671 796 q 451 903 543 903 q 281 832 349 903 q 224 722 236 786 q 211 494 211 657 q 224 267 211 332 q 281 156 236 201 q 451 86 347 86 q 639 171 569 86 q 694 350 694 238 l 694 425 l 451 425 l 451 518 l 800 518 l 800 361 m 506 1096 l 394 1096 l 394 1199 l 506 1199 l 506 1096 z "},"ġ":{"ha":754,"x_min":89,"x_max":629,"o":"m 629 -21 q 553 -232 629 -150 q 344 -314 476 -314 q 219 -293 269 -314 q 113 -222 168 -272 l 178 -158 q 253 -211 219 -196 q 342 -226 286 -226 q 483 -168 436 -226 q 529 -17 529 -110 l 529 90 q 338 1 460 1 q 172 63 233 1 q 89 347 89 146 q 172 632 89 549 q 339 692 232 692 q 531 603 463 692 l 531 683 l 629 683 l 629 -21 m 523 253 q 526 273 523 253 q 529 347 529 293 q 523 442 529 401 q 500 522 517 482 q 448 582 483 561 q 360 603 413 603 q 271 582 307 603 q 218 522 235 561 q 195 442 201 482 q 189 347 189 401 q 195 253 189 293 q 218 173 201 213 q 271 113 235 133 q 360 92 307 92 q 448 113 413 92 q 500 173 483 133 q 523 253 517 213 m 415 888 l 304 888 l 304 990 l 415 990 l 415 888 z "},"Ģ":{"ha":903,"x_min":106,"x_max":800,"o":"m 800 361 q 715 106 800 196 q 451 -8 610 -8 q 199 94 301 -8 q 120 235 135 158 q 106 494 106 313 q 120 753 106 676 q 199 894 135 831 q 451 997 301 997 q 683 916 590 997 q 797 701 775 835 l 692 701 q 607 849 671 796 q 451 903 543 903 q 281 832 349 903 q 224 722 236 786 q 211 494 211 657 q 224 267 211 332 q 281 156 236 201 q 451 86 347 86 q 639 171 569 86 q 694 350 694 238 l 694 425 l 451 425 l 451 518 l 800 518 l 800 361 m 457 -300 l 349 -300 l 447 -93 l 539 -93 l 457 -300 z "},"ģ":{"ha":754,"x_min":89,"x_max":629,"o":"m 629 -21 q 553 -232 629 -150 q 344 -314 476 -314 q 219 -293 269 -314 q 113 -222 168 -272 l 178 -158 q 253 -211 219 -196 q 342 -226 286 -226 q 483 -168 436 -226 q 529 -17 529 -110 l 529 90 q 338 1 460 1 q 172 63 233 1 q 89 347 89 146 q 172 632 89 549 q 339 692 232 692 q 531 603 463 692 l 531 683 l 629 683 l 629 -21 m 523 253 q 526 273 523 253 q 529 347 529 293 q 523 442 529 401 q 500 522 517 482 q 448 582 483 561 q 360 603 413 603 q 271 582 307 603 q 218 522 235 561 q 195 442 201 482 q 189 347 189 401 q 195 253 189 293 q 218 173 201 213 q 271 113 235 133 q 360 92 307 92 q 448 113 413 92 q 500 173 483 133 q 523 253 517 213 m 550 1038 l 400 825 l 308 825 l 431 1038 l 550 1038 z "},"Ĥ":{"ha":967,"x_min":143,"x_max":824,"o":"m 824 0 l 718 0 l 718 451 l 249 451 l 249 0 l 143 0 l 143 989 l 249 989 l 249 546 l 718 546 l 718 989 l 824 989 l 824 0 m 704 1085 l 608 1085 l 483 1229 l 358 1085 l 263 1085 l 436 1297 l 531 1297 l 704 1085 z "},"ĥ":{"ha":781,"x_min":-44,"x_max":663,"o":"m 663 0 l 563 0 l 563 422 q 519 556 563 510 q 396 603 475 603 q 271 556 317 603 q 225 422 225 510 l 225 0 l 125 0 l 125 989 l 225 989 l 225 608 q 417 692 299 692 q 597 624 532 692 q 663 439 663 556 l 663 0 m 397 1083 l 301 1083 l 176 1228 l 51 1083 l -44 1083 l 129 1296 l 224 1296 l 397 1083 z "},"Ħ":{"ha":997,"x_min":56,"x_max":942,"o":"m 942 715 l 839 715 l 839 0 l 733 0 l 733 451 l 264 451 l 264 0 l 158 0 l 158 715 l 56 715 l 56 796 l 158 796 l 158 989 l 264 989 l 264 796 l 733 796 l 733 989 l 839 989 l 839 796 l 942 796 l 942 715 m 733 546 l 733 715 l 264 715 l 264 546 l 733 546 z "},"ħ":{"ha":781,"x_min":42,"x_max":663,"o":"m 663 0 l 563 0 l 563 422 q 519 556 563 510 q 396 603 475 603 q 271 556 317 603 q 225 422 225 510 l 225 0 l 125 0 l 125 794 l 42 794 l 42 861 l 125 861 l 125 989 l 225 989 l 225 861 l 397 861 l 397 794 l 225 794 l 225 608 q 417 692 299 692 q 597 624 532 692 q 663 439 663 556 l 663 0 z "},"Ī":{"ha":392,"x_min":-14,"x_max":406,"o":"m 249 0 l 143 0 l 143 989 l 249 989 l 249 0 m 406 1113 l -14 1113 l -14 1192 l 406 1192 l 406 1113 z "},"ī":{"ha":351,"x_min":-33,"x_max":386,"o":"m 225 0 l 125 0 l 125 683 l 225 683 l 225 0 m 386 853 l -33 853 l -33 932 l 386 932 l 386 853 z "},"Į":{"ha":392,"x_min":44,"x_max":249,"o":"m 249 0 l 143 0 l 143 989 l 249 989 l 249 0 m 236 -93 l 154 -300 l 44 -300 l 143 -93 l 236 -93 z "},"į":{"ha":351,"x_min":28,"x_max":232,"o":"m 225 0 l 125 0 l 125 683 l 225 683 l 225 0 m 232 878 l 119 878 l 119 990 l 232 990 l 232 878 m 219 -93 l 138 -300 l 28 -300 l 126 -93 l 219 -93 z "},"İ":{"ha":392,"x_min":140,"x_max":251,"o":"m 249 0 l 143 0 l 143 989 l 249 989 l 249 0 m 251 1096 l 140 1096 l 140 1199 l 251 1199 l 251 1096 z "},"ı":{"ha":351,"x_min":125,"x_max":225,"o":"m 225 0 l 125 0 l 125 683 l 225 683 l 225 0 z "},"Ĵ":{"ha":696,"x_min":32,"x_max":735,"o":"m 567 300 q 481 75 567 158 q 258 -8 396 -8 q 32 81 121 -8 l 103 151 q 169 103 135 119 q 258 86 203 86 q 408 145 356 86 q 461 314 461 204 l 461 989 l 567 989 l 567 300 m 735 1085 l 639 1085 l 514 1229 l 389 1085 l 293 1085 l 467 1297 l 561 1297 l 735 1085 z "},"ĵ":{"ha":351,"x_min":-46,"x_max":396,"o":"m 225 -124 q 181 -256 225 -206 q 51 -307 138 -307 l -21 -307 l -21 -219 l 33 -219 q 104 -195 83 -219 q 125 -119 125 -171 l 125 679 l 225 679 l 225 -124 m 396 825 l 300 825 l 175 969 l 50 825 l -46 825 l 128 1038 l 222 1038 l 396 825 z "},"Ķ":{"ha":903,"x_min":143,"x_max":883,"o":"m 883 0 l 758 0 l 457 526 l 249 276 l 249 0 l 143 0 l 143 989 l 249 989 l 249 421 l 710 989 l 839 989 l 528 607 l 883 0 m 456 -300 l 347 -300 l 446 -93 l 538 -93 l 456 -300 z "},"ķ":{"ha":744,"x_min":125,"x_max":699,"o":"m 699 0 l 575 0 l 358 350 l 225 197 l 225 0 l 125 0 l 125 989 l 225 989 l 225 328 l 533 683 l 658 683 l 426 422 l 699 0 m 376 -300 l 268 -300 l 367 -93 l 458 -93 l 376 -300 z "},"Ĺ":{"ha":796,"x_min":143,"x_max":754,"o":"m 754 0 l 143 0 l 143 989 l 249 989 l 249 94 l 754 94 l 754 0 m 444 1297 l 294 1085 l 203 1085 l 325 1297 l 444 1297 z "},"ĺ":{"ha":413,"x_min":122,"x_max":381,"o":"m 368 0 l 296 0 q 166 50 210 0 q 122 182 122 100 l 122 989 l 222 989 l 222 186 q 243 110 222 135 q 314 86 264 86 l 368 86 l 368 0 m 381 1297 l 231 1085 l 139 1085 l 261 1297 l 381 1297 z "},"Ļ":{"ha":796,"x_min":143,"x_max":754,"o":"m 754 0 l 143 0 l 143 989 l 249 989 l 249 94 l 754 94 l 754 0 m 401 -300 l 293 -300 l 392 -93 l 483 -93 l 401 -300 z "},"ļ":{"ha":413,"x_min":103,"x_max":368,"o":"m 368 0 l 296 0 q 166 50 210 0 q 122 182 122 100 l 122 989 l 222 989 l 222 186 q 243 110 222 135 q 314 86 264 86 l 368 86 l 368 0 m 211 -300 l 103 -300 l 201 -93 l 293 -93 l 211 -300 z "},"Ľ":{"ha":796,"x_min":143,"x_max":754,"o":"m 576 872 l 456 763 l 456 989 l 576 989 l 576 872 m 754 0 l 143 0 l 143 989 l 249 989 l 249 94 l 754 94 l 754 0 z "},"ľ":{"ha":413,"x_min":122,"x_max":468,"o":"m 468 872 l 347 763 l 347 989 l 468 989 l 468 872 m 368 0 l 296 0 q 166 50 210 0 q 122 182 122 100 l 122 989 l 222 989 l 222 186 q 243 110 222 135 q 314 86 264 86 l 368 86 l 368 0 z "},"Ł":{"ha":808,"x_min":54,"x_max":767,"o":"m 767 0 l 156 0 l 156 401 l 54 338 l 54 431 l 156 494 l 156 989 l 263 989 l 263 561 l 476 697 l 476 606 l 263 469 l 263 94 l 767 94 l 767 0 z "},"ł":{"ha":438,"x_min":51,"x_max":386,"o":"m 386 0 l 314 0 q 183 50 228 0 q 139 182 139 100 l 139 475 l 51 421 l 51 507 l 139 561 l 139 989 l 239 989 l 239 622 l 351 692 l 351 606 l 239 536 l 239 186 q 260 110 239 135 q 331 86 281 86 l 386 86 l 386 0 z "},"Ń":{"ha":1017,"x_min":143,"x_max":874,"o":"m 874 0 l 774 0 l 249 793 l 249 0 l 143 0 l 143 989 l 243 989 l 768 199 l 768 989 l 874 989 l 874 0 m 682 1297 l 532 1085 l 440 1085 l 563 1297 l 682 1297 z "},"ń":{"ha":781,"x_min":125,"x_max":663,"o":"m 663 0 l 563 0 l 563 421 q 518 556 563 510 q 394 603 474 603 q 270 556 315 603 q 225 421 225 508 l 225 0 l 125 0 l 125 683 l 225 683 l 225 608 q 417 692 297 692 q 592 628 528 692 q 663 438 663 558 l 663 0 m 564 1038 l 414 825 l 322 825 l 444 1038 l 564 1038 z "},"Ņ":{"ha":1017,"x_min":143,"x_max":874,"o":"m 874 0 l 774 0 l 249 793 l 249 0 l 143 0 l 143 989 l 243 989 l 768 199 l 768 989 l 874 989 l 874 0 m 499 -300 l 390 -300 l 489 -93 l 581 -93 l 499 -300 z "},"ņ":{"ha":781,"x_min":125,"x_max":663,"o":"m 663 0 l 563 0 l 563 421 q 518 556 563 510 q 394 603 474 603 q 270 556 315 603 q 225 421 225 508 l 225 0 l 125 0 l 125 683 l 225 683 l 225 608 q 417 692 297 692 q 592 628 528 692 q 663 438 663 558 l 663 0 m 394 -300 l 286 -300 l 385 -93 l 476 -93 l 394 -300 z "},"Ň":{"ha":1017,"x_min":143,"x_max":874,"o":"m 874 0 l 774 0 l 249 793 l 249 0 l 143 0 l 143 989 l 243 989 l 768 199 l 768 989 l 874 989 l 874 0 m 729 1297 l 556 1085 l 461 1085 l 288 1297 l 383 1297 l 508 1151 l 633 1297 l 729 1297 z "},"ň":{"ha":781,"x_min":125,"x_max":663,"o":"m 663 0 l 563 0 l 563 421 q 518 556 563 510 q 394 603 474 603 q 270 556 315 603 q 225 421 225 508 l 225 0 l 125 0 l 125 683 l 225 683 l 225 608 q 417 692 297 692 q 592 628 528 692 q 663 438 663 558 l 663 0 m 611 1038 l 438 825 l 343 825 l 169 1038 l 265 1038 l 390 892 l 515 1038 l 611 1038 z "},"Ō":{"ha":903,"x_min":106,"x_max":797,"o":"m 783 753 q 790 715 783 753 q 797 494 797 676 q 783 235 797 313 q 704 94 768 158 q 451 -8 601 -8 q 199 94 301 -8 q 120 235 135 158 q 106 494 106 313 q 120 753 106 676 q 199 894 135 831 q 451 997 301 997 q 704 894 601 997 q 783 753 768 831 m 679 267 q 685 300 679 267 q 692 494 692 332 q 679 722 692 657 q 622 832 667 786 q 451 903 554 903 q 281 832 349 903 q 224 722 236 786 q 211 494 211 657 q 224 267 211 332 q 281 157 236 203 q 451 86 349 86 q 622 157 554 86 q 679 267 667 203 m 661 1113 l 242 1113 l 242 1192 l 661 1192 l 661 1113 z "},"ō":{"ha":736,"x_min":89,"x_max":647,"o":"m 564 614 q 647 342 647 529 q 564 69 647 154 q 368 -8 486 -8 q 172 69 250 -8 q 89 342 89 154 q 172 614 89 529 q 368 692 250 692 q 564 614 486 692 m 493 131 q 547 342 547 185 q 493 553 547 499 q 368 603 443 603 q 244 553 294 603 q 189 342 189 497 q 244 131 189 186 q 368 81 294 81 q 493 131 443 81 m 578 853 l 158 853 l 158 932 l 578 932 l 578 853 z "},"Ő":{"ha":903,"x_min":106,"x_max":797,"o":"m 783 753 q 790 715 783 753 q 797 494 797 676 q 783 235 797 313 q 704 94 768 158 q 451 -8 601 -8 q 199 94 301 -8 q 120 235 135 158 q 106 494 106 313 q 120 753 106 676 q 199 894 135 831 q 451 997 301 997 q 704 894 601 997 q 783 753 768 831 m 679 267 q 685 300 679 267 q 692 494 692 332 q 679 722 692 657 q 622 832 667 786 q 451 903 554 903 q 281 832 349 903 q 224 722 236 786 q 211 494 211 657 q 224 267 211 332 q 281 157 236 203 q 451 86 349 86 q 622 157 554 86 q 679 267 667 203 m 499 1297 l 349 1085 l 257 1085 l 381 1297 l 499 1297 m 725 1297 l 574 1085 l 483 1085 l 607 1297 l 725 1297 z "},"ő":{"ha":736,"x_min":89,"x_max":647,"o":"m 564 614 q 647 342 647 529 q 564 69 647 154 q 368 -8 486 -8 q 172 69 250 -8 q 89 342 89 154 q 172 614 89 529 q 368 692 250 692 q 564 614 486 692 m 493 131 q 547 342 547 185 q 493 553 547 499 q 368 603 443 603 q 244 553 294 603 q 189 342 189 497 q 244 131 189 186 q 368 81 294 81 q 493 131 443 81 m 415 1038 l 265 825 l 174 825 l 297 1038 l 415 1038 m 642 1038 l 490 825 l 400 825 l 524 1038 l 642 1038 z "},"Œ":{"ha":1374,"x_min":106,"x_max":1296,"o":"m 1296 0 l 690 0 l 690 103 q 450 -8 600 -8 q 199 94 301 -8 q 120 236 135 158 q 106 494 106 314 q 120 753 106 675 q 199 894 135 831 q 450 997 301 997 q 690 886 600 997 l 690 989 l 1293 989 l 1293 896 l 797 896 l 797 543 l 1219 543 l 1219 454 l 796 454 l 796 93 l 1296 93 l 1296 0 m 678 267 q 684 299 678 267 q 690 494 690 331 q 678 722 690 658 q 622 832 667 786 q 451 903 554 903 q 281 832 349 903 q 224 722 236 786 q 211 494 211 657 q 224 267 211 332 q 281 157 236 203 q 451 86 349 86 q 622 157 554 86 q 678 267 667 203 z "},"œ":{"ha":1196,"x_min":89,"x_max":1108,"o":"m 1108 315 l 647 315 q 699 141 647 203 q 849 79 751 79 q 947 97 907 79 q 1028 157 986 115 l 1096 97 q 985 17 1040 42 q 846 -8 929 -8 q 600 124 674 -8 q 507 26 568 61 q 368 -8 446 -8 q 172 69 250 -8 q 89 342 89 154 q 172 614 89 529 q 368 692 250 692 q 508 657 446 692 q 601 560 569 622 q 828 692 672 692 q 1034 603 960 692 q 1108 361 1108 514 l 1108 315 m 493 131 q 547 342 547 185 q 493 553 547 499 q 368 603 443 603 q 244 553 294 603 q 189 342 189 497 q 244 131 189 186 q 368 81 294 81 q 493 131 443 81 m 1010 390 q 988 504 1007 458 q 925 579 968 551 q 828 607 882 607 q 731 579 774 607 q 668 504 688 551 q 647 390 651 463 l 1010 390 z "},"Ŕ":{"ha":911,"x_min":143,"x_max":835,"o":"m 835 0 l 711 0 l 486 439 l 249 439 l 249 0 l 143 0 l 143 989 l 522 989 q 734 915 653 989 q 815 714 815 840 q 757 539 815 608 q 600 449 699 469 l 835 0 m 656 578 q 683 602 656 578 q 710 713 710 625 q 656 847 710 800 q 513 894 601 894 l 249 894 l 249 532 l 513 532 q 656 578 603 532 m 629 1297 l 479 1085 l 388 1085 l 510 1297 l 629 1297 z "},"ŕ":{"ha":585,"x_min":125,"x_max":581,"o":"m 581 628 l 507 553 q 453 592 479 581 q 389 603 428 603 q 270 551 315 603 q 225 419 225 499 l 225 0 l 125 0 l 125 683 l 225 683 l 225 600 q 305 667 253 643 q 417 692 357 692 q 581 628 517 692 m 467 1038 l 317 825 l 225 825 l 347 1038 l 467 1038 z "},"Ŗ":{"ha":911,"x_min":143,"x_max":835,"o":"m 835 0 l 711 0 l 486 439 l 249 439 l 249 0 l 143 0 l 143 989 l 522 989 q 734 915 653 989 q 815 714 815 840 q 757 539 815 608 q 600 449 699 469 l 835 0 m 656 578 q 683 602 656 578 q 710 713 710 625 q 656 847 710 800 q 513 894 601 894 l 249 894 l 249 532 l 513 532 q 656 578 603 532 m 460 -300 l 351 -300 l 450 -93 l 542 -93 l 460 -300 z "},"ŗ":{"ha":585,"x_min":81,"x_max":581,"o":"m 581 628 l 507 553 q 453 592 479 581 q 389 603 428 603 q 270 551 315 603 q 225 419 225 499 l 225 0 l 125 0 l 125 683 l 225 683 l 225 600 q 305 667 253 643 q 417 692 357 692 q 581 628 517 692 m 189 -300 l 81 -300 l 179 -93 l 271 -93 l 189 -300 z "},"Ř":{"ha":911,"x_min":143,"x_max":835,"o":"m 835 0 l 711 0 l 486 439 l 249 439 l 249 0 l 143 0 l 143 989 l 522 989 q 734 915 653 989 q 815 714 815 840 q 757 539 815 608 q 600 449 699 469 l 835 0 m 656 578 q 683 602 656 578 q 710 713 710 625 q 656 847 710 800 q 513 894 601 894 l 249 894 l 249 532 l 513 532 q 656 578 603 532 m 676 1297 l 503 1085 l 408 1085 l 235 1297 l 331 1297 l 456 1151 l 581 1297 l 676 1297 z "},"ř":{"ha":585,"x_min":100,"x_max":581,"o":"m 581 628 l 507 553 q 453 592 479 581 q 389 603 428 603 q 270 551 315 603 q 225 419 225 499 l 225 0 l 125 0 l 125 683 l 225 683 l 225 600 q 305 667 253 643 q 417 692 357 692 q 581 628 517 692 m 542 1038 l 368 825 l 274 825 l 100 1038 l 196 1038 l 321 892 l 446 1038 l 542 1038 z "},"Ś":{"ha":817,"x_min":58,"x_max":739,"o":"m 739 272 q 646 67 739 143 q 397 -8 553 -8 q 207 22 286 -8 q 58 122 128 53 l 131 194 q 252 110 190 135 q 400 86 314 86 q 571 135 508 86 q 633 269 633 183 q 586 393 633 351 q 538 423 563 414 q 457 440 513 432 l 342 458 q 160 533 224 478 q 85 718 85 600 q 170 921 85 844 q 401 997 256 997 q 564 972 496 997 q 696 889 632 947 l 628 821 q 397 906 535 906 q 244 856 300 906 q 189 722 189 806 q 233 608 189 647 q 367 554 279 568 l 475 538 q 656 468 596 519 q 739 272 739 397 m 582 1297 l 432 1085 l 340 1085 l 463 1297 l 582 1297 z "},"ś":{"ha":689,"x_min":60,"x_max":618,"o":"m 618 200 q 542 47 618 103 q 340 -8 467 -8 q 60 90 163 -8 l 126 157 q 339 78 201 78 q 473 108 425 78 q 521 199 521 139 q 407 299 521 289 l 294 308 q 90 492 90 325 q 160 638 90 583 q 342 692 231 692 q 588 618 497 692 l 522 553 q 340 607 451 607 q 227 577 267 607 q 188 494 188 547 q 307 394 188 404 l 417 385 q 566 333 514 376 q 618 200 618 290 m 518 1038 l 368 825 l 276 825 l 399 1038 l 518 1038 z "},"Ŝ":{"ha":817,"x_min":58,"x_max":739,"o":"m 739 272 q 646 67 739 143 q 397 -8 553 -8 q 207 22 286 -8 q 58 122 128 53 l 131 194 q 252 110 190 135 q 400 86 314 86 q 571 135 508 86 q 633 269 633 183 q 586 393 633 351 q 538 423 563 414 q 457 440 513 432 l 342 458 q 160 533 224 478 q 85 718 85 600 q 170 921 85 844 q 401 997 256 997 q 564 972 496 997 q 696 889 632 947 l 628 821 q 397 906 535 906 q 244 856 300 906 q 189 722 189 806 q 233 608 189 647 q 367 554 279 568 l 475 538 q 656 468 596 519 q 739 272 739 397 m 622 1085 l 526 1085 l 401 1229 l 276 1085 l 181 1085 l 354 1297 l 449 1297 l 622 1085 z "},"ŝ":{"ha":689,"x_min":60,"x_max":618,"o":"m 618 200 q 542 47 618 103 q 340 -8 467 -8 q 60 90 163 -8 l 126 157 q 339 78 201 78 q 473 108 425 78 q 521 199 521 139 q 407 299 521 289 l 294 308 q 90 492 90 325 q 160 638 90 583 q 342 692 231 692 q 588 618 497 692 l 522 553 q 340 607 451 607 q 227 577 267 607 q 188 494 188 547 q 307 394 188 404 l 417 385 q 566 333 514 376 q 618 200 618 290 m 563 825 l 467 825 l 342 969 l 217 825 l 121 825 l 294 1038 l 389 1038 l 563 825 z "},"Ş":{"ha":817,"x_min":58,"x_max":739,"o":"m 739 272 q 646 67 739 143 q 397 -8 553 -8 q 207 22 286 -8 q 58 122 128 53 l 131 194 q 252 110 190 135 q 400 86 314 86 q 571 135 508 86 q 633 269 633 183 q 586 393 633 351 q 538 423 563 414 q 457 440 513 432 l 342 458 q 160 533 224 478 q 85 718 85 600 q 170 921 85 844 q 401 997 256 997 q 564 972 496 997 q 696 889 632 947 l 628 821 q 397 906 535 906 q 244 856 300 906 q 189 722 189 806 q 233 608 189 647 q 367 554 279 568 l 475 538 q 656 468 596 519 q 739 272 739 397 m 496 -93 l 414 -300 l 304 -300 l 403 -93 l 496 -93 z "},"ş":{"ha":689,"x_min":60,"x_max":618,"o":"m 618 200 q 542 47 618 103 q 340 -8 467 -8 q 60 90 163 -8 l 126 157 q 339 78 201 78 q 473 108 425 78 q 521 199 521 139 q 407 299 521 289 l 294 308 q 90 492 90 325 q 160 638 90 583 q 342 692 231 692 q 588 618 497 692 l 522 553 q 340 607 451 607 q 227 577 267 607 q 188 494 188 547 q 307 394 188 404 l 417 385 q 566 333 514 376 q 618 200 618 290 m 432 -93 l 350 -300 l 240 -300 l 339 -93 l 432 -93 z "},"Š":{"ha":817,"x_min":58,"x_max":739,"o":"m 739 272 q 646 67 739 143 q 397 -8 553 -8 q 207 22 286 -8 q 58 122 128 53 l 131 194 q 252 110 190 135 q 400 86 314 86 q 571 135 508 86 q 633 269 633 183 q 586 393 633 351 q 538 423 563 414 q 457 440 513 432 l 342 458 q 160 533 224 478 q 85 718 85 600 q 170 921 85 844 q 401 997 256 997 q 564 972 496 997 q 696 889 632 947 l 628 821 q 397 906 535 906 q 244 856 300 906 q 189 722 189 806 q 233 608 189 647 q 367 554 279 568 l 475 538 q 656 468 596 519 q 739 272 739 397 m 622 1297 l 449 1085 l 354 1085 l 181 1297 l 276 1297 l 401 1151 l 526 1297 l 622 1297 z "},"š":{"ha":689,"x_min":60,"x_max":618,"o":"m 618 200 q 542 47 618 103 q 340 -8 467 -8 q 60 90 163 -8 l 126 157 q 339 78 201 78 q 473 108 425 78 q 521 199 521 139 q 407 299 521 289 l 294 308 q 90 492 90 325 q 160 638 90 583 q 342 692 231 692 q 588 618 497 692 l 522 553 q 340 607 451 607 q 227 577 267 607 q 188 494 188 547 q 307 394 188 404 l 417 385 q 566 333 514 376 q 618 200 618 290 m 563 1038 l 389 825 l 294 825 l 121 1038 l 217 1038 l 342 892 l 467 1038 l 563 1038 z "},"Ţ":{"ha":761,"x_min":42,"x_max":719,"o":"m 719 894 l 433 894 l 433 0 l 328 0 l 328 894 l 42 894 l 42 989 l 719 989 l 719 894 m 386 -300 l 278 -300 l 376 -93 l 468 -93 l 386 -300 z "},"ţ":{"ha":461,"x_min":56,"x_max":388,"o":"m 388 0 l 317 0 q 187 51 232 0 q 142 183 142 103 l 142 603 l 56 603 l 56 679 l 142 679 l 142 893 l 242 893 l 242 679 l 388 679 l 388 603 l 242 603 l 242 186 q 335 86 242 86 l 388 86 l 388 0 m 235 -300 l 126 -300 l 225 -93 l 317 -93 l 235 -300 z "},"Ť":{"ha":761,"x_min":42,"x_max":719,"o":"m 719 894 l 433 894 l 433 0 l 328 0 l 328 894 l 42 894 l 42 989 l 719 989 l 719 894 m 601 1297 l 428 1085 l 333 1085 l 160 1297 l 256 1297 l 381 1151 l 506 1297 l 601 1297 z "},"ť":{"ha":461,"x_min":56,"x_max":493,"o":"m 493 872 l 372 763 l 372 989 l 493 989 l 493 872 m 388 0 l 317 0 q 187 51 232 0 q 142 183 142 103 l 142 603 l 56 603 l 56 679 l 142 679 l 142 893 l 242 893 l 242 679 l 388 679 l 388 603 l 242 603 l 242 186 q 335 86 242 86 l 388 86 l 388 0 z "},"Ū":{"ha":949,"x_min":129,"x_max":819,"o":"m 819 326 q 722 85 819 179 q 474 -8 624 -8 q 226 85 324 -8 q 129 326 129 179 l 129 989 l 235 989 l 235 335 q 300 154 235 222 q 474 86 365 86 q 648 154 582 86 q 714 335 714 222 l 714 989 l 819 989 l 819 326 m 683 1113 l 264 1113 l 264 1192 l 683 1192 l 683 1113 z "},"ū":{"ha":781,"x_min":118,"x_max":656,"o":"m 656 0 l 557 0 l 557 76 q 364 -8 483 -8 q 188 56 251 -8 q 118 247 118 124 l 118 683 l 218 683 l 218 263 q 262 127 218 174 q 385 81 306 81 q 510 128 464 81 q 556 263 556 175 l 556 683 l 656 683 l 656 0 m 600 853 l 181 853 l 181 932 l 600 932 l 600 853 z "},"Ŭ":{"ha":949,"x_min":129,"x_max":819,"o":"m 819 326 q 722 85 819 179 q 474 -8 624 -8 q 226 85 324 -8 q 129 326 129 179 l 129 989 l 235 989 l 235 335 q 300 154 235 222 q 474 86 365 86 q 648 154 582 86 q 714 335 714 222 l 714 989 l 819 989 l 819 326 m 703 1293 q 474 1100 686 1100 q 244 1293 261 1100 l 324 1293 q 370 1209 331 1239 q 474 1179 410 1179 q 577 1209 538 1179 q 624 1293 617 1239 l 703 1293 z "},"ŭ":{"ha":781,"x_min":118,"x_max":656,"o":"m 656 0 l 557 0 l 557 76 q 364 -8 483 -8 q 188 56 251 -8 q 118 247 118 124 l 118 683 l 218 683 l 218 263 q 262 127 218 174 q 385 81 306 81 q 510 128 464 81 q 556 263 556 175 l 556 683 l 656 683 l 656 0 m 614 1017 q 385 824 597 824 q 156 1017 172 824 l 235 1017 q 281 933 242 963 q 385 904 321 904 q 488 933 449 904 q 535 1017 528 963 l 614 1017 z "},"Ů":{"ha":949,"x_min":129,"x_max":819,"o":"m 819 326 q 722 85 819 179 q 474 -8 624 -8 q 226 85 324 -8 q 129 326 129 179 l 129 989 l 235 989 l 235 335 q 300 154 235 222 q 474 86 365 86 q 648 154 582 86 q 714 335 714 222 l 714 989 l 819 989 l 819 326 m 590 1330 q 614 1306 590 1330 q 638 1214 638 1282 q 590 1097 638 1146 q 474 1049 542 1049 q 358 1097 406 1049 q 310 1214 310 1146 q 358 1330 310 1282 q 474 1378 406 1378 q 590 1330 542 1378 m 542 1147 q 556 1161 542 1147 q 569 1214 569 1175 q 542 1281 569 1253 q 474 1308 514 1308 q 406 1281 433 1308 q 378 1214 378 1253 q 406 1147 378 1175 q 474 1118 433 1118 q 542 1147 514 1118 z "},"ů":{"ha":781,"x_min":118,"x_max":656,"o":"m 656 0 l 557 0 l 557 76 q 364 -8 483 -8 q 188 56 251 -8 q 118 247 118 124 l 118 683 l 218 683 l 218 263 q 262 127 218 174 q 385 81 306 81 q 510 128 464 81 q 556 263 556 175 l 556 683 l 656 683 l 656 0 m 506 1070 q 530 1046 506 1070 q 554 954 554 1022 q 506 838 554 886 q 390 789 458 789 q 274 838 322 789 q 226 954 226 886 q 274 1070 226 1022 q 390 1118 322 1118 q 506 1070 458 1118 m 486 954 q 458 1021 486 993 q 390 1049 431 1049 q 322 1021 350 1049 q 294 954 294 993 q 322 886 294 914 q 390 858 350 858 q 458 886 431 858 q 486 954 486 914 z "},"Ű":{"ha":949,"x_min":129,"x_max":819,"o":"m 819 326 q 722 85 819 179 q 474 -8 624 -8 q 226 85 324 -8 q 129 326 129 179 l 129 989 l 235 989 l 235 335 q 300 154 235 222 q 474 86 365 86 q 648 154 582 86 q 714 335 714 222 l 714 989 l 819 989 l 819 326 m 521 1297 l 371 1085 l 279 1085 l 403 1297 l 521 1297 m 747 1297 l 596 1085 l 506 1085 l 629 1297 l 747 1297 z "},"ű":{"ha":781,"x_min":118,"x_max":664,"o":"m 656 0 l 557 0 l 557 76 q 364 -8 483 -8 q 188 56 251 -8 q 118 247 118 124 l 118 683 l 218 683 l 218 263 q 262 127 218 174 q 385 81 306 81 q 510 128 464 81 q 556 263 556 175 l 556 683 l 656 683 l 656 0 m 438 1038 l 288 825 l 196 825 l 319 1038 l 438 1038 m 664 1038 l 513 825 l 422 825 l 546 1038 l 664 1038 z "},"Ų":{"ha":949,"x_min":129,"x_max":819,"o":"m 819 326 q 722 85 819 179 q 474 -8 624 -8 q 226 85 324 -8 q 129 326 129 179 l 129 989 l 235 989 l 235 335 q 300 154 235 222 q 474 86 365 86 q 648 154 582 86 q 714 335 714 222 l 714 989 l 819 989 l 819 326 m 664 -93 l 582 -300 l 472 -300 l 571 -93 l 664 -93 z "},"ų":{"ha":781,"x_min":118,"x_max":656,"o":"m 656 0 l 557 0 l 557 76 q 364 -8 483 -8 q 188 56 251 -8 q 118 247 118 124 l 118 683 l 218 683 l 218 263 q 262 127 218 174 q 385 81 306 81 q 510 128 464 81 q 556 263 556 175 l 556 683 l 656 683 l 656 0 m 650 -93 l 568 -300 l 458 -300 l 557 -93 l 650 -93 z "},"Ÿ":{"ha":714,"x_min":11,"x_max":703,"o":"m 703 989 l 411 408 l 411 0 l 306 0 l 306 408 l 11 989 l 125 989 l 358 515 l 589 989 l 703 989 m 260 1096 l 160 1096 l 160 1219 l 260 1219 l 260 1096 m 554 1096 l 454 1096 l 454 1219 l 554 1219 l 554 1096 z "},"Ź":{"ha":772,"x_min":79,"x_max":693,"o":"m 693 0 l 79 0 l 79 100 l 574 894 l 99 894 l 99 989 l 693 989 l 693 900 l 194 94 l 693 94 l 693 0 m 560 1297 l 410 1085 l 318 1085 l 440 1297 l 560 1297 z "},"ź":{"ha":638,"x_min":69,"x_max":565,"o":"m 565 0 l 69 0 l 69 86 l 450 594 l 90 594 l 90 683 l 565 683 l 565 599 l 183 89 l 565 89 l 565 0 m 493 1038 l 343 825 l 251 825 l 374 1038 l 493 1038 z "},"Ż":{"ha":772,"x_min":79,"x_max":693,"o":"m 693 0 l 79 0 l 79 100 l 574 894 l 99 894 l 99 989 l 693 989 l 693 900 l 194 94 l 693 94 l 693 0 m 442 1103 l 331 1103 l 331 1206 l 442 1206 l 442 1103 z "},"ż":{"ha":638,"x_min":69,"x_max":565,"o":"m 565 0 l 69 0 l 69 86 l 450 594 l 90 594 l 90 683 l 565 683 l 565 599 l 183 89 l 565 89 l 565 0 m 375 881 l 264 881 l 264 983 l 375 983 l 375 881 z "},"Ž":{"ha":772,"x_min":79,"x_max":693,"o":"m 693 0 l 79 0 l 79 100 l 574 894 l 99 894 l 99 989 l 693 989 l 693 900 l 194 94 l 693 94 l 693 0 m 615 1297 l 442 1085 l 347 1085 l 174 1297 l 269 1297 l 394 1151 l 519 1297 l 615 1297 z "},"ž":{"ha":638,"x_min":69,"x_max":565,"o":"m 565 0 l 69 0 l 69 86 l 450 594 l 90 594 l 90 683 l 565 683 l 565 599 l 183 89 l 565 89 l 565 0 m 549 1038 l 375 825 l 281 825 l 107 1038 l 203 1038 l 328 892 l 453 1038 l 549 1038 z "},"ƒ":{"ha":560,"x_min":42,"x_max":518,"o":"m 518 906 l 449 906 q 339 806 357 906 l 292 533 l 438 533 l 438 458 l 278 458 l 143 -306 l 43 -306 l 178 458 l 42 458 l 42 533 l 192 533 l 239 808 q 308 940 253 889 q 446 992 363 992 l 518 992 l 518 906 z "},"Ș":{"ha":817,"x_min":58,"x_max":739,"o":"m 739 272 q 646 67 739 143 q 397 -8 553 -8 q 207 22 286 -8 q 58 122 128 53 l 131 194 q 252 110 190 135 q 400 86 314 86 q 571 135 508 86 q 633 269 633 183 q 586 393 633 351 q 538 423 563 414 q 457 440 513 432 l 342 458 q 160 533 224 478 q 85 718 85 600 q 170 921 85 844 q 401 997 256 997 q 564 972 496 997 q 696 889 632 947 l 628 821 q 397 906 535 906 q 244 856 300 906 q 189 722 189 806 q 233 608 189 647 q 367 554 279 568 l 475 538 q 656 468 596 519 q 739 272 739 397 m 393 -300 l 285 -300 l 383 -93 l 475 -93 l 393 -300 z "},"ș":{"ha":689,"x_min":60,"x_max":618,"o":"m 618 200 q 542 47 618 103 q 340 -8 467 -8 q 60 90 163 -8 l 126 157 q 339 78 201 78 q 473 108 425 78 q 521 199 521 139 q 407 299 521 289 l 294 308 q 90 492 90 325 q 160 638 90 583 q 342 692 231 692 q 588 618 497 692 l 522 553 q 340 607 451 607 q 227 577 267 607 q 188 494 188 547 q 307 394 188 404 l 417 385 q 566 333 514 376 q 618 200 618 290 m 332 -300 l 224 -300 l 322 -93 l 414 -93 l 332 -300 z "},"ȷ":{"ha":351,"x_min":-21,"x_max":225,"o":"m 225 -124 q 181 -256 225 -206 q 51 -307 138 -307 l -21 -307 l -21 -219 l 33 -219 q 104 -195 83 -219 q 125 -119 125 -171 l 125 679 l 225 679 l 225 -124 z "},"ˆ":{"ha":694,"x_min":126,"x_max":568,"o":"m 568 825 l 472 825 l 347 969 l 222 825 l 126 825 l 300 1038 l 394 1038 l 568 825 z "},"ˇ":{"ha":694,"x_min":126,"x_max":568,"o":"m 568 1038 l 394 825 l 300 825 l 126 1038 l 222 1038 l 347 892 l 472 1038 l 568 1038 z "},"˘":{"ha":694,"x_min":118,"x_max":576,"o":"m 576 1017 q 347 824 560 824 q 118 1017 135 824 l 197 1017 q 244 933 204 963 q 347 904 283 904 q 451 933 411 904 q 497 1017 490 963 l 576 1017 z "},"˙":{"ha":694,"x_min":292,"x_max":403,"o":"m 403 881 l 292 881 l 292 983 l 403 983 l 403 881 z "},"˚":{"ha":694,"x_min":183,"x_max":511,"o":"m 463 1070 q 487 1046 463 1070 q 511 954 511 1022 q 463 838 511 886 q 347 789 415 789 q 231 838 279 789 q 183 954 183 886 q 231 1070 183 1022 q 347 1118 279 1118 q 463 1070 415 1118 m 443 954 q 415 1021 443 993 q 347 1049 388 1049 q 279 1021 307 1049 q 251 954 251 993 q 280 886 251 914 q 347 858 308 858 q 415 886 386 858 q 443 954 443 914 z "},"˛":{"ha":694,"x_min":321,"x_max":513,"o":"m 513 -93 l 431 -300 l 321 -300 l 419 -93 l 513 -93 z "},"˜":{"ha":694,"x_min":124,"x_max":565,"o":"m 565 915 q 433 844 494 844 q 335 876 389 844 q 257 906 285 906 q 175 861 219 906 l 124 911 q 256 982 194 982 q 354 949 299 982 q 432 921 399 921 q 514 965 469 921 l 565 915 z "},"˝":{"ha":694,"x_min":153,"x_max":621,"o":"m 394 1038 l 244 825 l 153 825 l 276 1038 l 394 1038 m 621 1038 l 469 825 l 379 825 l 503 1038 l 621 1038 z "},"΄":{"ha":354,"x_min":124,"x_max":229,"o":"m 229 851 l 124 799 l 124 989 l 229 989 l 229 851 z "},"΅":{"ha":678,"x_min":125,"x_max":553,"o":"m 392 851 l 286 799 l 286 989 l 392 989 l 392 851 m 553 818 l 453 818 l 453 943 l 553 943 l 553 818 m 224 818 l 125 818 l 125 943 l 224 943 l 224 818 z "},"Ά":{"ha":849,"x_min":3,"x_max":832,"o":"m 832 0 l 719 0 l 640 224 l 208 224 l 129 0 l 17 0 l 381 989 l 469 989 l 832 0 m 610 315 l 426 838 l 240 315 l 610 315 m 108 851 l 3 799 l 3 989 l 108 989 l 108 851 z "},"·":{"ha":375,"x_min":122,"x_max":253,"o":"m 253 310 l 122 310 l 122 440 l 253 440 l 253 310 z "},"Έ":{"ha":833,"x_min":-81,"x_max":757,"o":"m 757 0 l 143 0 l 143 989 l 757 989 l 757 894 l 249 894 l 249 546 l 682 546 l 682 451 l 249 451 l 249 94 l 757 94 l 757 0 m 25 851 l -81 799 l -81 989 l 25 989 l 25 851 z "},"Ή":{"ha":967,"x_min":-81,"x_max":824,"o":"m 824 0 l 718 0 l 718 451 l 249 451 l 249 0 l 143 0 l 143 989 l 249 989 l 249 546 l 718 546 l 718 989 l 824 989 l 824 0 m 25 851 l -81 799 l -81 989 l 25 989 l 25 851 z "},"Ί":{"ha":392,"x_min":-81,"x_max":249,"o":"m 249 0 l 143 0 l 143 989 l 249 989 l 249 0 m 25 851 l -81 799 l -81 989 l 25 989 l 25 851 z "},"Ό":{"ha":903,"x_min":-53,"x_max":797,"o":"m 783 753 q 790 715 783 753 q 797 494 797 676 q 783 235 797 313 q 704 94 768 158 q 451 -8 601 -8 q 199 94 301 -8 q 120 235 135 158 q 106 494 106 313 q 120 753 106 676 q 199 894 135 831 q 451 997 301 997 q 704 894 601 997 q 783 753 768 831 m 679 267 q 685 300 679 267 q 692 494 692 332 q 679 722 692 657 q 622 832 667 786 q 451 903 554 903 q 281 832 349 903 q 224 722 236 786 q 211 494 211 657 q 224 267 211 332 q 281 157 236 203 q 451 86 349 86 q 622 157 554 86 q 679 267 667 203 m 53 851 l -53 799 l -53 989 l 53 989 l 53 851 z "},"Ύ":{"ha":714,"x_min":-150,"x_max":703,"o":"m 703 989 l 411 408 l 411 0 l 306 0 l 306 408 l 11 989 l 125 989 l 358 515 l 589 989 l 703 989 m -44 851 l -150 799 l -150 989 l -44 989 l -44 851 z "},"Ώ":{"ha":903,"x_min":-53,"x_max":797,"o":"m 797 0 l 526 0 l 526 89 q 654 194 615 131 q 683 297 676 231 q 690 492 690 363 q 678 722 690 656 q 622 832 667 788 q 451 903 551 903 q 281 832 351 903 q 224 720 236 786 q 211 492 211 654 q 249 194 211 254 q 376 89 288 131 l 376 0 l 106 0 l 106 93 l 219 93 q 143 186 169 135 q 117 274 125 221 q 107 364 108 326 q 106 474 106 401 q 106 494 106 488 q 120 753 106 676 q 199 894 135 831 q 451 997 301 997 q 704 894 601 997 q 783 753 768 831 q 797 494 797 676 q 781 244 797 310 q 760 186 772 211 q 682 93 735 136 l 797 93 l 797 0 m 53 851 l -53 799 l -53 989 l 53 989 l 53 851 z "},"ΐ":{"ha":413,"x_min":-39,"x_max":389,"o":"m 368 0 l 296 0 q 166 49 210 0 q 122 182 122 99 l 122 683 l 222 683 l 222 186 q 243 110 222 135 q 314 86 264 86 l 368 86 l 368 0 m 228 851 l 122 799 l 122 989 l 228 989 l 228 851 m 389 818 l 289 818 l 289 943 l 389 943 l 389 818 m 60 818 l -39 818 l -39 943 l 60 943 l 60 818 z "},"Α":{"ha":849,"x_min":17,"x_max":832,"o":"m 832 0 l 719 0 l 640 224 l 208 224 l 129 0 l 17 0 l 381 989 l 469 989 l 832 0 m 610 315 l 426 838 l 240 315 l 610 315 z "},"Β":{"ha":928,"x_min":143,"x_max":822,"o":"m 822 274 q 742 71 822 142 q 528 0 663 0 l 143 0 l 143 989 l 515 989 q 726 918 646 989 q 807 725 807 847 q 766 590 807 649 q 661 508 725 532 q 778 421 735 482 q 822 274 822 360 m 663 144 q 690 168 663 144 q 717 276 717 193 q 663 408 717 360 q 518 457 610 457 l 249 457 l 249 94 l 518 94 q 663 144 610 94 m 647 595 q 674 617 647 595 q 701 724 701 639 q 648 851 701 808 q 507 894 594 894 l 249 894 l 249 551 l 507 551 q 647 595 593 551 z "},"Γ":{"ha":763,"x_min":143,"x_max":735,"o":"m 735 894 l 249 894 l 249 0 l 143 0 l 143 989 l 735 989 l 735 894 z "},"Δ":{"ha":838,"x_min":11,"x_max":825,"o":"m 825 0 l 11 0 l 375 989 l 463 989 l 825 0 m 688 92 l 419 838 l 150 92 l 688 92 z "},"Ε":{"ha":833,"x_min":143,"x_max":757,"o":"m 757 0 l 143 0 l 143 989 l 757 989 l 757 894 l 249 894 l 249 546 l 682 546 l 682 451 l 249 451 l 249 94 l 757 94 l 757 0 z "},"Ζ":{"ha":772,"x_min":79,"x_max":693,"o":"m 693 0 l 79 0 l 79 100 l 574 894 l 99 894 l 99 989 l 693 989 l 693 900 l 194 94 l 693 94 l 693 0 z "},"Η":{"ha":967,"x_min":143,"x_max":824,"o":"m 824 0 l 718 0 l 718 451 l 249 451 l 249 0 l 143 0 l 143 989 l 249 989 l 249 546 l 718 546 l 718 989 l 824 989 l 824 0 z "},"Θ":{"ha":903,"x_min":106,"x_max":797,"o":"m 783 753 q 790 715 783 753 q 797 494 797 676 q 783 235 797 313 q 704 94 768 158 q 451 -8 601 -8 q 199 94 301 -8 q 120 235 135 158 q 106 494 106 313 q 120 753 106 676 q 199 894 135 831 q 451 997 301 997 q 704 894 601 997 q 783 753 768 831 m 692 450 l 211 450 q 226 259 213 318 q 281 157 239 200 q 451 86 349 86 q 622 157 554 86 q 677 259 664 200 q 692 450 690 318 m 692 543 q 677 731 690 672 q 622 832 664 789 q 451 903 554 903 q 281 832 349 903 q 226 731 239 789 q 211 543 213 672 l 692 543 z "},"Ι":{"ha":392,"x_min":143,"x_max":249,"o":"m 249 0 l 143 0 l 143 989 l 249 989 l 249 0 z "},"Κ":{"ha":903,"x_min":143,"x_max":883,"o":"m 883 0 l 758 0 l 457 526 l 249 276 l 249 0 l 143 0 l 143 989 l 249 989 l 249 421 l 710 989 l 839 989 l 528 607 l 883 0 z "},"Λ":{"ha":831,"x_min":42,"x_max":789,"o":"m 789 0 l 678 0 l 417 839 l 153 0 l 42 0 l 367 989 l 464 989 l 789 0 z "},"Μ":{"ha":1133,"x_min":143,"x_max":990,"o":"m 990 0 l 885 0 l 885 751 l 614 156 l 524 156 l 249 751 l 249 0 l 143 0 l 143 989 l 249 989 l 571 288 l 885 989 l 990 989 l 990 0 z "},"Ν":{"ha":1017,"x_min":143,"x_max":874,"o":"m 874 0 l 774 0 l 249 793 l 249 0 l 143 0 l 143 989 l 243 989 l 768 199 l 768 989 l 874 989 l 874 0 z "},"Ξ":{"ha":796,"x_min":76,"x_max":719,"o":"m 719 0 l 76 0 l 76 94 l 344 94 l 344 451 l 151 451 l 151 546 l 344 546 l 344 894 l 76 894 l 76 989 l 719 989 l 719 894 l 450 894 l 450 546 l 644 546 l 644 451 l 450 451 l 450 94 l 719 94 l 719 0 z "},"Ο":{"ha":903,"x_min":106,"x_max":797,"o":"m 783 753 q 790 715 783 753 q 797 494 797 676 q 783 235 797 313 q 704 94 768 158 q 451 -8 601 -8 q 199 94 301 -8 q 120 235 135 158 q 106 494 106 313 q 120 753 106 676 q 199 894 135 831 q 451 997 301 997 q 704 894 601 997 q 783 753 768 831 m 679 267 q 685 300 679 267 q 692 494 692 332 q 679 722 692 657 q 622 832 667 786 q 451 903 554 903 q 281 832 349 903 q 224 722 236 786 q 211 494 211 657 q 224 267 211 332 q 281 157 236 203 q 451 86 349 86 q 622 157 554 86 q 679 267 667 203 z "},"Π":{"ha":946,"x_min":143,"x_max":803,"o":"m 803 0 l 697 0 l 697 894 l 249 894 l 249 0 l 143 0 l 143 989 l 803 989 l 803 0 z "},"Ρ":{"ha":875,"x_min":143,"x_max":817,"o":"m 732 910 q 774 870 732 910 q 817 699 817 831 q 732 487 817 567 q 511 407 647 407 l 249 407 l 249 0 l 143 0 l 143 989 l 511 989 q 732 910 647 989 m 654 552 q 683 577 654 552 q 711 699 711 603 q 654 844 711 794 q 501 894 597 894 l 249 894 l 249 501 l 501 501 q 654 552 597 501 z "},"Σ":{"ha":774,"x_min":79,"x_max":694,"o":"m 694 894 l 224 894 l 457 532 l 194 94 l 693 94 l 693 0 l 79 0 l 79 99 l 339 529 l 100 903 l 100 989 l 694 989 l 694 894 z "},"Τ":{"ha":761,"x_min":42,"x_max":719,"o":"m 719 894 l 433 894 l 433 0 l 328 0 l 328 894 l 42 894 l 42 989 l 719 989 l 719 894 z "},"Υ":{"ha":714,"x_min":11,"x_max":703,"o":"m 703 989 l 411 408 l 411 0 l 306 0 l 306 408 l 11 989 l 125 989 l 358 515 l 589 989 l 703 989 z "},"Φ":{"ha":1017,"x_min":86,"x_max":931,"o":"m 914 680 q 922 643 914 680 q 931 501 931 607 q 914 323 931 396 q 840 193 897 250 q 561 86 733 86 l 561 0 l 456 0 l 456 86 q 176 193 283 86 q 103 323 119 250 q 86 501 86 396 q 103 680 86 607 q 176 810 119 753 q 456 917 283 917 l 456 989 l 561 989 l 561 917 q 840 810 733 917 q 914 680 897 753 m 822 411 q 824 428 822 411 q 825 501 825 444 q 822 592 825 558 q 804 672 819 625 q 760 749 789 718 q 561 822 688 822 l 561 181 q 760 254 690 181 q 804 331 789 285 q 822 411 819 378 m 456 181 l 456 822 q 258 749 331 822 q 203 645 215 704 q 192 501 192 586 q 194 411 192 446 q 213 331 197 376 q 258 254 229 285 q 456 181 328 181 z "},"Χ":{"ha":765,"x_min":21,"x_max":744,"o":"m 744 0 l 622 0 l 382 415 l 140 0 l 21 0 l 324 507 l 40 989 l 163 989 l 382 599 l 601 989 l 724 989 l 439 507 l 744 0 z "},"Ψ":{"ha":938,"x_min":72,"x_max":865,"o":"m 865 514 q 845 388 865 439 q 778 289 825 336 q 525 186 675 186 l 522 186 l 522 0 l 417 0 l 417 186 l 413 186 q 160 289 263 186 q 92 388 113 336 q 72 514 72 439 l 72 989 l 178 989 l 178 514 q 193 420 178 456 q 242 350 208 385 q 413 281 308 281 l 417 281 l 417 989 l 522 989 l 522 281 l 525 281 q 696 350 629 281 q 744 420 729 385 q 760 514 760 456 l 760 989 l 865 989 l 865 514 z "},"Ω":{"ha":903,"x_min":106,"x_max":797,"o":"m 797 0 l 526 0 l 526 89 q 654 194 615 131 q 683 297 676 231 q 690 492 690 363 q 678 722 690 656 q 622 832 667 788 q 451 903 551 903 q 281 832 351 903 q 224 720 236 786 q 211 492 211 654 q 249 194 211 254 q 376 89 288 131 l 376 0 l 106 0 l 106 93 l 219 93 q 143 186 169 135 q 117 274 125 221 q 107 364 108 326 q 106 474 106 401 q 106 494 106 488 q 120 753 106 676 q 199 894 135 831 q 451 997 301 997 q 704 894 601 997 q 783 753 768 831 q 797 494 797 676 q 781 244 797 310 q 760 186 772 211 q 682 93 735 136 l 797 93 l 797 0 z "},"Ϊ":{"ha":392,"x_min":1,"x_max":396,"o":"m 249 0 l 143 0 l 143 989 l 249 989 l 249 0 m 396 1096 l 296 1096 l 296 1219 l 396 1219 l 396 1096 m 101 1096 l 1 1096 l 1 1219 l 101 1219 l 101 1096 z "},"Ϋ":{"ha":714,"x_min":11,"x_max":703,"o":"m 703 989 l 411 408 l 411 0 l 306 0 l 306 408 l 11 989 l 125 989 l 358 515 l 589 989 l 703 989 m 554 1096 l 454 1096 l 454 1219 l 554 1219 l 554 1096 m 260 1096 l 160 1096 l 160 1219 l 260 1219 l 260 1096 z "},"ά":{"ha":757,"x_min":89,"x_max":632,"o":"m 632 0 l 533 0 l 533 82 q 339 -8 463 -8 q 172 51 232 -8 q 89 342 89 135 q 172 632 89 549 q 339 692 232 692 q 447 673 401 692 q 532 604 492 654 l 532 683 l 632 683 l 632 0 m 526 243 q 529 264 526 243 q 532 342 532 285 q 526 440 532 399 q 503 522 519 482 q 450 582 486 561 q 361 603 414 603 q 272 582 308 603 q 219 522 236 561 q 195 440 201 482 q 189 342 189 399 q 195 243 189 285 q 219 162 201 201 q 272 101 236 122 q 361 81 308 81 q 450 101 414 81 q 503 162 486 122 q 526 243 519 201 m 422 851 l 317 799 l 317 989 l 422 989 l 422 851 z "},"έ":{"ha":685,"x_min":86,"x_max":625,"o":"m 625 101 q 333 -8 508 -8 q 158 43 229 -8 q 86 189 86 94 q 197 350 86 304 q 99 499 99 389 q 171 640 99 588 q 342 692 243 692 q 490 669 431 692 q 608 593 550 647 l 546 526 q 346 607 457 607 q 246 576 290 607 q 201 496 201 544 q 234 417 201 446 q 328 388 267 388 l 449 388 l 449 308 l 331 308 q 223 276 256 308 q 190 193 190 243 q 233 110 190 143 q 338 78 275 78 q 556 163 464 78 l 625 101 m 408 851 l 303 799 l 303 989 l 408 989 l 408 851 z "},"ή":{"ha":781,"x_min":125,"x_max":663,"o":"m 663 0 l 563 0 l 563 421 q 518 556 563 510 q 394 603 474 603 q 270 556 315 603 q 225 421 225 508 l 225 0 l 125 0 l 125 683 l 225 683 l 225 608 q 417 692 297 692 q 592 628 528 692 q 663 438 663 558 l 663 0 m 450 851 l 344 799 l 344 989 l 450 989 l 450 851 z "},"ί":{"ha":413,"x_min":122,"x_max":368,"o":"m 368 0 l 296 0 q 166 49 210 0 q 122 182 122 99 l 122 683 l 222 683 l 222 186 q 243 110 222 135 q 314 86 264 86 l 368 86 l 368 0 m 228 851 l 122 799 l 122 989 l 228 989 l 228 851 z "},"ΰ":{"ha":724,"x_min":94,"x_max":629,"o":"m 629 340 q 615 184 629 249 q 550 69 600 119 q 361 -8 472 -8 q 174 69 251 -8 q 109 184 124 119 q 94 340 94 249 l 94 683 l 193 683 l 193 340 q 193 326 193 336 q 194 255 193 281 q 208 192 196 229 q 242 133 219 156 q 361 81 294 81 q 481 133 428 81 q 517 200 506 158 q 528 263 528 242 q 529 340 529 283 l 529 683 l 629 683 l 629 340 m 414 851 l 308 799 l 308 989 l 414 989 l 414 851 m 575 818 l 475 818 l 475 943 l 575 943 l 575 818 m 246 818 l 147 818 l 147 943 l 246 943 l 246 818 z "},"α":{"ha":757,"x_min":89,"x_max":632,"o":"m 632 0 l 533 0 l 533 82 q 339 -8 463 -8 q 172 51 232 -8 q 89 342 89 135 q 172 632 89 549 q 339 692 232 692 q 447 673 401 692 q 532 604 492 654 l 532 683 l 632 683 l 632 0 m 526 243 q 529 264 526 243 q 532 342 532 285 q 526 440 532 399 q 503 522 519 482 q 450 582 486 561 q 361 603 414 603 q 272 582 308 603 q 219 522 236 561 q 195 440 201 482 q 189 342 189 399 q 195 243 189 285 q 219 162 201 201 q 272 101 236 122 q 361 81 308 81 q 450 101 414 81 q 503 162 486 122 q 526 243 519 201 z "},"β":{"ha":768,"x_min":125,"x_max":701,"o":"m 701 281 q 626 78 701 164 q 442 -8 550 -8 q 317 10 368 -8 q 224 82 267 29 l 224 0 l 125 0 l 125 740 q 199 919 125 849 q 390 989 274 989 q 579 928 508 989 q 650 753 650 867 q 617 617 650 678 q 515 536 585 556 q 701 281 701 506 m 604 285 q 586 389 604 347 q 534 451 568 431 q 464 478 500 471 q 378 485 428 485 l 296 485 l 296 564 l 381 564 q 554 739 554 564 q 510 866 554 825 q 393 907 465 907 q 267 854 310 907 q 225 714 225 801 l 225 285 q 272 138 225 199 q 411 78 318 78 q 556 140 507 78 q 604 285 604 201 z "},"γ":{"ha":621,"x_min":17,"x_max":604,"o":"m 604 683 l 360 7 l 360 -306 l 261 -306 l 261 7 l 17 683 l 124 683 l 311 131 l 497 683 l 604 683 z "},"δ":{"ha":738,"x_min":89,"x_max":649,"o":"m 649 351 q 563 67 649 154 q 367 -8 490 -8 q 175 67 247 -8 q 89 342 89 154 q 172 604 89 519 q 353 678 243 678 q 432 663 400 678 l 164 906 l 164 989 l 589 989 l 589 906 l 288 906 l 507 703 q 618 542 588 628 q 649 351 649 457 m 547 342 q 496 546 547 488 q 372 600 449 600 q 244 549 293 600 q 189 342 189 492 q 242 135 189 192 q 368 81 292 81 q 496 133 447 81 q 547 342 547 189 z "},"ε":{"ha":685,"x_min":86,"x_max":625,"o":"m 625 101 q 333 -8 508 -8 q 158 43 229 -8 q 86 189 86 94 q 197 350 86 304 q 99 499 99 389 q 171 640 99 588 q 342 692 243 692 q 490 669 431 692 q 608 593 550 647 l 546 526 q 346 607 457 607 q 246 576 290 607 q 201 496 201 544 q 234 417 201 446 q 328 388 267 388 l 449 388 l 449 308 l 331 308 q 223 276 256 308 q 190 193 190 243 q 233 110 190 143 q 338 78 275 78 q 556 163 464 78 l 625 101 z "},"ζ":{"ha":653,"x_min":72,"x_max":603,"o":"m 603 -62 q 558 -177 603 -132 q 413 -222 513 -222 l 413 -144 q 513 -69 513 -144 q 488 -16 513 -32 q 408 0 463 0 l 342 0 q 138 41 203 0 q 72 182 72 82 q 165 368 72 290 q 436 594 399 572 l 114 594 l 114 683 l 590 683 l 590 594 l 379 419 q 319 371 358 403 q 267 327 281 339 q 231 293 254 315 q 199 257 207 271 q 185 224 192 243 q 178 183 178 204 q 222 111 178 131 q 358 92 265 92 l 413 92 q 551 54 499 92 q 603 -62 603 17 z "},"η":{"ha":781,"x_min":125,"x_max":663,"o":"m 663 0 l 563 0 l 563 421 q 518 556 563 510 q 394 603 474 603 q 270 556 315 603 q 225 421 225 508 l 225 0 l 125 0 l 125 683 l 225 683 l 225 608 q 417 692 297 692 q 592 628 528 692 q 663 438 663 558 l 663 0 z "},"θ":{"ha":767,"x_min":97,"x_max":669,"o":"m 669 494 q 653 228 669 306 q 575 69 631 126 q 383 -8 497 -8 q 193 69 271 -8 q 138 151 158 104 q 108 263 117 199 q 99 365 100 326 q 97 475 97 404 q 97 494 97 488 q 97 514 97 501 q 99 624 97 583 q 108 726 100 664 q 138 837 117 789 q 193 919 158 885 q 383 997 271 997 q 575 919 497 997 q 642 797 619 875 q 667 665 664 718 q 669 519 669 613 q 669 494 669 503 m 569 481 l 196 481 q 197 355 196 399 q 215 237 199 311 q 264 131 232 163 q 383 79 315 79 q 503 131 451 79 q 549 229 533 161 q 567 343 565 297 q 569 465 569 389 q 569 481 569 475 m 569 568 q 503 858 567 794 q 383 908 453 908 q 264 858 314 908 q 197 568 200 794 l 569 568 z "},"ι":{"ha":413,"x_min":122,"x_max":368,"o":"m 368 0 l 296 0 q 166 49 210 0 q 122 182 122 99 l 122 683 l 222 683 l 222 186 q 243 110 222 135 q 314 86 264 86 l 368 86 l 368 0 z "},"κ":{"ha":744,"x_min":125,"x_max":699,"o":"m 699 0 l 575 0 l 358 350 l 225 199 l 225 0 l 125 0 l 125 683 l 225 683 l 225 328 l 533 683 l 657 683 l 426 422 l 699 0 z "},"λ":{"ha":665,"x_min":22,"x_max":676,"o":"m 676 0 l 638 0 q 518 43 565 0 q 468 128 486 74 l 333 547 l 332 546 l 131 0 l 22 0 l 288 671 l 236 833 q 201 891 222 876 q 136 906 181 906 l 111 906 l 111 992 l 143 992 q 255 965 213 992 q 319 871 297 938 l 551 167 q 644 86 578 86 l 676 86 l 676 0 z "},"μ":{"ha":779,"x_min":115,"x_max":654,"o":"m 654 0 l 554 0 l 554 76 q 363 -8 481 -8 q 215 43 271 -8 l 215 -306 l 115 -306 l 115 683 l 215 683 l 215 263 q 260 127 215 174 q 383 81 304 81 q 508 128 463 81 q 554 263 554 175 l 554 683 l 654 683 l 654 0 z "},"ν":{"ha":621,"x_min":17,"x_max":604,"o":"m 604 683 l 354 0 l 267 0 l 17 683 l 124 683 l 311 135 l 497 683 l 604 683 z "},"ξ":{"ha":683,"x_min":83,"x_max":656,"o":"m 656 854 l 592 792 q 397 886 501 886 q 272 840 318 886 q 225 713 225 793 q 394 556 225 556 l 561 556 l 561 468 l 397 468 q 253 417 318 468 q 188 269 188 365 q 246 133 188 176 q 396 89 304 89 l 469 89 q 589 51 542 89 q 636 -62 636 13 q 591 -177 636 -132 q 446 -222 546 -222 l 446 -144 q 544 -69 544 -144 q 519 -16 544 -32 q 442 0 494 0 l 365 0 q 163 74 243 0 q 83 265 83 147 q 131 425 83 358 q 256 515 178 492 q 159 588 196 533 q 122 713 122 642 q 199 899 122 826 q 397 972 276 972 q 656 854 549 972 z "},"ο":{"ha":736,"x_min":89,"x_max":647,"o":"m 564 614 q 647 342 647 529 q 564 69 647 154 q 368 -8 486 -8 q 172 69 250 -8 q 89 342 89 154 q 172 614 89 529 q 368 692 250 692 q 564 614 486 692 m 493 131 q 547 342 547 185 q 493 553 547 499 q 368 603 443 603 q 244 553 294 603 q 189 342 189 497 q 244 131 189 186 q 368 81 294 81 q 493 131 443 81 z "},"π":{"ha":821,"x_min":140,"x_max":681,"o":"m 681 0 l 585 0 l 585 593 l 238 593 l 238 0 l 140 0 l 140 683 l 681 683 l 681 0 z "},"ρ":{"ha":718,"x_min":89,"x_max":629,"o":"m 629 340 q 538 51 629 139 q 369 -8 475 -8 q 189 78 267 -8 l 189 -306 l 89 -306 l 89 382 q 169 618 89 538 q 357 692 243 692 q 560 604 488 692 q 629 340 629 519 m 529 342 q 488 546 529 489 q 358 601 446 601 q 238 549 279 601 q 189 346 189 489 q 224 153 189 208 q 358 82 269 82 q 447 103 411 82 q 499 165 482 125 q 523 247 517 206 q 529 342 529 288 z "},"ς":{"ha":681,"x_min":88,"x_max":615,"o":"m 615 590 l 547 526 q 474 586 508 569 q 390 603 439 603 q 232 525 286 603 q 188 342 188 463 q 231 168 188 231 q 401 90 283 93 q 607 -62 607 88 q 561 -177 607 -132 q 415 -222 515 -222 l 415 -144 q 515 -69 515 -144 q 485 -12 515 -25 q 400 0 454 0 q 171 88 254 1 q 88 342 88 175 q 171 601 88 511 q 390 692 254 692 q 513 669 463 692 q 615 590 564 647 z "},"σ":{"ha":758,"x_min":89,"x_max":675,"o":"m 675 594 l 550 594 q 647 342 647 526 q 629 184 647 247 q 565 72 611 121 q 367 -8 488 -8 q 169 72 247 -8 q 89 342 89 157 q 106 498 89 436 q 169 607 124 560 q 367 683 243 683 l 675 683 l 675 594 m 549 342 q 496 544 549 485 q 367 597 447 597 q 240 543 290 597 q 189 342 189 485 q 239 136 189 193 q 367 81 290 81 q 496 136 444 81 q 549 342 549 196 z "},"τ":{"ha":525,"x_min":44,"x_max":481,"o":"m 481 594 l 313 594 l 313 0 l 213 0 l 213 594 l 44 594 l 44 683 l 481 683 l 481 594 z "},"υ":{"ha":724,"x_min":94,"x_max":629,"o":"m 629 340 q 615 184 629 249 q 550 69 600 119 q 361 -8 472 -8 q 174 69 251 -8 q 109 184 124 119 q 94 340 94 249 l 94 683 l 193 683 l 193 340 q 193 326 193 336 q 194 255 193 281 q 208 192 196 229 q 242 133 219 156 q 361 81 294 81 q 481 133 428 81 q 517 200 506 158 q 528 263 528 242 q 529 340 529 283 l 529 683 l 629 683 l 629 340 z "},"φ":{"ha":915,"x_min":89,"x_max":826,"o":"m 826 347 q 755 81 826 171 q 507 -8 683 -8 l 507 -306 l 407 -306 l 407 -8 q 89 344 89 -4 q 269 682 89 586 l 300 599 q 189 340 189 528 q 197 244 189 285 q 226 164 204 203 q 294 104 249 125 q 407 81 339 83 l 407 683 l 522 683 q 755 601 683 683 q 826 347 826 518 m 725 351 q 718 451 725 413 q 689 526 711 490 q 622 578 667 561 q 507 594 578 594 l 507 81 q 625 103 579 82 q 692 165 671 124 q 719 246 713 206 q 725 351 725 286 z "},"χ":{"ha":664,"x_min":46,"x_max":618,"o":"m 618 0 l 497 0 l 333 265 l 167 0 l 46 0 l 278 349 l 56 683 l 176 683 l 333 431 l 488 683 l 608 683 l 386 349 l 618 0 z "},"ψ":{"ha":890,"x_min":94,"x_max":796,"o":"m 796 342 q 726 83 796 169 q 494 -7 657 -3 l 494 -306 l 393 -306 l 393 -7 q 163 83 231 -3 q 94 342 94 168 l 94 683 l 194 683 l 194 342 q 235 149 194 208 q 393 85 275 89 l 393 683 l 494 683 l 494 85 q 654 149 614 89 q 694 342 694 208 l 694 683 l 796 683 l 796 342 z "},"ω":{"ha":1004,"x_min":89,"x_max":915,"o":"m 915 336 q 867 93 915 178 q 678 -8 808 -8 q 569 28 614 -8 q 501 121 524 64 q 434 28 479 64 q 326 -8 389 -8 q 138 93 196 -8 q 89 336 89 178 q 107 483 89 410 q 158 596 125 557 q 336 692 235 686 l 336 600 q 274 575 304 597 q 226 526 243 553 q 196 452 204 490 q 188 336 188 414 q 221 143 188 203 q 326 81 257 81 q 440 190 411 81 q 451 326 451 238 l 451 501 l 553 501 l 553 326 q 563 190 553 232 q 678 81 588 81 q 783 143 747 81 q 815 336 815 200 q 807 453 815 415 q 778 526 799 490 q 731 575 763 553 q 667 600 699 597 l 667 692 q 844 596 768 686 q 897 483 878 557 q 915 336 915 408 z "},"ϊ":{"ha":413,"x_min":-21,"x_max":374,"o":"m 368 0 l 296 0 q 166 49 210 0 q 122 182 122 99 l 122 683 l 222 683 l 222 186 q 243 110 222 135 q 314 86 264 86 l 368 86 l 368 0 m 374 836 l 274 836 l 274 960 l 374 960 l 374 836 m 79 836 l -21 836 l -21 960 l 79 960 l 79 836 z "},"ϋ":{"ha":724,"x_min":94,"x_max":629,"o":"m 629 340 q 615 184 629 249 q 550 69 600 119 q 361 -8 472 -8 q 174 69 251 -8 q 109 184 124 119 q 94 340 94 249 l 94 683 l 193 683 l 193 340 q 193 326 193 336 q 194 255 193 281 q 208 192 196 229 q 242 133 219 156 q 361 81 294 81 q 481 133 428 81 q 517 200 506 158 q 528 263 528 242 q 529 340 529 283 l 529 683 l 629 683 l 629 340 m 565 836 l 465 836 l 465 960 l 565 960 l 565 836 m 271 836 l 171 836 l 171 960 l 271 960 l 271 836 z "},"ό":{"ha":736,"x_min":89,"x_max":647,"o":"m 564 614 q 647 342 647 529 q 564 69 647 154 q 368 -8 486 -8 q 172 69 250 -8 q 89 342 89 154 q 172 614 89 529 q 368 692 250 692 q 564 614 486 692 m 493 131 q 547 342 547 185 q 493 553 547 499 q 368 603 443 603 q 244 553 294 603 q 189 342 189 497 q 244 131 189 186 q 368 81 294 81 q 493 131 443 81 m 422 851 l 317 799 l 317 989 l 422 989 l 422 851 z "},"ύ":{"ha":724,"x_min":94,"x_max":629,"o":"m 629 340 q 615 184 629 249 q 550 69 600 119 q 361 -8 472 -8 q 174 69 251 -8 q 109 184 124 119 q 94 340 94 249 l 94 683 l 193 683 l 193 340 q 193 326 193 336 q 194 255 193 281 q 208 192 196 229 q 242 133 219 156 q 361 81 294 81 q 481 133 428 81 q 517 200 506 158 q 528 263 528 242 q 529 340 529 283 l 529 683 l 629 683 l 629 340 m 408 851 l 303 799 l 303 989 l 408 989 l 408 851 z "},"ώ":{"ha":1004,"x_min":89,"x_max":915,"o":"m 915 336 q 867 93 915 178 q 678 -8 808 -8 q 569 28 614 -8 q 501 121 524 64 q 434 28 479 64 q 326 -8 389 -8 q 138 93 196 -8 q 89 336 89 178 q 107 483 89 410 q 158 596 125 557 q 336 692 235 686 l 336 600 q 274 575 304 597 q 226 526 243 553 q 196 452 204 490 q 188 336 188 414 q 221 143 188 203 q 326 81 257 81 q 440 190 411 81 q 451 326 451 238 l 451 501 l 553 501 l 553 326 q 563 190 553 232 q 678 81 588 81 q 783 143 747 81 q 815 336 815 200 q 807 453 815 415 q 778 526 799 490 q 731 575 763 553 q 667 600 699 597 l 667 692 q 844 596 768 686 q 897 483 878 557 q 915 336 915 408 m 547 851 l 442 799 l 442 989 l 547 989 l 547 851 z "},"ϐ":{"ha":768,"x_min":125,"x_max":701,"o":"m 701 281 q 626 78 701 164 q 442 -8 550 -8 q 318 10 368 -8 q 225 81 268 28 l 225 -306 l 125 -306 l 125 740 q 199 919 125 849 q 390 989 274 989 q 579 928 508 989 q 650 753 650 867 q 617 617 650 678 q 515 536 585 556 q 701 281 701 506 m 604 285 q 586 389 604 347 q 534 451 568 431 q 464 478 500 471 q 378 485 428 485 l 296 485 l 296 564 l 381 564 q 554 739 554 564 q 510 866 554 825 q 393 907 465 907 q 267 854 310 907 q 225 714 225 801 l 225 285 q 272 138 225 199 q 411 78 318 78 q 556 140 507 78 q 604 285 604 201 z "},"Ё":{"ha":833,"x_min":143,"x_max":757,"o":"m 757 0 l 143 0 l 143 989 l 757 989 l 757 894 l 249 894 l 249 546 l 682 546 l 682 451 l 249 451 l 249 94 l 757 94 l 757 0 m 632 1096 l 532 1096 l 532 1219 l 632 1219 l 632 1096 m 338 1096 l 238 1096 l 238 1219 l 338 1219 l 338 1096 z "},"Ђ":{"ha":1033,"x_min":36,"x_max":911,"o":"m 385 511 l 385 0 l 279 0 l 279 894 l 36 894 l 36 989 l 713 989 l 713 894 l 385 894 l 385 604 l 607 604 q 828 525 744 604 q 911 315 911 446 l 911 289 q 828 79 911 158 q 607 0 744 0 l 550 0 l 550 92 l 596 92 q 750 144 694 92 q 806 289 806 196 l 806 315 q 750 460 806 408 q 596 511 694 511 l 385 511 z "},"Ѓ":{"ha":790,"x_min":153,"x_max":747,"o":"m 747 894 l 258 894 l 258 0 l 153 0 l 153 989 l 747 989 l 747 894 m 613 1297 l 463 1085 l 371 1085 l 493 1297 l 613 1297 z "},"Є":{"ha":885,"x_min":106,"x_max":794,"o":"m 690 286 l 794 286 q 677 69 769 147 q 451 -8 585 -8 q 199 94 301 -8 q 120 235 135 158 q 106 494 106 313 q 120 753 106 676 q 199 894 135 831 q 451 997 301 997 q 678 919 586 997 q 794 703 769 842 l 688 703 q 606 850 668 796 q 451 904 543 904 q 279 833 350 904 q 224 732 238 790 q 211 544 211 674 l 585 544 l 585 451 l 210 451 q 224 257 211 317 q 279 156 238 197 q 451 85 350 85 q 606 139 543 85 q 690 286 669 193 z "},"Ѕ":{"ha":817,"x_min":58,"x_max":739,"o":"m 739 272 q 646 67 739 143 q 397 -8 553 -8 q 207 22 286 -8 q 58 122 128 53 l 131 194 q 252 110 190 135 q 400 86 314 86 q 571 135 508 86 q 633 269 633 183 q 586 393 633 351 q 538 423 563 414 q 457 440 513 432 l 342 458 q 160 533 224 478 q 85 718 85 600 q 170 921 85 844 q 401 997 256 997 q 564 972 496 997 q 696 889 632 947 l 628 821 q 397 906 535 906 q 244 856 300 906 q 189 722 189 806 q 233 608 189 647 q 367 554 279 568 l 475 538 q 656 468 596 519 q 739 272 739 397 z "},"І":{"ha":392,"x_min":143,"x_max":249,"o":"m 249 0 l 143 0 l 143 989 l 249 989 l 249 0 z "},"Ї":{"ha":392,"x_min":0,"x_max":394,"o":"m 249 0 l 143 0 l 143 989 l 249 989 l 249 0 m 394 1096 l 294 1096 l 294 1219 l 394 1219 l 394 1096 m 100 1096 l 0 1096 l 0 1219 l 100 1219 l 100 1096 z "},"Ј":{"ha":696,"x_min":32,"x_max":567,"o":"m 567 300 q 481 75 567 158 q 258 -8 396 -8 q 32 81 121 -8 l 103 151 q 169 103 135 119 q 258 86 203 86 q 408 145 356 86 q 461 314 461 204 l 461 989 l 567 989 l 567 300 z "},"Љ":{"ha":1424,"x_min":17,"x_max":1368,"o":"m 1207 146 q 1235 172 1207 146 q 1263 290 1263 197 q 1207 435 1263 383 q 1053 488 1151 488 l 797 488 l 797 94 l 1053 94 q 1207 146 1151 94 m 253 989 l 797 989 l 797 582 l 1064 582 q 1285 502 1201 582 q 1368 290 1368 422 q 1285 80 1368 160 q 1064 0 1201 0 l 692 0 l 692 894 l 356 894 l 356 556 q 285 126 356 253 q 67 0 214 0 l 17 0 l 17 94 l 43 94 q 128 115 93 94 q 193 186 164 135 q 238 338 222 238 q 253 588 253 438 l 253 989 z "},"Њ":{"ha":1449,"x_min":143,"x_max":1393,"o":"m 1393 290 q 1310 80 1393 160 q 1089 0 1226 0 l 717 0 l 717 488 l 249 488 l 249 0 l 143 0 l 143 989 l 249 989 l 249 582 l 717 582 l 717 989 l 822 989 l 822 582 l 1089 582 q 1310 502 1226 582 q 1393 290 1393 422 m 1232 146 q 1260 172 1232 146 q 1288 290 1288 197 q 1232 435 1288 383 q 1078 488 1176 488 l 822 488 l 822 94 l 1078 94 q 1232 146 1176 94 z "},"Ћ":{"ha":1033,"x_min":36,"x_max":911,"o":"m 911 0 l 806 0 l 806 315 q 750 460 806 408 q 596 511 694 511 l 385 511 l 385 0 l 279 0 l 279 894 l 36 894 l 36 989 l 713 989 l 713 894 l 385 894 l 385 604 l 607 604 q 828 525 744 604 q 911 315 911 446 l 911 0 z "},"Ќ":{"ha":847,"x_min":149,"x_max":849,"o":"m 254 0 l 149 0 l 149 989 l 254 989 l 254 518 l 678 989 l 811 989 l 378 519 l 849 0 l 708 0 l 254 515 l 254 0 m 629 1297 l 479 1085 l 388 1085 l 510 1297 l 629 1297 z "},"Ў":{"ha":758,"x_min":14,"x_max":746,"o":"m 596 1226 q 393 1051 585 1051 q 190 1226 201 1051 l 279 1226 q 393 1124 288 1124 q 507 1226 499 1124 l 596 1226 m 746 989 l 388 154 q 193 0 321 0 l 107 0 l 107 94 l 169 94 q 249 117 219 94 q 300 193 278 140 l 340 286 l 14 989 l 126 989 l 393 404 l 633 989 l 746 989 z "},"Џ":{"ha":967,"x_min":143,"x_max":822,"o":"m 822 0 l 536 0 l 536 -239 l 432 -239 l 432 0 l 143 0 l 143 989 l 249 989 l 249 94 l 717 94 l 717 989 l 822 989 l 822 0 z "},"А":{"ha":849,"x_min":17,"x_max":832,"o":"m 832 0 l 719 0 l 640 224 l 208 224 l 129 0 l 17 0 l 381 989 l 469 989 l 832 0 m 610 315 l 426 838 l 240 315 l 610 315 z "},"Б":{"ha":911,"x_min":143,"x_max":821,"o":"m 821 290 q 738 80 821 160 q 517 0 654 0 l 143 0 l 143 989 l 760 989 l 760 894 l 249 894 l 249 582 l 517 582 q 738 502 654 582 q 821 290 821 422 m 660 146 q 688 172 660 146 q 715 290 715 197 q 660 435 715 383 q 507 488 606 488 l 249 488 l 249 94 l 507 94 q 660 146 606 94 z "},"В":{"ha":928,"x_min":143,"x_max":822,"o":"m 822 271 q 744 72 822 144 q 528 0 665 0 l 143 0 l 143 989 l 515 989 q 726 917 646 989 q 807 729 807 846 q 735 554 807 622 q 661 508 711 531 q 749 454 719 483 q 822 271 822 383 m 650 597 q 676 620 650 597 q 701 724 701 643 q 650 849 701 804 q 507 894 599 894 l 249 894 l 249 551 l 507 551 q 650 597 599 551 m 663 144 q 690 168 663 144 q 717 276 717 193 q 663 408 717 360 q 518 457 610 457 l 249 457 l 249 94 l 518 94 q 663 144 610 94 z "},"Г":{"ha":790,"x_min":153,"x_max":747,"o":"m 747 894 l 258 894 l 258 0 l 153 0 l 153 989 l 747 989 l 747 894 z "},"Д":{"ha":964,"x_min":36,"x_max":907,"o":"m 36 94 l 124 94 q 249 656 249 290 l 249 989 l 789 989 l 789 94 l 907 94 l 907 -239 l 803 -239 l 803 0 l 140 0 l 140 -239 l 36 -239 l 36 94 m 242 94 l 683 94 l 683 894 l 349 894 l 349 590 q 242 94 349 282 z "},"Е":{"ha":833,"x_min":143,"x_max":757,"o":"m 757 0 l 143 0 l 143 989 l 757 989 l 757 894 l 249 894 l 249 546 l 682 546 l 682 451 l 249 451 l 249 94 l 757 94 l 757 0 z "},"Ж":{"ha":1250,"x_min":-1,"x_max":1251,"o":"m 138 0 l -1 0 l 451 519 l 35 989 l 168 989 l 572 518 l 572 989 l 678 989 l 678 518 l 1081 989 l 1214 989 l 799 519 l 1251 0 l 1113 0 l 678 515 l 678 0 l 572 0 l 572 515 l 138 0 z "},"З":{"ha":856,"x_min":85,"x_max":750,"o":"m 421 -8 q 199 70 290 -8 q 85 286 108 149 l 189 286 q 272 139 208 193 q 426 85 335 85 q 583 136 522 85 q 644 275 644 188 q 443 460 644 460 l 318 460 l 318 551 l 447 551 q 581 598 533 551 q 629 731 629 644 q 575 860 629 814 q 428 906 521 906 q 274 851 336 906 q 192 703 213 796 l 86 703 q 201 919 110 842 q 429 997 293 997 q 649 926 564 997 q 735 735 735 854 q 592 510 735 575 q 750 272 750 451 q 657 69 750 146 q 421 -8 564 -8 z "},"И":{"ha":994,"x_min":143,"x_max":851,"o":"m 851 0 l 746 0 l 746 807 l 243 0 l 143 0 l 143 989 l 249 989 l 249 183 l 751 989 l 851 989 l 851 0 z "},"Й":{"ha":994,"x_min":143,"x_max":851,"o":"m 851 0 l 746 0 l 746 807 l 243 0 l 143 0 l 143 989 l 249 989 l 249 183 l 751 989 l 851 989 l 851 0 m 700 1226 q 497 1051 689 1051 q 294 1226 306 1051 l 383 1226 q 497 1124 392 1124 q 611 1226 603 1124 l 700 1226 z "},"К":{"ha":847,"x_min":149,"x_max":849,"o":"m 254 0 l 149 0 l 149 989 l 254 989 l 254 518 l 678 989 l 811 989 l 378 519 l 849 0 l 708 0 l 254 515 l 254 0 z "},"Л":{"ha":940,"x_min":17,"x_max":797,"o":"m 797 0 l 692 0 l 692 894 l 356 894 l 356 556 q 285 126 356 253 q 67 0 214 0 l 17 0 l 17 94 l 43 94 q 128 115 93 94 q 193 186 164 135 q 238 338 222 238 q 253 588 253 438 l 253 989 l 797 989 l 797 0 z "},"М":{"ha":1133,"x_min":143,"x_max":990,"o":"m 990 0 l 885 0 l 885 751 l 614 156 l 524 156 l 249 751 l 249 0 l 143 0 l 143 989 l 249 989 l 571 288 l 885 989 l 990 989 l 990 0 z "},"Н":{"ha":967,"x_min":143,"x_max":824,"o":"m 824 0 l 718 0 l 718 451 l 249 451 l 249 0 l 143 0 l 143 989 l 249 989 l 249 546 l 718 546 l 718 989 l 824 989 l 824 0 z "},"О":{"ha":903,"x_min":106,"x_max":797,"o":"m 797 563 l 797 494 q 782 240 797 322 q 704 94 767 157 q 451 -8 601 -8 q 199 94 301 -8 q 121 240 136 157 q 106 494 106 322 l 106 571 q 124 759 106 681 q 199 894 142 838 q 451 997 301 997 q 704 894 601 997 q 780 756 763 836 q 797 563 797 676 m 692 446 l 692 547 q 679 722 692 656 q 622 832 667 788 q 451 903 551 903 q 281 832 351 903 q 231 747 247 799 q 213 653 215 694 q 211 524 211 611 l 211 425 q 224 264 211 328 q 281 157 238 200 q 451 86 351 86 q 622 157 551 86 q 670 240 654 189 q 689 332 686 292 q 692 446 692 372 z "},"П":{"ha":967,"x_min":143,"x_max":822,"o":"m 822 0 l 717 0 l 717 894 l 249 894 l 249 0 l 143 0 l 143 989 l 822 989 l 822 0 z "},"Р":{"ha":875,"x_min":143,"x_max":817,"o":"m 817 699 q 733 487 817 567 q 511 407 649 407 l 249 407 l 249 0 l 143 0 l 143 989 l 511 989 q 733 909 649 989 q 817 699 817 829 m 656 553 q 683 580 656 553 q 711 699 711 606 q 656 843 711 792 q 501 894 600 894 l 249 894 l 249 501 l 501 501 q 656 553 600 501 z "},"С":{"ha":885,"x_min":106,"x_max":794,"o":"m 794 286 q 678 70 771 149 q 451 -8 585 -8 q 199 94 301 -8 q 120 235 135 158 q 106 494 106 313 q 120 753 106 676 q 199 894 135 831 q 451 997 301 997 q 678 919 586 997 q 794 703 769 842 l 686 703 q 605 849 667 794 q 451 903 543 903 q 281 833 347 903 q 224 722 236 788 q 211 494 211 657 q 224 267 211 332 q 281 156 236 201 q 451 86 347 86 q 606 140 543 86 q 689 286 669 194 l 794 286 z "},"Т":{"ha":761,"x_min":42,"x_max":719,"o":"m 719 894 l 433 894 l 433 0 l 328 0 l 328 894 l 42 894 l 42 989 l 719 989 l 719 894 z "},"У":{"ha":758,"x_min":14,"x_max":746,"o":"m 746 989 l 388 154 q 193 0 321 0 l 107 0 l 107 94 l 169 94 q 249 117 219 94 q 300 193 278 140 l 340 286 l 14 989 l 126 989 l 393 404 l 633 989 l 746 989 z "},"Ф":{"ha":1082,"x_min":76,"x_max":1006,"o":"m 594 842 l 594 213 q 830 295 760 217 q 900 526 900 374 q 832 759 900 681 q 594 842 764 838 m 489 213 l 489 842 q 250 759 318 838 q 182 526 182 681 q 252 295 182 374 q 489 213 322 217 m 594 -6 l 489 -6 l 489 122 q 175 231 274 129 q 76 531 76 333 q 176 826 76 726 q 489 932 276 925 l 489 1025 l 594 1025 l 594 932 q 906 826 807 925 q 1006 531 1006 726 q 907 231 1006 332 q 594 122 808 129 l 594 -6 z "},"Х":{"ha":765,"x_min":21,"x_max":744,"o":"m 744 0 l 622 0 l 382 415 l 140 0 l 21 0 l 324 507 l 40 989 l 163 989 l 382 599 l 601 989 l 724 989 l 439 507 l 744 0 z "},"Ц":{"ha":997,"x_min":143,"x_max":940,"o":"m 940 -239 l 836 -239 l 836 0 l 143 0 l 143 989 l 249 989 l 249 94 l 717 94 l 717 989 l 822 989 l 822 94 l 940 94 l 940 -239 z "},"Ч":{"ha":896,"x_min":106,"x_max":753,"o":"m 753 0 l 647 0 l 647 404 q 368 367 464 367 q 180 426 254 367 q 106 614 106 485 l 106 989 l 211 989 l 211 633 q 394 461 211 461 q 647 496 474 461 l 647 989 l 753 989 l 753 0 z "},"Ш":{"ha":1385,"x_min":143,"x_max":1242,"o":"m 1242 0 l 143 0 l 143 989 l 249 989 l 249 94 l 639 94 l 639 989 l 746 989 l 746 94 l 1136 94 l 1136 989 l 1242 989 l 1242 0 z "},"Щ":{"ha":1415,"x_min":143,"x_max":1358,"o":"m 1358 -239 l 1254 -239 l 1254 0 l 143 0 l 143 989 l 249 989 l 249 94 l 639 94 l 639 989 l 746 989 l 746 94 l 1136 94 l 1136 989 l 1242 989 l 1242 94 l 1358 94 l 1358 -239 z "},"Ъ":{"ha":1010,"x_min":42,"x_max":954,"o":"m 954 290 q 871 80 954 160 q 650 0 788 0 l 278 0 l 278 894 l 42 894 l 42 989 l 385 989 l 385 582 l 650 582 q 871 502 788 582 q 954 290 954 422 m 794 146 q 821 172 794 146 q 849 290 849 197 q 794 435 849 383 q 640 488 739 488 l 385 488 l 385 94 l 640 94 q 794 146 739 94 z "},"Ы":{"ha":1200,"x_min":143,"x_max":1057,"o":"m 1057 0 l 951 0 l 951 989 l 1057 989 l 1057 0 m 819 290 q 735 80 819 160 q 514 0 651 0 l 143 0 l 143 989 l 249 989 l 249 582 l 514 582 q 736 502 653 582 q 819 290 819 422 m 658 146 q 685 172 658 146 q 713 290 713 197 q 658 435 713 383 q 504 488 603 488 l 249 488 l 249 94 l 504 94 q 658 146 603 94 z "},"Ь":{"ha":875,"x_min":143,"x_max":819,"o":"m 819 290 q 735 80 819 160 q 514 0 651 0 l 143 0 l 143 989 l 249 989 l 249 582 l 514 582 q 736 502 653 582 q 819 290 819 422 m 658 146 q 685 172 658 146 q 713 290 713 197 q 658 435 713 383 q 504 488 603 488 l 249 488 l 249 94 l 504 94 q 658 146 603 94 z "},"Э":{"ha":885,"x_min":90,"x_max":779,"o":"m 90 286 l 194 286 q 278 139 215 193 q 433 85 342 85 q 606 156 535 85 q 660 257 647 197 q 675 451 674 317 l 300 451 l 300 544 l 674 544 q 660 732 674 674 q 606 833 647 790 q 433 904 535 904 q 279 850 342 904 q 197 703 217 796 l 90 703 q 207 919 115 842 q 433 997 299 997 q 686 894 583 997 q 765 753 750 831 q 779 494 779 676 q 765 235 779 313 q 686 94 750 158 q 433 -8 583 -8 q 208 69 300 -8 q 90 286 115 147 z "},"Ю":{"ha":1254,"x_min":143,"x_max":1150,"o":"m 1150 494 q 1134 235 1150 314 q 1057 94 1118 157 q 804 -8 954 -8 q 551 94 654 -8 q 476 229 493 154 q 458 451 458 304 l 249 451 l 249 0 l 143 0 l 143 989 l 249 989 l 249 546 l 458 546 q 476 760 460 686 q 551 894 492 835 q 804 997 654 997 q 1057 894 954 997 q 1131 764 1111 839 q 1150 583 1150 689 l 1150 494 m 1043 478 l 1043 521 q 1030 728 1043 665 q 975 833 1017 790 q 804 903 906 903 q 633 833 700 903 q 576 719 589 789 q 564 503 564 650 l 564 454 q 578 260 564 321 q 633 157 593 200 q 804 86 704 86 q 975 157 907 86 q 1023 242 1007 190 q 1041 338 1039 293 q 1043 478 1043 382 z "},"Я":{"ha":910,"x_min":78,"x_max":767,"o":"m 417 407 l 201 0 l 78 0 l 306 422 q 150 519 207 446 q 93 699 93 593 q 177 910 93 831 q 399 989 261 989 l 767 989 l 767 0 l 661 0 l 661 407 l 417 407 m 661 501 l 661 896 l 408 896 q 254 844 310 896 q 199 699 199 792 q 254 553 199 606 q 408 501 310 501 l 661 501 z "},"а":{"ha":731,"x_min":71,"x_max":613,"o":"m 613 0 l 513 0 l 513 65 q 435 10 468 24 q 314 -8 393 -8 q 133 43 196 -8 q 71 193 71 94 q 133 338 71 286 q 307 390 196 390 l 513 390 l 513 456 q 469 569 513 533 q 333 606 426 606 q 228 585 269 606 q 165 528 197 571 l 97 590 q 183 664 144 644 q 336 692 239 692 q 613 464 613 692 l 613 0 m 513 242 l 513 315 l 321 315 q 168 194 168 315 q 208 106 168 133 q 333 78 247 78 q 471 116 429 78 q 513 242 513 154 z "},"б":{"ha":740,"x_min":99,"x_max":654,"o":"m 379 81 q 501 131 454 81 q 556 336 556 189 q 503 550 556 496 q 379 603 453 603 q 254 550 304 603 q 197 339 197 489 q 256 131 197 192 q 379 81 303 81 m 379 -8 q 218 40 285 -8 q 124 174 151 88 q 99 476 99 253 q 115 764 99 686 q 194 900 132 842 q 260 946 224 928 q 345 973 296 964 q 426 985 394 982 q 520 992 457 989 q 603 996 583 994 l 603 906 q 503 899 592 904 q 358 881 414 894 q 265 838 301 868 q 205 740 221 799 q 189 586 189 681 q 271 660 214 632 q 394 688 328 688 q 565 626 500 688 q 654 343 654 543 q 571 67 654 150 q 379 -8 499 -8 z "},"в":{"ha":749,"x_min":126,"x_max":656,"o":"m 656 189 q 601 51 656 101 q 451 0 547 0 l 126 0 l 126 683 l 443 683 q 589 634 533 683 q 644 504 644 585 q 536 354 644 393 q 656 189 656 310 m 546 496 q 425 597 546 597 l 225 597 l 225 393 l 425 393 q 546 496 546 393 m 524 117 q 541 132 524 117 q 557 199 557 147 q 524 281 557 250 q 433 311 492 311 l 225 311 l 225 86 l 433 86 q 524 117 492 86 z "},"г":{"ha":579,"x_min":131,"x_max":564,"o":"m 564 597 l 231 597 l 231 0 l 131 0 l 131 683 l 564 683 l 564 597 z "},"д":{"ha":772,"x_min":25,"x_max":726,"o":"m 726 -204 l 629 -204 l 629 0 l 121 0 l 121 -204 l 25 -204 l 25 86 l 106 86 q 174 286 151 189 q 196 553 196 383 l 196 683 l 625 683 l 625 86 l 726 86 l 726 -204 m 525 86 l 525 597 l 292 597 l 292 468 q 214 86 290 260 l 525 86 z "},"е":{"ha":736,"x_min":88,"x_max":649,"o":"m 649 315 l 188 315 q 208 192 192 233 q 394 79 256 79 q 482 96 439 79 q 568 157 521 113 l 636 97 q 521 15 574 36 q 389 -8 463 -8 q 164 82 240 -8 q 88 346 88 172 q 163 599 88 507 q 368 692 238 692 q 574 603 499 692 q 649 361 649 514 l 649 315 m 549 390 q 536 481 546 453 q 474 574 518 540 q 368 607 429 607 q 272 580 314 607 q 208 504 229 553 q 188 390 190 465 l 549 390 z "},"ж":{"ha":993,"x_min":8,"x_max":985,"o":"m 135 0 l 8 0 l 329 361 l 36 683 l 158 683 l 447 356 l 447 683 l 546 683 l 546 356 l 836 683 l 957 683 l 664 361 l 985 0 l 858 0 l 546 353 l 546 0 l 447 0 l 447 353 l 135 0 z "},"з":{"ha":669,"x_min":44,"x_max":576,"o":"m 576 193 q 501 48 576 103 q 318 -7 425 -7 q 44 90 151 -7 l 107 156 q 198 97 153 114 q 307 79 243 79 q 426 112 374 79 q 479 197 479 144 q 441 282 479 253 q 339 311 403 311 l 239 311 l 239 394 l 340 394 q 433 424 397 394 q 468 504 468 453 q 427 582 468 556 q 314 608 386 608 q 131 551 213 608 l 74 618 q 324 692 175 692 q 497 642 429 692 q 565 507 565 593 q 537 414 565 456 q 457 354 508 372 q 544 294 511 338 q 576 193 576 251 z "},"и":{"ha":801,"x_min":126,"x_max":676,"o":"m 676 0 l 576 0 l 576 529 l 225 0 l 126 0 l 126 683 l 225 683 l 225 157 l 576 683 l 676 683 l 676 0 z "},"й":{"ha":801,"x_min":126,"x_max":676,"o":"m 604 978 q 401 803 593 803 q 199 978 210 803 l 288 978 q 401 874 296 874 q 515 978 507 874 l 604 978 m 676 0 l 576 0 l 576 529 l 225 0 l 126 0 l 126 683 l 225 683 l 225 157 l 576 683 l 676 683 l 676 0 z "},"к":{"ha":692,"x_min":131,"x_max":683,"o":"m 231 0 l 131 0 l 131 683 l 231 683 l 231 356 l 532 683 l 656 683 l 349 361 l 683 0 l 554 0 l 231 353 l 231 0 z "},"л":{"ha":758,"x_min":29,"x_max":633,"o":"m 633 0 l 533 0 l 533 597 l 292 597 l 292 361 q 235 80 292 160 q 75 0 178 0 l 29 0 l 29 86 l 51 86 q 90 90 74 86 q 128 112 107 94 q 163 160 150 129 q 186 249 176 190 q 196 390 196 308 l 196 683 l 633 683 l 633 0 z "},"м":{"ha":911,"x_min":126,"x_max":785,"o":"m 785 0 l 685 0 l 685 486 l 494 108 l 418 108 l 225 486 l 225 0 l 126 0 l 126 683 l 225 683 l 457 224 l 686 683 l 785 683 l 785 0 z "},"н":{"ha":781,"x_min":126,"x_max":656,"o":"m 656 0 l 556 0 l 556 310 l 225 310 l 225 0 l 126 0 l 126 683 l 225 683 l 225 396 l 556 396 l 556 683 l 656 683 l 656 0 z "},"о":{"ha":736,"x_min":89,"x_max":647,"o":"m 647 346 q 564 69 647 154 q 368 -8 486 -8 q 172 69 250 -8 q 89 342 89 154 q 172 614 89 529 q 368 692 250 692 q 564 614 486 692 q 647 346 647 531 m 547 338 q 535 474 547 425 q 493 553 524 522 q 368 603 446 603 q 244 553 292 603 q 189 342 189 497 q 244 131 189 188 q 368 81 292 81 q 493 131 446 81 q 547 338 547 186 z "},"п":{"ha":781,"x_min":126,"x_max":656,"o":"m 656 0 l 556 0 l 556 597 l 225 597 l 225 0 l 126 0 l 126 683 l 656 683 l 656 0 z "},"р":{"ha":757,"x_min":125,"x_max":668,"o":"m 668 340 q 606 77 668 163 q 414 -8 544 -8 q 304 14 350 -8 q 225 81 267 32 l 225 -306 l 125 -306 l 125 683 l 225 683 l 225 603 q 303 669 265 650 q 413 692 347 692 q 606 607 544 692 q 668 340 668 522 m 568 340 q 528 542 568 481 q 396 603 488 603 q 266 540 307 603 q 225 342 225 478 q 266 142 225 204 q 397 81 307 81 q 528 142 488 81 q 568 340 568 204 z "},"с":{"ha":681,"x_min":88,"x_max":615,"o":"m 615 93 q 510 13 558 33 q 394 -8 460 -8 q 169 85 251 -8 q 88 342 88 178 q 169 599 88 506 q 394 692 251 692 q 510 671 460 692 q 615 590 558 650 l 547 526 q 469 588 501 574 q 393 603 435 603 q 188 342 188 603 q 392 81 188 81 q 467 94 435 81 q 547 158 500 110 l 615 93 z "},"т":{"ha":588,"x_min":15,"x_max":574,"o":"m 574 597 l 350 597 l 350 0 l 250 0 l 250 597 l 15 597 l 15 683 l 574 683 l 574 597 z "},"у":{"ha":621,"x_min":15,"x_max":606,"o":"m 606 683 l 294 -165 q 113 -293 247 -293 l 69 -293 l 69 -204 l 100 -204 q 172 -187 149 -204 q 213 -119 194 -171 l 261 14 l 15 683 l 124 683 l 311 135 l 497 683 l 606 683 z "},"ф":{"ha":958,"x_min":83,"x_max":875,"o":"m 785 596 q 830 552 785 596 q 875 343 875 508 q 785 89 875 178 q 529 -8 694 0 l 529 -306 l 429 -306 l 429 -8 q 174 89 264 0 q 83 343 83 178 q 174 596 83 508 q 429 692 264 683 l 429 989 l 529 989 l 529 692 q 785 596 694 683 m 775 342 q 528 603 775 594 l 528 81 q 712 153 649 83 q 775 342 775 222 m 431 81 l 431 603 q 244 529 304 599 q 183 342 183 460 q 247 153 183 222 q 431 81 310 83 z "},"х":{"ha":664,"x_min":46,"x_max":618,"o":"m 618 0 l 497 0 l 333 265 l 167 0 l 46 0 l 278 349 l 56 683 l 176 683 l 333 431 l 488 683 l 608 683 l 386 349 l 618 0 z "},"ц":{"ha":804,"x_min":126,"x_max":758,"o":"m 758 -204 l 661 -204 l 661 0 l 126 0 l 126 683 l 225 683 l 225 86 l 556 86 l 556 683 l 656 683 l 656 86 l 758 86 l 758 -204 z "},"ч":{"ha":726,"x_min":97,"x_max":601,"o":"m 601 0 l 501 0 l 501 267 q 296 240 379 240 q 150 289 203 240 q 97 435 97 338 l 97 683 l 197 683 l 197 453 q 226 359 197 388 q 315 331 256 331 q 501 353 393 331 l 501 683 l 601 683 l 601 0 z "},"ш":{"ha":1113,"x_min":126,"x_max":986,"o":"m 986 0 l 126 0 l 126 683 l 225 683 l 225 86 l 506 86 l 506 683 l 606 683 l 606 86 l 886 86 l 886 683 l 986 683 l 986 0 z "},"щ":{"ha":1133,"x_min":126,"x_max":1089,"o":"m 1089 -204 l 992 -204 l 992 0 l 126 0 l 126 683 l 225 683 l 225 86 l 506 86 l 506 683 l 606 683 l 606 86 l 886 86 l 886 683 l 986 683 l 986 86 l 1089 86 l 1089 -204 z "},"ъ":{"ha":782,"x_min":15,"x_max":726,"o":"m 667 356 q 697 327 667 356 q 726 206 726 299 q 667 56 726 113 q 510 0 607 0 l 206 0 l 206 597 l 15 597 l 15 683 l 304 683 l 304 413 l 510 413 q 667 356 608 413 m 594 117 q 610 133 594 117 q 626 206 626 149 q 594 294 626 263 q 499 325 561 325 l 304 325 l 304 86 l 499 86 q 594 117 561 86 z "},"ы":{"ha":997,"x_min":126,"x_max":857,"o":"m 857 0 l 757 0 l 757 683 l 857 683 l 857 0 m 588 356 q 618 327 588 356 q 647 206 647 299 q 588 56 647 113 q 431 0 528 0 l 126 0 l 126 683 l 225 683 l 225 413 l 431 413 q 588 356 529 413 m 515 117 q 531 133 515 117 q 547 206 547 149 q 515 294 547 263 q 419 325 482 325 l 225 325 l 225 86 l 419 86 q 515 117 482 86 z "},"ь":{"ha":703,"x_min":126,"x_max":647,"o":"m 588 356 q 618 327 588 356 q 647 206 647 299 q 588 56 647 113 q 431 0 528 0 l 126 0 l 126 683 l 225 683 l 225 413 l 431 413 q 588 356 529 413 m 515 117 q 531 133 515 117 q 547 206 547 149 q 515 294 547 263 q 419 325 482 325 l 225 325 l 225 86 l 419 86 q 515 117 482 86 z "},"э":{"ha":681,"x_min":65,"x_max":592,"o":"m 592 343 q 511 85 592 178 q 286 -8 431 -8 q 166 15 214 -8 q 65 93 118 38 l 132 157 q 205 97 171 115 q 289 79 239 79 q 440 145 390 79 q 493 315 490 211 l 213 315 l 213 390 l 492 390 q 433 546 485 488 q 288 604 382 604 q 205 585 239 604 q 132 526 171 567 l 65 590 q 166 669 118 646 q 286 692 214 692 q 510 599 429 692 q 592 343 592 507 z "},"ю":{"ha":1011,"x_min":126,"x_max":922,"o":"m 922 346 q 839 69 922 153 q 643 -8 764 -8 q 456 63 529 -8 q 365 308 369 143 l 225 308 l 225 0 l 126 0 l 126 683 l 225 683 l 225 393 l 365 393 q 454 621 374 544 q 643 692 529 692 q 851 600 776 692 q 922 346 922 513 m 822 340 q 769 550 822 492 q 643 603 724 603 q 517 550 563 603 q 464 343 464 493 q 475 213 464 260 q 515 135 486 167 q 643 81 565 81 q 771 135 721 81 q 822 340 822 192 z "},"я":{"ha":732,"x_min":79,"x_max":606,"o":"m 507 350 l 507 601 l 314 601 q 213 569 249 601 q 178 475 178 536 q 213 383 178 415 q 314 350 249 350 l 507 350 m 194 0 l 79 0 l 239 281 q 122 349 165 296 q 79 479 79 401 q 138 627 79 571 q 294 683 197 683 l 606 683 l 606 0 l 507 0 l 507 268 l 343 268 l 194 0 z "},"ё":{"ha":736,"x_min":88,"x_max":649,"o":"m 649 315 l 188 315 q 208 192 192 233 q 394 79 256 79 q 482 96 439 79 q 568 157 521 113 l 636 97 q 521 15 574 36 q 389 -8 463 -8 q 164 82 240 -8 q 88 346 88 172 q 163 599 88 507 q 368 692 238 692 q 574 603 499 692 q 649 361 649 514 l 649 315 m 549 390 q 536 481 546 453 q 474 574 518 540 q 368 607 429 607 q 272 580 314 607 q 208 504 229 553 q 188 390 190 465 l 549 390 m 569 836 l 469 836 l 469 960 l 569 960 l 569 836 m 275 836 l 175 836 l 175 960 l 275 960 l 275 836 z "},"ђ":{"ha":781,"x_min":46,"x_max":663,"o":"m 663 -97 q 612 -248 663 -189 q 460 -307 561 -307 l 393 -307 l 393 -221 l 443 -221 q 531 -185 499 -221 q 563 -93 563 -149 l 563 414 q 401 596 563 596 q 273 547 321 596 q 225 414 225 499 l 225 0 l 126 0 l 126 781 l 46 781 l 46 856 l 126 856 l 126 989 l 225 989 l 225 856 l 569 856 l 569 781 l 225 781 l 225 600 q 424 685 310 685 q 599 617 536 685 q 663 431 663 549 l 663 -97 z "},"ѓ":{"ha":579,"x_min":131,"x_max":564,"o":"m 564 597 l 231 597 l 231 0 l 131 0 l 131 683 l 564 683 l 564 597 m 479 1038 l 329 825 l 238 825 l 360 1038 l 479 1038 z "},"є":{"ha":681,"x_min":88,"x_max":615,"o":"m 615 93 q 515 15 563 38 q 393 -8 467 -8 q 168 85 249 -8 q 88 343 88 178 q 169 599 88 507 q 393 692 250 692 q 514 669 467 692 q 615 590 561 646 l 549 526 q 474 586 508 568 q 392 604 440 604 q 247 546 297 604 q 189 390 196 488 l 479 390 l 479 315 l 188 315 q 240 144 190 210 q 392 79 289 79 q 476 97 442 79 q 549 157 510 115 l 615 93 z "},"ѕ":{"ha":689,"x_min":60,"x_max":618,"o":"m 618 200 q 542 47 618 103 q 340 -8 467 -8 q 60 90 163 -8 l 126 157 q 339 78 201 78 q 473 108 425 78 q 521 199 521 139 q 407 299 521 289 l 294 308 q 90 492 90 325 q 160 638 90 583 q 342 692 231 692 q 588 618 497 692 l 522 553 q 340 607 451 607 q 227 577 267 607 q 188 494 188 547 q 307 394 188 404 l 417 385 q 566 333 514 376 q 618 200 618 290 z "},"і":{"ha":351,"x_min":119,"x_max":232,"o":"m 232 878 l 119 878 l 119 990 l 232 990 l 232 878 m 225 0 l 125 0 l 125 683 l 225 683 l 225 0 z "},"ї":{"ha":351,"x_min":-21,"x_max":374,"o":"m 225 0 l 125 0 l 125 683 l 225 683 l 225 0 m 374 836 l 274 836 l 274 960 l 374 960 l 374 836 m 79 836 l -21 836 l -21 960 l 79 960 l 79 836 z "},"ј":{"ha":351,"x_min":-21,"x_max":232,"o":"m 232 878 l 119 878 l 119 990 l 232 990 l 232 878 m 225 -124 q 181 -256 225 -206 q 51 -307 138 -307 l -21 -307 l -21 -219 l 33 -219 q 104 -195 83 -219 q 125 -119 125 -171 l 125 679 l 225 679 l 225 -124 z "},"љ":{"ha":1113,"x_min":29,"x_max":1057,"o":"m 924 117 q 941 133 924 117 q 957 206 957 149 q 924 294 957 263 q 829 325 892 325 l 635 325 l 635 86 l 829 86 q 924 117 892 86 m 196 683 l 635 683 l 635 413 l 840 413 q 998 356 939 413 q 1057 206 1057 299 q 997 56 1057 113 q 840 0 938 0 l 536 0 l 536 597 l 292 597 l 292 361 q 235 80 292 160 q 75 0 178 0 l 29 0 l 29 86 l 51 86 q 90 90 74 86 q 128 112 107 94 q 163 160 150 129 q 186 249 176 190 q 196 390 196 308 l 196 683 z "},"њ":{"ha":1133,"x_min":126,"x_max":1078,"o":"m 1019 356 q 1048 327 1019 356 q 1078 206 1078 299 q 1018 56 1078 113 q 861 0 958 0 l 556 0 l 556 325 l 225 325 l 225 0 l 126 0 l 126 683 l 225 683 l 225 413 l 556 413 l 556 683 l 656 683 l 656 413 l 861 413 q 1019 356 960 413 m 945 117 q 961 133 945 117 q 978 206 978 149 q 945 294 978 263 q 850 325 913 325 l 656 325 l 656 86 l 850 86 q 945 117 913 86 z "},"ћ":{"ha":781,"x_min":46,"x_max":663,"o":"m 663 0 l 563 0 l 563 414 q 519 549 563 501 q 396 596 476 596 q 270 548 315 596 q 225 414 225 500 l 225 0 l 126 0 l 126 781 l 46 781 l 46 856 l 126 856 l 126 989 l 225 989 l 225 856 l 569 856 l 569 781 l 225 781 l 225 600 q 314 665 271 644 q 418 685 357 685 q 597 616 531 685 q 663 431 663 547 l 663 0 z "},"ќ":{"ha":692,"x_min":131,"x_max":683,"o":"m 231 0 l 131 0 l 131 683 l 231 683 l 231 356 l 532 683 l 656 683 l 349 361 l 683 0 l 554 0 l 231 353 l 231 0 m 538 1038 l 388 825 l 296 825 l 418 1038 l 538 1038 z "},"ў":{"ha":621,"x_min":15,"x_max":606,"o":"m 514 978 q 311 803 503 803 q 108 978 119 803 l 197 978 q 311 874 206 874 q 425 978 417 874 l 514 978 m 606 683 l 294 -165 q 113 -293 247 -293 l 69 -293 l 69 -204 l 100 -204 q 172 -187 149 -204 q 213 -119 194 -171 l 261 14 l 15 683 l 124 683 l 311 135 l 497 683 l 606 683 z "},"џ":{"ha":782,"x_min":126,"x_max":656,"o":"m 656 0 l 439 0 l 439 -204 l 342 -204 l 342 0 l 126 0 l 126 683 l 225 683 l 225 86 l 556 86 l 556 683 l 656 683 l 656 0 z "},"Ґ":{"ha":790,"x_min":153,"x_max":747,"o":"m 747 894 l 258 894 l 258 0 l 153 0 l 153 989 l 643 989 l 643 1228 l 747 1228 l 747 894 z "},"ґ":{"ha":579,"x_min":131,"x_max":564,"o":"m 564 597 l 231 597 l 231 0 l 131 0 l 131 683 l 467 683 l 467 881 l 564 881 l 564 597 z "},"–":{"ha":725,"x_min":72,"x_max":653,"o":"m 653 328 l 72 328 l 72 421 l 653 421 l 653 328 z "},"—":{"ha":1269,"x_min":106,"x_max":1164,"o":"m 1164 328 l 106 328 l 106 422 l 1164 422 l 1164 328 z "},"―":{"ha":1269,"x_min":106,"x_max":1164,"o":"m 1164 328 l 106 328 l 106 422 l 1164 422 l 1164 328 z "},"‘":{"ha":365,"x_min":122,"x_max":243,"o":"m 243 872 l 122 872 l 122 989 l 243 1099 l 243 872 z "},"’":{"ha":365,"x_min":122,"x_max":243,"o":"m 243 872 l 122 763 l 122 989 l 243 989 l 243 872 z "},"‚":{"ha":365,"x_min":122,"x_max":243,"o":"m 243 0 l 122 -110 l 122 117 l 243 117 l 243 0 z "},"“":{"ha":603,"x_min":122,"x_max":481,"o":"m 481 872 l 358 872 l 358 989 l 481 1099 l 481 872 m 243 872 l 122 872 l 122 989 l 243 1099 l 243 872 z "},"”":{"ha":603,"x_min":122,"x_max":481,"o":"m 481 872 l 358 763 l 358 989 l 481 989 l 481 872 m 243 872 l 122 763 l 122 989 l 243 989 l 243 872 z "},"„":{"ha":603,"x_min":122,"x_max":481,"o":"m 481 0 l 358 -110 l 358 117 l 481 117 l 481 0 m 243 0 l 122 -110 l 122 117 l 243 117 l 243 0 z "},"†":{"ha":840,"x_min":103,"x_max":738,"o":"m 738 618 l 468 618 l 468 0 l 368 0 l 368 618 l 103 618 l 103 707 l 368 707 l 368 989 l 468 989 l 468 707 l 738 707 l 738 618 z "},"‡":{"ha":840,"x_min":103,"x_max":738,"o":"m 738 -22 l 468 -22 l 468 -306 l 368 -306 l 368 -22 l 103 -22 l 103 67 l 368 67 l 368 618 l 103 618 l 103 707 l 368 707 l 368 989 l 468 989 l 468 707 l 738 707 l 738 618 l 468 618 l 468 67 l 738 67 l 738 -22 z "},"•":{"ha":739,"x_min":143,"x_max":596,"o":"m 530 624 q 563 591 530 624 q 596 464 596 558 q 530 303 596 369 q 369 238 464 238 q 209 303 275 238 q 143 464 143 369 q 209 624 143 558 q 369 690 275 690 q 530 624 464 690 z "},"…":{"ha":1051,"x_min":122,"x_max":929,"o":"m 929 0 l 801 0 l 801 128 l 929 128 l 929 0 m 250 0 l 122 0 l 122 128 l 250 128 l 250 0 m 589 0 l 461 0 l 461 128 l 589 128 l 589 0 z "},"‰":{"ha":1638,"x_min":90,"x_max":1549,"o":"m 1549 178 q 1496 42 1549 93 q 1361 -10 1443 -10 q 1226 42 1279 -10 q 1174 178 1174 93 l 1174 324 q 1226 460 1174 408 q 1361 511 1279 511 q 1496 460 1443 511 q 1549 324 1549 408 l 1549 178 m 1068 178 q 1015 42 1068 93 q 881 -10 963 -10 q 746 42 799 -10 q 693 178 693 93 l 693 324 q 746 460 693 408 q 881 511 799 511 q 1015 460 963 511 q 1068 324 1068 408 l 1068 178 m 465 665 q 413 531 465 582 q 278 479 360 479 q 143 531 196 479 q 90 665 90 582 l 90 811 q 143 947 90 896 q 278 999 196 999 q 413 947 360 999 q 465 811 465 896 l 465 665 m 853 989 l 389 0 l 306 0 l 769 989 l 853 989 m 989 181 l 989 321 q 881 442 989 442 q 772 321 772 442 l 772 181 q 881 60 772 60 q 989 181 989 60 m 1469 181 l 1469 321 q 1361 442 1469 442 q 1253 321 1253 442 l 1253 181 q 1361 60 1253 60 q 1469 181 1469 60 m 386 668 l 386 808 q 278 929 386 929 q 169 808 169 929 l 169 668 q 278 549 169 549 q 386 668 386 549 z "},"‹":{"ha":456,"x_min":56,"x_max":347,"o":"m 347 81 l 56 372 l 347 664 l 347 539 l 181 372 l 347 204 l 347 81 z "},"›":{"ha":456,"x_min":108,"x_max":400,"o":"m 400 372 l 108 81 l 108 204 l 276 372 l 108 539 l 108 664 l 400 372 z "},"⁄":{"ha":257,"x_min":-144,"x_max":401,"o":"m 401 989 l -61 0 l -144 0 l 318 989 l 401 989 z "},"€":{"ha":942,"x_min":65,"x_max":844,"o":"m 844 286 q 727 69 819 147 q 501 -8 635 -8 q 250 94 353 -8 q 181 204 200 144 q 158 361 163 264 l 65 361 l 65 431 l 157 431 l 157 567 l 65 567 l 65 635 l 158 635 q 182 787 163 728 q 250 894 201 846 q 501 997 353 997 q 728 919 636 997 q 844 703 819 842 l 738 703 q 656 849 718 794 q 501 903 593 903 q 331 833 400 903 q 283 756 297 799 q 265 635 269 713 l 569 635 l 569 567 l 263 567 l 263 431 l 569 431 l 569 361 l 265 361 q 282 235 268 279 q 331 156 296 190 q 501 86 400 86 q 657 140 593 86 q 740 286 721 194 l 844 286 z "},"№":{"ha":1315,"x_min":113,"x_max":1238,"o":"m 768 0 l 675 0 l 211 797 l 211 0 l 113 0 l 113 989 l 206 989 l 669 193 l 669 989 l 768 989 l 768 0 m 1233 374 l 860 374 l 860 453 l 1233 453 l 1233 374 m 1121 611 q 1153 751 1153 642 q 1121 892 1153 861 q 1049 921 1094 921 q 975 892 1004 921 q 943 751 943 860 q 975 611 943 643 q 1049 582 1004 582 q 1121 611 1094 582 m 1181 943 q 1238 750 1238 886 q 1181 557 1238 614 q 1049 506 1132 506 q 915 557 967 506 q 858 750 858 614 q 915 943 858 886 q 1049 994 967 994 q 1181 943 1132 994 z "},"™":{"ha":1165,"x_min":50,"x_max":1085,"o":"m 1085 396 l 1006 396 l 1006 824 l 864 543 l 786 543 l 644 824 l 644 396 l 564 396 l 564 989 l 644 989 l 825 629 l 1006 989 l 1085 989 l 1085 396 m 460 915 l 294 915 l 294 396 l 214 396 l 214 915 l 50 915 l 50 989 l 460 989 l 460 915 z "},"Ω":{"ha":903,"x_min":106,"x_max":797,"o":"m 797 0 l 526 0 l 526 89 q 654 194 615 131 q 683 297 676 231 q 690 492 690 363 q 678 722 690 656 q 622 832 667 788 q 451 903 551 903 q 281 832 351 903 q 224 720 236 786 q 211 492 211 654 q 249 194 211 254 q 376 89 288 131 l 376 0 l 106 0 l 106 93 l 219 93 q 143 186 169 135 q 117 274 125 221 q 107 364 108 326 q 106 474 106 401 q 106 494 106 488 q 120 753 106 676 q 199 894 135 831 q 451 997 301 997 q 704 894 601 997 q 783 753 768 831 q 797 494 797 676 q 781 244 797 310 q 760 186 772 211 q 682 93 735 136 l 797 93 l 797 0 z "},"←":{"ha":1426,"x_min":78,"x_max":1351,"o":"m 632 -181 l 78 374 l 632 928 l 763 928 l 256 422 l 1351 422 l 1351 325 l 256 325 l 763 -181 l 632 -181 z "},"↑":{"ha":1426,"x_min":160,"x_max":1268,"o":"m 160 456 l 714 1010 l 1268 456 l 1268 325 l 763 832 l 763 -264 l 665 -264 l 665 832 l 160 325 l 160 456 z "},"→":{"ha":1426,"x_min":78,"x_max":1351,"o":"m 667 -181 l 1174 325 l 78 325 l 78 422 l 1174 422 l 667 928 l 797 928 l 1351 374 l 797 -181 l 667 -181 z "},"↓":{"ha":1426,"x_min":160,"x_max":1268,"o":"m 1268 289 l 714 -265 l 160 289 l 160 419 l 665 -87 l 665 1008 l 763 1008 l 763 -87 l 1268 419 l 1268 289 z "},"↖":{"ha":1426,"x_min":263,"x_max":1199,"o":"m 263 39 l 263 824 l 1047 824 l 1139 732 l 424 732 l 1199 -43 l 1129 -112 l 356 663 l 356 -53 l 263 39 z "},"↗":{"ha":1426,"x_min":263,"x_max":1199,"o":"m 414 824 l 1199 824 l 1199 39 l 1107 -53 l 1107 663 l 332 -112 l 263 -43 l 1038 731 l 322 731 l 414 824 z "},"↘":{"ha":1426,"x_min":235,"x_max":1169,"o":"m 1169 -93 l 386 -93 l 294 -1 l 1010 -3 l 235 772 l 304 842 l 1079 67 l 1078 785 l 1169 690 l 1169 -93 z "},"↙":{"ha":1426,"x_min":257,"x_max":1192,"o":"m 1192 772 l 417 -3 l 1132 -1 l 1040 -93 l 257 -93 l 257 690 l 349 785 l 347 67 l 1122 842 l 1192 772 z "},"∂":{"ha":756,"x_min":92,"x_max":629,"o":"m 629 339 q 550 68 629 150 q 361 -8 478 -8 q 171 68 243 -8 q 92 339 92 150 q 171 614 92 533 q 351 688 242 688 q 529 607 464 688 l 529 704 q 483 852 529 793 q 342 911 436 911 q 253 895 286 911 q 178 842 221 879 l 114 906 q 219 976 169 956 q 344 997 269 997 q 555 915 481 997 q 629 697 629 833 l 629 339 m 529 339 q 478 549 529 494 q 361 599 431 599 q 243 549 290 599 q 192 339 192 494 q 243 131 192 185 q 361 81 290 81 q 478 131 431 81 q 529 339 529 185 z "},"∆":{"ha":838,"x_min":11,"x_max":825,"o":"m 825 0 l 11 0 l 375 989 l 463 989 l 825 0 m 688 92 l 419 838 l 150 92 l 688 92 z "},"∏":{"ha":967,"x_min":143,"x_max":824,"o":"m 824 -306 l 718 -306 l 718 961 l 249 961 l 249 -306 l 143 -306 l 143 1056 l 824 1056 l 824 -306 z "},"∑":{"ha":765,"x_min":79,"x_max":694,"o":"m 694 -306 l 79 -306 l 79 -215 l 360 393 l 81 967 l 81 1056 l 693 1056 l 693 961 l 203 961 l 453 440 l 453 344 l 200 -211 l 694 -211 l 694 -306 z "},"−":{"ha":725,"x_min":72,"x_max":653,"o":"m 653 328 l 72 328 l 72 421 l 653 421 l 653 328 z "},"∙":{"ha":375,"x_min":122,"x_max":253,"o":"m 253 310 l 122 310 l 122 440 l 253 440 l 253 310 z "},"√":{"ha":781,"x_min":11,"x_max":739,"o":"m 739 894 l 615 894 l 322 0 l 238 0 l 11 683 l 121 683 l 281 189 l 536 989 l 739 989 l 739 894 z "},"∞":{"ha":1122,"x_min":93,"x_max":1028,"o":"m 967 530 q 998 498 967 530 q 1028 371 1028 467 q 967 213 1028 275 q 808 150 907 150 q 681 184 738 150 q 561 294 624 218 q 442 183 499 218 q 315 149 385 149 q 155 212 217 149 q 93 371 93 275 q 155 530 93 467 q 315 593 217 593 q 441 558 383 593 q 561 446 499 522 q 681 558 625 524 q 808 593 738 593 q 967 530 907 593 m 497 369 q 403 469 440 439 q 318 500 365 500 q 225 464 261 500 q 189 369 189 428 q 225 276 189 311 q 318 240 261 240 q 403 271 365 240 q 497 369 442 301 m 897 276 q 914 293 897 276 q 932 369 932 311 q 897 463 932 428 q 804 499 861 499 q 718 468 757 499 q 624 369 679 438 q 718 271 679 301 q 804 240 757 240 q 897 276 861 240 z "},"∤":{"ha":375,"x_min":122,"x_max":253,"o":"m 253 310 l 122 310 l 122 440 l 253 440 l 253 310 z "},"∧":{"ha":375,"x_min":122,"x_max":253,"o":"m 253 310 l 122 310 l 122 440 l 253 440 l 253 310 z "},"∫":{"ha":517,"x_min":51,"x_max":464,"o":"m 464 907 l 411 907 q 310 800 310 907 l 310 -108 q 260 -250 310 -197 q 121 -303 210 -303 l 51 -303 l 51 -217 l 106 -217 q 207 -110 207 -217 l 207 799 q 257 940 207 888 q 396 993 307 993 l 464 993 l 464 907 z "},"≈":{"ha":749,"x_min":68,"x_max":681,"o":"m 681 263 q 587 187 624 206 q 501 168 550 168 q 354 211 450 168 q 247 244 282 244 q 193 233 217 244 q 131 182 169 221 l 68 244 q 162 320 125 301 q 247 339 199 339 q 394 296 299 339 q 501 263 467 263 q 556 274 532 263 q 618 325 579 286 l 681 263 m 681 508 q 587 433 624 451 q 501 414 550 414 q 354 458 454 414 q 246 490 285 490 q 191 479 214 490 q 129 429 168 468 l 68 490 q 162 567 125 547 q 247 586 199 586 q 393 542 293 586 q 501 510 463 510 q 556 521 533 510 q 618 571 579 532 l 681 508 z "},"≠":{"ha":746,"x_min":72,"x_max":674,"o":"m 674 210 l 279 210 l 136 56 l 72 111 l 165 210 l 72 210 l 72 301 l 247 301 l 385 444 l 72 444 l 72 538 l 467 538 l 611 692 l 674 635 l 581 538 l 674 538 l 674 444 l 499 444 l 363 301 l 674 301 l 674 210 z "},"≤":{"ha":725,"x_min":132,"x_max":592,"o":"m 592 186 l 132 419 l 132 510 l 592 743 l 592 636 l 244 464 l 592 293 l 592 186 m 592 -22 l 132 211 l 132 318 l 592 85 l 592 -22 z "},"≥":{"ha":725,"x_min":132,"x_max":592,"o":"m 592 419 l 132 186 l 132 293 l 479 464 l 132 636 l 132 743 l 592 510 l 592 419 m 592 211 l 132 -22 l 132 85 l 592 318 l 592 211 z "},"⋅":{"ha":375,"x_min":122,"x_max":253,"o":"m 253 310 l 122 310 l 122 440 l 253 440 l 253 310 z "},"◊":{"ha":901,"x_min":93,"x_max":808,"o":"m 808 489 l 451 -17 l 93 489 l 451 994 l 808 489 m 696 489 l 451 840 l 206 489 l 451 135 l 696 489 z "},"ﬁ":{"ha":781,"x_min":58,"x_max":661,"o":"m 392 603 l 246 603 l 246 0 l 146 0 l 146 603 l 58 603 l 58 679 l 146 679 l 146 808 q 191 940 146 889 q 319 992 236 992 l 392 992 l 392 906 l 338 906 q 246 806 246 906 l 246 679 l 392 679 l 392 603 m 654 0 l 554 0 l 554 679 l 654 679 l 654 0 m 661 888 l 547 888 l 547 990 l 661 990 l 661 888 z "},"ﬂ":{"ha":836,"x_min":58,"x_max":796,"o":"m 392 603 l 246 603 l 246 0 l 146 0 l 146 603 l 58 603 l 58 679 l 146 679 l 146 808 q 191 940 146 889 q 319 992 236 992 l 392 992 l 392 906 l 338 906 q 246 806 246 906 l 246 679 l 392 679 l 392 603 m 796 0 l 724 0 q 593 50 638 0 q 549 182 549 100 l 549 989 l 649 989 l 649 186 q 669 110 649 135 q 740 86 690 86 l 796 86 l 796 0 z "}}}
